<svg width="21" height="24" viewBox="0 0 21 24" fill="none" xmlns="http://www.w3.org/2000/svg">
<path d="M9.5 10.125C12.0888 10.125 14.1875 8.02633 14.1875 5.4375C14.1875 2.84867 12.0888 0.75 9.5 0.75C6.91117 0.75 4.8125 2.84867 4.8125 5.4375C4.8125 8.02633 6.91117 10.125 9.5 10.125Z" fill="#451B0B"/>
<path d="M8.5625 17.625C8.56236 17.1325 8.65927 16.6448 8.84768 16.1898C9.03608 15.7347 9.3123 15.3213 9.66055 14.973C10.0088 14.6248 10.4222 14.3486 10.8773 14.1602C11.3323 13.9718 11.82 13.8749 12.3125 13.875C12.889 13.8728 13.4578 14.0077 13.9719 14.2687L14.1875 14.1281V12.8812C14.1883 12.7078 14.1404 12.5377 14.0492 12.3902C13.958 12.2427 13.8273 12.1237 13.6719 12.0469C12.379 11.3927 10.949 11.0552 9.5 11.0625C7.01485 11.0666 4.63266 12.0556 2.87539 13.8129C1.11812 15.5702 0.12909 17.9523 0.125 20.4375V22.3125C0.125717 22.5609 0.22472 22.799 0.40038 22.9746C0.57604 23.1503 0.81408 23.2493 1.0625 23.25H13.25C13.4984 23.2493 13.7365 23.1503 13.9121 22.9746C14.0878 22.799 14.1868 22.5609 14.1875 22.3125V20.8687C13.6188 21.2016 12.9714 21.3763 12.3125 21.375C11.82 21.3751 11.3323 21.2782 10.8773 21.0898C10.4222 20.9014 10.0088 20.6252 9.66055 20.2769C9.3123 19.9287 9.03608 19.5152 8.84768 19.0602C8.65927 18.6052 8.56236 18.1175 8.5625 17.625Z" fill="#451B0B"/>
<path d="M17.9375 17.625C17.2078 17.623 16.5069 17.9094 15.9875 18.4219L15.0875 17.9625C15.1092 17.8512 15.1218 17.7383 15.125 17.625C15.1221 17.3939 15.0906 17.164 15.0312 16.9406L16.2687 16.1156C16.8079 16.5182 17.4721 16.7169 18.1438 16.6766C18.8154 16.6362 19.4511 16.3594 19.9381 15.8951C20.4252 15.4308 20.7321 14.8091 20.8046 14.1402C20.877 13.4712 20.7103 12.7982 20.334 12.2405C19.9577 11.6827 19.396 11.2762 18.7486 11.0929C18.1011 10.9097 17.4098 10.9616 16.7969 11.2394C16.1841 11.5172 15.6894 12.003 15.4005 12.6107C15.1117 13.2184 15.0473 13.9087 15.2188 14.5594L14.1875 15.2531L13.9906 15.3844C13.5091 15.0149 12.9194 14.814 12.3125 14.8125C11.5666 14.8125 10.8512 15.1088 10.3238 15.6363C9.79632 16.1637 9.5 16.8791 9.5 17.625C9.5 18.3709 9.79632 19.0863 10.3238 19.6137C10.8512 20.1412 11.5666 20.4375 12.3125 20.4375C13.0076 20.4401 13.6777 20.1787 14.1875 19.7062C14.2148 19.6871 14.2399 19.6651 14.2625 19.6406L15.1625 20.1C15.1408 20.2113 15.1282 20.3242 15.125 20.4375C15.125 20.9938 15.2899 21.5375 15.599 22C15.908 22.4626 16.3473 22.823 16.8612 23.0359C17.3751 23.2488 17.9406 23.3045 18.4862 23.196C19.0318 23.0874 19.5329 22.8196 19.9262 22.4262C20.3196 22.0329 20.5874 21.5318 20.696 20.9862C20.8045 20.4406 20.7488 19.8751 20.5359 19.3612C20.323 18.8473 19.9626 18.408 19.5 18.099C19.0375 17.7899 18.4938 17.625 17.9375 17.625Z" fill="#451B0B"/>
</svg>
