<svg width="25" height="26" viewBox="0 0 25 26" fill="none" xmlns="http://www.w3.org/2000/svg">
<g clip-path="url(#clip0_21_915)">
<path d="M8.42773 25.5H2.5C2.3584 25.5 2.24121 25.3828 2.24121 25.2412V19.04C2.24121 18.3223 2.82227 17.7363 3.54492 17.7363H8.38379C8.39844 25.666 8.33984 25.2705 8.42773 25.5ZM16.0938 12.0869V25.2412C16.0938 25.3828 15.9766 25.5 15.835 25.5H9.16504C9.02344 25.5 8.90625 25.3828 8.90625 25.2412V12.0869C8.90625 11.3691 9.48731 10.7832 10.21 10.7832H14.7949C15.5127 10.7832 16.0938 11.3691 16.0938 12.0869ZM22.7588 16.1641V25.2412C22.7588 25.3828 22.6416 25.5 22.5 25.5H16.5674C16.6553 25.2705 16.5967 25.7979 16.6162 14.8604H21.46C22.1729 14.8604 22.7588 15.4463 22.7588 16.1641ZM14.9707 5.17773C14.9072 5.23633 14.8779 5.32422 14.8975 5.40723L15.166 6.97461C15.2197 7.27246 15.0977 7.56543 14.8584 7.74121C14.5996 7.92676 14.2773 7.93164 14.0332 7.7998L12.6221 7.0625C12.5488 7.02344 12.4561 7.02344 12.3779 7.0625L10.9668 7.7998C10.7031 7.94141 10.3906 7.91699 10.1416 7.74121C9.89746 7.56543 9.78027 7.27246 9.83398 6.97461L10.1025 5.40723C10.1172 5.32422 10.0879 5.23633 10.0293 5.17773L8.8916 4.06445C8.67676 3.85449 8.60352 3.54688 8.69141 3.26367C8.78418 2.97559 9.02832 2.77539 9.32129 2.73145L10.8984 2.50684C10.9863 2.49219 11.0596 2.43848 11.0938 2.36523L11.8018 0.939453C11.9336 0.666016 12.2021 0.5 12.5 0.5C12.7979 0.5 13.0664 0.666016 13.1982 0.93457L13.9014 2.36035C13.9404 2.43359 14.0137 2.49219 14.0967 2.50195L15.6738 2.72656C15.9717 2.77051 16.2109 2.97559 16.3037 3.25879C16.3965 3.54199 16.3184 3.84961 16.1035 4.05957L14.9707 5.17773Z" fill="#451B0B"/>
</g>
<defs>
<clipPath id="clip0_21_915">
<rect width="25" height="25" fill="white" transform="translate(0 0.5)"/>
</clipPath>
</defs>
</svg>
