<svg width="27" height="26" viewBox="0 0 27 26" fill="none" xmlns="http://www.w3.org/2000/svg">
<path d="M10.5865 13.7917V25H4.46677C3.50248 25 2.71828 24.246 2.71828 23.3188V13.7351C2.91008 13.7728 3.10535 13.7917 3.30111 13.7917H10.5865ZM11.7522 13.7917V25H15.2492V13.7917H11.7522ZM23.7002 13.7917H16.4148V25H22.5346C23.4989 25 24.2831 24.246 24.2831 23.3188V13.7351C24.0913 13.7728 23.896 13.7917 23.7002 13.7917ZM25.4487 8.74795V10.9896C25.4487 11.9168 24.6645 12.6709 23.7002 12.6709H3.30111C2.33681 12.6709 1.55261 11.9168 1.55261 10.9896V8.74795C1.55261 7.82074 2.33681 7.0667 3.30111 7.0667H8.84355C8.46211 6.58292 8.25551 5.99255 8.25518 5.38545C8.25518 3.84039 9.56248 2.58337 11.1693 2.58337C12.1231 2.58337 12.9688 3.02834 13.5007 3.71149C14.0328 3.02834 14.8782 2.58337 15.832 2.58337C17.4389 2.58337 18.7462 3.84039 18.7462 5.38545C18.7458 5.99255 18.5392 6.58292 18.1578 7.0667H23.7002C24.6645 7.0667 25.4487 7.82074 25.4487 8.74795ZM14.0835 5.38545V7.0667H15.832C16.7963 7.0667 17.5805 6.31266 17.5805 5.38545C17.5805 4.45824 16.7963 3.70421 15.832 3.70421C14.8677 3.70421 14.0835 4.45824 14.0835 5.38545ZM11.1693 7.0667H12.9178V5.38545C12.9178 4.45824 12.1336 3.70421 11.1693 3.70421C10.205 3.70421 9.42085 4.45824 9.42085 5.38545C9.42085 6.31266 10.205 7.0667 11.1693 7.0667Z" fill="#451B0B"/>
</svg>
