<svg width="27" height="28" viewBox="0 0 27 28" fill="none" xmlns="http://www.w3.org/2000/svg">
<g clip-path="url(#clip0_21_911)">
<path d="M21.8588 15.1025C21.9038 14.7425 21.9375 14.3825 21.9375 14C21.9375 13.6175 21.9038 13.2575 21.8588 12.8975L24.2325 11.0413C24.4463 10.8725 24.5025 10.5687 24.3675 10.3212L22.1175 6.42875C21.9825 6.18125 21.6788 6.09125 21.4313 6.18125L18.63 7.30625C18.045 6.85625 17.415 6.485 16.7288 6.20375L16.3013 3.2225C16.2675 2.9525 16.0313 2.75 15.75 2.75H11.25C10.9688 2.75 10.7325 2.9525 10.6988 3.2225L10.2713 6.20375C9.585 6.485 8.955 6.8675 8.37 7.30625L5.56875 6.18125C5.31 6.08 5.0175 6.18125 4.8825 6.42875L2.6325 10.3212C2.48625 10.5687 2.55375 10.8725 2.7675 11.0413L5.14125 12.8975C5.09625 13.2575 5.0625 13.6287 5.0625 14C5.0625 14.3713 5.09625 14.7425 5.14125 15.1025L2.7675 16.9587C2.55375 17.1275 2.4975 17.4313 2.6325 17.6788L4.8825 21.5712C5.0175 21.8188 5.32125 21.9088 5.56875 21.8188L8.37 20.6938C8.955 21.1438 9.585 21.515 10.2713 21.7962L10.6988 24.7775C10.7325 25.0475 10.9688 25.25 11.25 25.25H15.75C16.0313 25.25 16.2675 25.0475 16.3013 24.7775L16.7288 21.7962C17.415 21.515 18.045 21.1325 18.63 20.6938L21.4313 21.8188C21.69 21.92 21.9825 21.8188 22.1175 21.5712L24.3675 17.6788C24.5025 17.4313 24.4463 17.1275 24.2325 16.9587L21.8588 15.1025ZM13.5 17.9375C11.3288 17.9375 9.5625 16.1713 9.5625 14C9.5625 11.8287 11.3288 10.0625 13.5 10.0625C15.6713 10.0625 17.4375 11.8287 17.4375 14C17.4375 16.1713 15.6713 17.9375 13.5 17.9375Z" fill="#451B0B"/>
</g>
<defs>
<clipPath id="clip0_21_911">
<rect width="27" height="27" fill="white" transform="translate(0 0.5)"/>
</clipPath>
</defs>
</svg>
