<svg width="264" height="264" viewBox="0 0 264 264" fill="none" xmlns="http://www.w3.org/2000/svg">
<g clip-path="url(#clip0_49_38531)">
<path fill-rule="evenodd" clip-rule="evenodd" d="M131.976 8.7488e-06C158.092 -0.00949661 183.624 7.72671 205.343 22.23C227.061 36.7334 243.991 57.3522 253.989 81.4784C263.988 105.605 266.606 132.154 261.514 157.769C256.421 183.383 243.846 206.912 225.379 225.379C206.912 243.846 183.383 256.421 157.769 261.514C132.154 266.606 105.605 263.988 81.4784 253.989C57.3522 243.991 36.7334 227.061 22.23 205.343C7.72671 183.624 -0.00949661 158.092 8.7488e-06 131.976C0.012747 96.9777 13.9214 63.4165 38.6689 38.6689C63.4165 13.9214 96.9777 0.012747 131.976 8.7488e-06Z" fill="url(#paint0_linear_49_38531)"/>
<path fill-rule="evenodd" clip-rule="evenodd" d="M13.1207 131.976C13.144 116.379 16.2419 100.939 22.2374 86.5404C28.2328 72.1415 37.008 59.0658 48.0612 48.0612L38.4489 38.449C26.1666 50.7113 16.4226 65.2751 9.77437 81.3069C3.12612 97.3388 -0.295898 114.524 -0.295898 131.88C-0.295898 149.236 3.12612 166.421 9.77437 182.453C16.4226 198.485 26.1666 213.048 38.4489 225.311L48.0612 216.275C36.9579 205.228 28.1533 192.091 22.1562 177.622C16.159 163.153 13.0881 147.639 13.1207 131.976Z" fill="url(#paint1_linear_49_38531)"/>
<path fill-rule="evenodd" clip-rule="evenodd" d="M216.275 48.0612C227.337 59.0971 236.113 72.2065 242.101 86.6389C248.089 101.071 251.171 116.543 251.171 132.168C251.171 147.794 248.089 163.265 242.101 177.698C236.113 192.13 227.337 205.239 216.275 216.275L225.551 225.551C237.865 213.275 247.631 198.686 254.288 182.622C260.944 166.559 264.359 149.338 264.337 131.95C264.314 114.562 260.855 97.3501 254.157 81.3038C247.46 65.2575 237.657 50.6934 225.311 38.449L216.275 48.0612Z" fill="url(#paint2_linear_49_38531)"/>
<path fill-rule="evenodd" clip-rule="evenodd" d="M131.976 13.1207C147.638 13.0881 163.152 16.159 177.621 22.1562C192.091 28.1533 205.228 36.9579 216.275 48.0612L225.311 38.4489C213.048 26.1666 198.484 16.4226 182.453 9.77437C166.421 3.12612 149.235 -0.295898 131.88 -0.295898C114.524 -0.295898 97.3386 3.12612 81.3067 9.77437C65.2748 16.4226 50.7111 26.1666 38.4487 38.4489L48.061 48.0612C59.0655 37.008 72.1412 28.2328 86.5401 22.2374C100.939 16.2419 116.379 13.144 131.976 13.1207Z" fill="url(#paint3_linear_49_38531)"/>
<path fill-rule="evenodd" clip-rule="evenodd" d="M216.275 216.275C205.239 227.337 192.13 236.113 177.697 242.101C163.265 248.089 147.793 251.171 132.168 251.171C116.543 251.171 101.071 248.089 86.6386 242.101C72.2063 236.113 59.0968 227.337 48.061 216.275L38.4487 225.311C50.7011 237.576 65.2507 247.305 81.2657 253.944C97.2808 260.582 114.447 263.999 131.784 263.999C149.12 263.999 166.286 260.582 182.301 253.944C198.316 247.305 212.866 237.576 225.118 225.311L216.275 216.275Z" fill="url(#paint4_linear_49_38531)"/>
<path fill-rule="evenodd" clip-rule="evenodd" d="M129.765 10.4292C145.613 10.4267 161.298 13.6221 175.882 19.824C190.466 26.0259 203.649 35.1068 214.641 46.5231C194.958 27.6859 169.403 16.1793 142.252 13.9285C115.101 11.6777 88.0004 18.8192 65.4845 34.1582C42.9685 49.4972 26.4031 72.1032 18.5597 98.1941C10.7162 124.285 12.0706 152.278 22.3963 177.49C14.2004 159.508 10.6485 139.757 12.0659 120.046C13.4833 100.335 19.8246 81.2953 30.509 64.671C41.1933 48.0467 55.8788 34.3695 73.22 24.8929C90.5611 15.4162 110.003 10.4431 129.765 10.4292Z" fill="#FDFDFF"/>
<path fill-rule="evenodd" clip-rule="evenodd" d="M131.976 13.1206C155.497 13.1111 178.492 20.0778 198.053 33.1394C217.614 46.201 232.862 64.7707 241.867 86.4994C250.873 108.228 253.231 132.14 248.645 155.209C244.059 178.279 232.733 199.469 216.101 216.101C199.469 232.733 178.279 244.059 155.209 248.645C132.14 253.231 108.228 250.873 86.4994 241.867C64.7707 232.862 46.201 217.614 33.1394 198.053C20.0778 178.492 13.1111 155.497 13.1206 131.976C13.1334 100.457 25.6597 70.2335 47.9466 47.9466C70.2335 25.6597 100.457 13.1334 131.976 13.1206Z" fill="url(#paint5_linear_49_38531)"/>
<path style="mix-blend-mode:screen" opacity="0.65" fill-rule="evenodd" clip-rule="evenodd" d="M131.976 127.506C186.429 127.506 232.904 123.565 250.062 117.894C246.608 89.0094 232.685 62.3931 210.928 43.0828C189.171 23.7725 161.09 13.1082 132 13.1082C102.909 13.1082 74.8283 23.7725 53.0714 43.0828C31.3145 62.3931 17.3914 89.0094 13.9375 117.894C31.1915 123.421 77.5224 127.506 131.976 127.506Z" fill="url(#paint6_linear_49_38531)"/>
<path style="mix-blend-mode:screen" opacity="0.5" fill-rule="evenodd" clip-rule="evenodd" d="M229.252 68.2469C218.669 52.114 204.24 38.8672 187.262 29.6999C170.285 20.5325 151.294 15.7327 132 15.7327C112.706 15.7327 93.7151 20.5325 76.738 29.6999C59.7609 38.8672 45.3311 52.114 34.7484 68.2469C24.4153 84.0109 239.585 84.0109 229.252 68.2469Z" fill="url(#paint7_linear_49_38531)"/>
<g style="mix-blend-mode:hue">
<mask id="mask0_49_38531" style="mask-type:alpha" maskUnits="userSpaceOnUse" x="0" y="-6" width="264" height="265">
<g clip-path="url(#clip1_49_38531)">
<path fill-rule="evenodd" clip-rule="evenodd" d="M131.976 -5.12621C158.092 -5.13572 183.624 2.60049 205.343 17.1038C227.061 31.6072 243.991 52.226 253.989 76.3522C263.988 100.478 266.606 127.028 261.514 152.643C256.421 178.257 243.846 201.786 225.379 220.253C206.912 238.72 183.383 251.295 157.769 256.387C132.154 261.48 105.605 258.861 81.4784 248.863C57.3522 238.864 36.7334 221.935 22.23 200.216C7.72671 178.498 -0.00949661 152.966 8.7488e-06 126.85C0.012747 91.8515 13.9214 58.2903 38.6689 33.5427C63.4165 8.79519 96.9777 -5.11347 131.976 -5.12621Z" fill="url(#paint8_linear_49_38531)"/>
<path fill-rule="evenodd" clip-rule="evenodd" d="M13.1207 126.85C13.144 111.253 16.2419 95.813 22.2374 81.4141C28.2328 67.0152 37.008 53.9396 48.0612 42.935L38.4489 33.3228C26.1666 45.5851 16.4226 60.1488 9.77437 76.1807C3.12612 92.2126 -0.295898 109.398 -0.295898 126.754C-0.295898 144.109 3.12612 161.295 9.77437 177.327C16.4226 193.359 26.1666 207.922 38.4489 220.185L48.0612 211.149C36.9579 200.102 28.1533 186.965 22.1562 172.495C16.159 158.026 13.0881 142.512 13.1207 126.85Z" fill="url(#paint9_linear_49_38531)"/>
<path fill-rule="evenodd" clip-rule="evenodd" d="M216.275 42.935C227.337 53.9708 236.113 67.0803 242.101 81.5127C248.089 95.945 251.171 111.417 251.171 127.042C251.171 142.667 248.089 158.139 242.101 172.571C236.113 187.004 227.337 200.113 216.275 211.149L225.551 220.425C237.865 208.149 247.631 193.56 254.288 177.496C260.944 161.433 264.359 144.212 264.337 126.824C264.314 109.436 260.855 92.2239 254.157 76.1776C247.46 60.1312 237.657 45.5671 225.311 33.3228L216.275 42.935Z" fill="url(#paint10_linear_49_38531)"/>
<path fill-rule="evenodd" clip-rule="evenodd" d="M131.976 7.99448C147.638 7.96184 163.152 11.0328 177.621 17.03C192.091 23.0271 205.228 31.8316 216.275 42.9349L225.311 33.3227C213.048 21.0404 198.484 11.2964 182.453 4.64815C166.421 -2.0001 149.235 -5.42212 131.88 -5.42212C114.524 -5.42212 97.3386 -2.0001 81.3067 4.64815C65.2748 11.2964 50.7111 21.0404 38.4487 33.3227L48.061 42.9349C59.0655 31.8818 72.1412 23.1065 86.5401 17.1111C100.939 11.1157 116.379 8.01777 131.976 7.99448Z" fill="url(#paint11_linear_49_38531)"/>
<path fill-rule="evenodd" clip-rule="evenodd" d="M216.275 211.149C205.239 222.21 192.13 230.986 177.697 236.974C163.265 242.962 147.793 246.045 132.168 246.045C116.543 246.045 101.071 242.962 86.6386 236.974C72.2063 230.986 59.0968 222.21 48.061 211.149L38.4487 220.184C50.7011 232.449 65.2507 242.179 81.2657 248.818C97.2808 255.456 114.447 258.873 131.784 258.873C149.12 258.873 166.286 255.456 182.301 248.818C198.316 242.179 212.866 232.449 225.118 220.184L216.275 211.149Z" fill="url(#paint12_linear_49_38531)"/>
<path fill-rule="evenodd" clip-rule="evenodd" d="M129.765 5.30298C145.613 5.3005 161.298 8.49586 175.882 14.6978C190.466 20.8997 203.649 29.9806 214.641 41.3969C194.958 22.5597 169.403 11.0531 142.252 8.80231C115.101 6.5515 88.0004 13.693 65.4845 29.032C42.9685 44.371 26.4031 66.977 18.5597 93.0679C10.7162 119.159 12.0706 147.152 22.3963 172.364C14.2004 154.382 10.6485 134.63 12.0659 114.92C13.4833 95.2089 19.8246 76.169 30.509 59.5447C41.1933 42.9204 55.8788 29.2433 73.22 19.7667C90.5611 10.29 110.003 5.31689 129.765 5.30298Z" fill="#FDFDFF"/>
<path fill-rule="evenodd" clip-rule="evenodd" d="M131.976 7.99439C155.497 7.98489 178.492 14.9516 198.053 28.0132C217.614 41.0748 232.862 59.6445 241.867 81.3732C250.873 103.102 253.231 127.013 248.645 150.083C244.059 173.152 232.733 194.343 216.101 210.975C199.469 227.607 178.279 238.932 155.209 243.519C132.14 248.105 108.228 245.746 86.4994 236.741C64.7707 227.735 46.201 212.488 33.1394 192.927C20.0778 173.366 13.1111 150.371 13.1206 126.85C13.1334 95.3312 25.6597 65.1073 47.9466 42.8204C70.2335 20.5334 100.457 8.00713 131.976 7.99439Z" fill="url(#paint13_linear_49_38531)"/>
<path style="mix-blend-mode:screen" opacity="0.65" fill-rule="evenodd" clip-rule="evenodd" d="M131.976 122.38C186.429 122.38 232.904 118.439 250.062 112.768C246.608 83.8831 232.685 57.2669 210.928 37.9566C189.171 18.6463 161.09 7.98193 132 7.98193C102.909 7.98193 74.8283 18.6463 53.0714 37.9566C31.3145 57.2669 17.3914 83.8831 13.9375 112.768C31.1915 118.295 77.5224 122.38 131.976 122.38Z" fill="url(#paint14_linear_49_38531)"/>
<path style="mix-blend-mode:screen" opacity="0.5" fill-rule="evenodd" clip-rule="evenodd" d="M229.252 63.1207C218.669 46.9878 204.24 33.741 187.262 24.5736C170.285 15.4063 151.294 10.6064 132 10.6064C112.706 10.6064 93.7151 15.4063 76.738 24.5736C59.7609 33.741 45.3311 46.9878 34.7484 63.1207C24.4153 78.8847 239.585 78.8847 229.252 63.1207Z" fill="url(#paint15_linear_49_38531)"/>
</g>
</mask>
<g mask="url(#mask0_49_38531)">
<rect x="-98.6797" y="-49.9805" width="486.99" height="393.437" fill="#973E3D"/>
</g>
</g>
</g>
<defs>
<linearGradient id="paint0_linear_49_38531" x1="131.976" y1="264" x2="131.976" y2="0" gradientUnits="userSpaceOnUse">
<stop stop-color="#293140"/>
<stop offset="1" stop-color="#576485"/>
</linearGradient>
<linearGradient id="paint1_linear_49_38531" x1="23.9825" y1="225.311" x2="23.9825" y2="38.6412" gradientUnits="userSpaceOnUse">
<stop stop-color="#293140"/>
<stop offset="0.06" stop-color="#2D3545"/>
<stop offset="0.14" stop-color="#394154"/>
<stop offset="0.22" stop-color="#4D566D"/>
<stop offset="0.31" stop-color="#697290"/>
<stop offset="0.41" stop-color="#8F98C0"/>
<stop offset="0.54" stop-color="#657299"/>
<stop offset="0.61" stop-color="#7A85A7"/>
<stop offset="0.95" stop-color="#EAEBF3"/>
</linearGradient>
<linearGradient id="paint2_linear_49_38531" x1="240.018" y1="225.311" x2="240.018" y2="38.6412" gradientUnits="userSpaceOnUse">
<stop stop-color="#293140"/>
<stop offset="0.06" stop-color="#2D3545"/>
<stop offset="0.14" stop-color="#394154"/>
<stop offset="0.22" stop-color="#4D566D"/>
<stop offset="0.31" stop-color="#697290"/>
<stop offset="0.41" stop-color="#8F98C0"/>
<stop offset="0.54" stop-color="#657299"/>
<stop offset="0.61" stop-color="#7A85A7"/>
<stop offset="0.95" stop-color="#EAEBF3"/>
</linearGradient>
<linearGradient id="paint3_linear_49_38531" x1="131.976" y1="47.917" x2="131.976" y2="-3.32806e-06" gradientUnits="userSpaceOnUse">
<stop stop-color="#D4D6E7"/>
<stop offset="1" stop-color="#F6F6FA"/>
</linearGradient>
<linearGradient id="paint4_linear_49_38531" x1="131.976" y1="264" x2="131.976" y2="216.035" gradientUnits="userSpaceOnUse">
<stop stop-color="#576485"/>
<stop offset="0.03" stop-color="#505D7B"/>
<stop offset="0.12" stop-color="#424D65"/>
<stop offset="0.22" stop-color="#374054"/>
<stop offset="0.34" stop-color="#2F3749"/>
<stop offset="0.52" stop-color="#2A3242"/>
<stop offset="1" stop-color="#293140"/>
</linearGradient>
<linearGradient id="paint5_linear_49_38531" x1="131.976" y1="250.879" x2="131.976" y2="13.1206" gradientUnits="userSpaceOnUse">
<stop offset="0.06" stop-color="#5E6A81"/>
<stop offset="0.41" stop-color="#909ABA"/>
<stop offset="0.45" stop-color="#959EBE"/>
<stop offset="0.61" stop-color="#A9AFCD"/>
<stop offset="0.72" stop-color="#B0B5D2"/>
<stop offset="1" stop-color="#F5F6FA"/>
</linearGradient>
<linearGradient id="paint6_linear_49_38531" x1="131.976" y1="127.506" x2="131.976" y2="13.1206" gradientUnits="userSpaceOnUse">
<stop stop-color="#101214"/>
<stop offset="1" stop-color="#DDDEE8"/>
</linearGradient>
<linearGradient id="paint7_linear_49_38531" x1="131.976" y1="80.0699" x2="131.976" y2="15.716" gradientUnits="userSpaceOnUse">
<stop stop-color="#0B0C0D"/>
<stop offset="1" stop-color="#DBDBEB"/>
</linearGradient>
<linearGradient id="paint8_linear_49_38531" x1="131.976" y1="258.874" x2="131.976" y2="-5.12622" gradientUnits="userSpaceOnUse">
<stop stop-color="#293140"/>
<stop offset="1" stop-color="#576485"/>
</linearGradient>
<linearGradient id="paint9_linear_49_38531" x1="23.9825" y1="220.185" x2="23.9825" y2="33.515" gradientUnits="userSpaceOnUse">
<stop stop-color="#293140"/>
<stop offset="0.06" stop-color="#2D3545"/>
<stop offset="0.14" stop-color="#394154"/>
<stop offset="0.22" stop-color="#4D566D"/>
<stop offset="0.31" stop-color="#697290"/>
<stop offset="0.41" stop-color="#8F98C0"/>
<stop offset="0.54" stop-color="#657299"/>
<stop offset="0.61" stop-color="#7A85A7"/>
<stop offset="0.95" stop-color="#EAEBF3"/>
</linearGradient>
<linearGradient id="paint10_linear_49_38531" x1="240.018" y1="220.185" x2="240.018" y2="33.515" gradientUnits="userSpaceOnUse">
<stop stop-color="#293140"/>
<stop offset="0.06" stop-color="#2D3545"/>
<stop offset="0.14" stop-color="#394154"/>
<stop offset="0.22" stop-color="#4D566D"/>
<stop offset="0.31" stop-color="#697290"/>
<stop offset="0.41" stop-color="#8F98C0"/>
<stop offset="0.54" stop-color="#657299"/>
<stop offset="0.61" stop-color="#7A85A7"/>
<stop offset="0.95" stop-color="#EAEBF3"/>
</linearGradient>
<linearGradient id="paint11_linear_49_38531" x1="131.976" y1="42.7908" x2="131.976" y2="-5.12622" gradientUnits="userSpaceOnUse">
<stop stop-color="#D4D6E7"/>
<stop offset="1" stop-color="#F6F6FA"/>
</linearGradient>
<linearGradient id="paint12_linear_49_38531" x1="131.976" y1="258.874" x2="131.976" y2="210.909" gradientUnits="userSpaceOnUse">
<stop stop-color="#576485"/>
<stop offset="0.03" stop-color="#505D7B"/>
<stop offset="0.12" stop-color="#424D65"/>
<stop offset="0.22" stop-color="#374054"/>
<stop offset="0.34" stop-color="#2F3749"/>
<stop offset="0.52" stop-color="#2A3242"/>
<stop offset="1" stop-color="#293140"/>
</linearGradient>
<linearGradient id="paint13_linear_49_38531" x1="131.976" y1="245.753" x2="131.976" y2="7.99438" gradientUnits="userSpaceOnUse">
<stop offset="0.06" stop-color="#5E6A81"/>
<stop offset="0.41" stop-color="#909ABA"/>
<stop offset="0.45" stop-color="#959EBE"/>
<stop offset="0.61" stop-color="#A9AFCD"/>
<stop offset="0.72" stop-color="#B0B5D2"/>
<stop offset="1" stop-color="#F5F6FA"/>
</linearGradient>
<linearGradient id="paint14_linear_49_38531" x1="131.976" y1="122.38" x2="131.976" y2="7.99438" gradientUnits="userSpaceOnUse">
<stop stop-color="#101214"/>
<stop offset="1" stop-color="#DDDEE8"/>
</linearGradient>
<linearGradient id="paint15_linear_49_38531" x1="131.976" y1="74.9437" x2="131.976" y2="10.5898" gradientUnits="userSpaceOnUse">
<stop stop-color="#0B0C0D"/>
<stop offset="1" stop-color="#DBDBEB"/>
</linearGradient>
<clipPath id="clip0_49_38531">
<rect width="264" height="264" fill="white"/>
</clipPath>
<clipPath id="clip1_49_38531">
<rect width="264" height="264" fill="white" transform="translate(0 -5.12622)"/>
</clipPath>
</defs>
</svg>
