<svg width="314" height="314" viewBox="0 0 314 314" fill="none" xmlns="http://www.w3.org/2000/svg">
<g clip-path="url(#clip0_49_38666)">
<path d="M157 314C243.709 314 314 243.709 314 157C314 70.2913 243.709 0 157 0C70.2913 0 0 70.2913 0 157C0 243.709 70.2913 314 157 314Z" fill="url(#paint0_linear_49_38666)"/>
<path style="mix-blend-mode:screen" d="M157 313.27C243.305 313.27 313.27 243.306 313.27 157C313.27 70.6948 243.305 0.730469 157 0.730469C70.6944 0.730469 0.72998 70.6948 0.72998 157C0.72998 243.306 70.6944 313.27 157 313.27Z" fill="url(#paint1_radial_49_38666)"/>
<path opacity="0.3" d="M157 309.278C115.767 309.287 76.1859 293.073 46.809 264.139C17.432 235.206 0.618025 195.876 0 154.647C0 155.426 0 156.27 0 157C0 198.639 16.541 238.573 45.9842 268.016C75.4275 297.459 115.361 314 157 314C198.639 314 238.573 297.459 268.016 268.016C297.459 238.573 314 198.639 314 157C314 156.205 314 155.377 314 154.647C313.382 195.876 296.568 235.206 267.191 264.139C237.814 293.073 198.233 309.287 157 309.278Z" fill="#FFEA83"/>
<path d="M157 5.90685C198.127 5.90808 237.611 22.0468 266.964 50.8534C296.316 79.66 313.194 118.834 313.968 159.953C313.968 158.964 313.968 157.99 313.968 157C313.374 115.756 296.574 76.4027 267.199 47.4464C237.823 18.49 198.232 2.25732 156.984 2.25732C115.736 2.25732 76.1446 18.49 46.769 47.4464C17.3933 76.4027 0.593036 115.756 0 157C0 157.99 0 158.964 0 159.953C0.773754 118.828 17.6557 79.6495 47.0155 50.842C76.3753 22.0346 115.868 5.89957 157 5.90685Z" fill="#FFEA83"/>
<path style="mix-blend-mode:screen" opacity="0.5" d="M157 0.584229C116.272 0.58619 77.1527 16.482 47.967 44.8888C18.7812 73.2956 1.83336 111.971 0.72998 152.684C18.0122 162.923 45.193 154.728 62.962 145.836C78.2482 138.777 97.0395 141.13 113.51 142.314C154.647 145.836 194.647 163.41 235.751 152.895C243.979 150.542 255.727 139.913 263.954 147.004C270.759 152.587 279.023 156.099 287.765 157.123C296.507 158.147 305.359 156.64 313.27 152.781C312.191 112.051 295.254 73.3513 266.066 44.9237C236.877 16.4961 197.744 0.58687 157 0.584229Z" fill="url(#paint2_linear_49_38666)"/>
<path d="M157 278.592C224.153 278.592 278.592 224.153 278.592 157C278.592 89.8467 224.153 35.4082 157 35.4082C89.8467 35.4082 35.4082 89.8467 35.4082 157C35.4082 224.153 89.8467 278.592 157 278.592Z" fill="url(#paint3_linear_49_38666)"/>
<path d="M157 272.685C220.891 272.685 272.685 220.891 272.685 157C272.685 93.1089 220.891 41.3149 157 41.3149C93.1089 41.3149 41.3149 93.1089 41.3149 157C41.3149 220.891 93.1089 272.685 157 272.685Z" fill="#D68738"/>
<path d="M157 267.963C218.283 267.963 267.963 218.283 267.963 157C267.963 95.7166 218.283 46.0369 157 46.0369C95.7169 46.0369 46.0371 95.7166 46.0371 157C46.0371 218.283 95.7169 267.963 157 267.963Z" fill="url(#paint4_radial_49_38666)"/>
<path opacity="0.2" d="M157 259.638C96.6988 259.638 47.6434 213.91 46.0693 153.982C46.0693 154.972 46.0693 155.945 46.0693 156.935C46.0693 186.365 57.76 214.588 78.5696 235.398C99.3792 256.208 127.603 267.898 157.032 267.898C186.461 267.898 214.685 256.208 235.495 235.398C256.304 214.588 267.995 186.365 267.995 156.935C267.995 155.945 267.995 154.972 267.995 153.982C266.356 213.975 217.301 259.638 157 259.638Z" fill="#FFEA83"/>
<path opacity="0.3" d="M120.342 173.13L114.273 208.457C114.128 209.329 114.183 210.223 114.435 211.07L120.926 173.633L120.342 173.13Z" fill="#FFEA83"/>
<path opacity="0.3" d="M193.657 173.13L193.105 173.633L199.596 211.07C199.849 210.223 199.904 209.329 199.759 208.457L193.657 173.13Z" fill="#FFEA83"/>
</g>
<defs>
<linearGradient id="paint0_linear_49_38666" x1="157" y1="0" x2="157" y2="314" gradientUnits="userSpaceOnUse">
<stop stop-color="#F8BE4F"/>
<stop offset="0.11" stop-color="#FBC450"/>
<stop offset="0.3" stop-color="#FFCB52"/>
<stop offset="1" stop-color="#D17D3D"/>
</linearGradient>
<radialGradient id="paint1_radial_49_38666" cx="0" cy="0" r="1" gradientUnits="userSpaceOnUse" gradientTransform="translate(155.426 -21.5984) scale(125.032)">
<stop stop-color="#FFDF7D"/>
<stop offset="1"/>
</radialGradient>
<linearGradient id="paint2_linear_49_38666" x1="157" y1="311.225" x2="157" y2="83.3926" gradientUnits="userSpaceOnUse">
<stop stop-color="#FFCA85"/>
<stop offset="1"/>
</linearGradient>
<linearGradient id="paint3_linear_49_38666" x1="157" y1="278.592" x2="157" y2="-20.1706" gradientUnits="userSpaceOnUse">
<stop stop-color="#FBC450"/>
<stop offset="1" stop-color="#E09744"/>
</linearGradient>
<radialGradient id="paint4_radial_49_38666" cx="0" cy="0" r="1" gradientUnits="userSpaceOnUse" gradientTransform="translate(156.026 94.6866) scale(216.149)">
<stop offset="0.3" stop-color="#FFCB52"/>
<stop offset="1" stop-color="#D17D3D"/>
</radialGradient>
<clipPath id="clip0_49_38666">
<rect width="314" height="314" fill="white"/>
</clipPath>
</defs>
</svg>
