<svg width="277" height="276" viewBox="0 0 277 276" fill="none" xmlns="http://www.w3.org/2000/svg">
<g clip-path="url(#clip0_49_38612)">
<path fill-rule="evenodd" clip-rule="evenodd" d="M138.104 0.309091C165.371 0.299167 192.029 8.3765 214.706 23.5193C237.382 38.6622 255.058 60.1902 265.497 85.3802C275.937 110.57 278.671 138.291 273.353 165.035C268.036 191.779 254.907 216.345 235.626 235.626C216.345 254.907 191.778 268.037 165.034 273.354C138.29 278.671 110.57 275.937 85.3797 265.498C60.1897 255.058 38.6617 237.382 23.5189 214.706C8.37601 192.03 0.298678 165.372 0.308603 138.104C0.321903 101.563 14.8439 66.5219 40.6826 40.6831C66.5214 14.8443 101.562 0.322391 138.104 0.309091Z" fill="url(#paint0_linear_49_38612)"/>
<path fill-rule="evenodd" clip-rule="evenodd" d="M14.0082 138.104C14.0325 121.819 17.2671 105.699 23.5268 90.665C29.7866 75.6312 38.9488 61.979 50.4893 50.4892L40.4532 40.4531C27.6294 53.2562 17.4557 68.4621 10.5143 85.2009C3.57291 101.94 0 119.883 0 138.004C0 156.125 3.57291 174.068 10.5143 190.807C17.4557 207.545 27.6294 222.751 40.4532 235.554L50.4893 226.121C38.8964 214.586 29.7037 200.87 23.4421 185.763C17.1805 170.655 13.9741 154.457 14.0082 138.104Z" fill="url(#paint1_linear_49_38612)"/>
<path fill-rule="evenodd" clip-rule="evenodd" d="M226.121 50.4892C237.67 62.0117 246.833 75.6992 253.085 90.7679C259.337 105.837 262.555 121.991 262.555 138.305C262.555 154.619 259.337 170.773 253.085 185.842C246.833 200.911 237.67 214.598 226.121 226.121L235.805 235.805C248.663 222.988 258.859 207.755 265.809 190.984C272.759 174.212 276.324 156.232 276.301 138.077C276.278 119.922 272.666 101.951 265.673 85.1976C258.68 68.4437 248.445 53.2374 235.555 40.4531L226.121 50.4892Z" fill="url(#paint2_linear_49_38612)"/>
<path fill-rule="evenodd" clip-rule="evenodd" d="M138.104 14.0082C154.457 13.9741 170.655 17.1805 185.762 23.4421C200.869 29.7037 214.586 38.8964 226.12 50.4893L235.554 40.4532C222.751 27.6294 207.545 17.4557 190.806 10.5143C174.067 3.57291 156.124 0 138.003 0C119.882 0 101.939 3.57291 85.2004 10.5143C68.4616 17.4557 53.2557 27.6294 40.4526 40.4532L50.4887 50.4893C61.9785 38.9488 75.6308 29.7866 90.6646 23.5268C105.698 17.2671 121.819 14.0325 138.104 14.0082Z" fill="url(#paint3_linear_49_38612)"/>
<path fill-rule="evenodd" clip-rule="evenodd" d="M226.12 226.121C214.598 237.67 200.91 246.833 185.841 253.085C170.773 259.337 154.619 262.555 138.304 262.555C121.99 262.555 105.836 259.337 90.7674 253.085C75.6987 246.833 62.0112 237.67 50.4887 226.121L40.4526 235.555C53.2453 248.36 68.4364 258.519 85.1576 265.45C101.879 272.381 119.802 275.949 137.903 275.949C156.004 275.949 173.927 272.381 190.648 265.45C207.369 258.519 222.561 248.36 235.353 235.555L226.12 226.121Z" fill="url(#paint4_linear_49_38612)"/>
<path fill-rule="evenodd" clip-rule="evenodd" d="M135.796 11.1982C152.343 11.1957 168.72 14.5319 183.947 21.0073C199.174 27.4827 212.938 36.964 224.414 48.8837C203.864 29.2159 177.182 17.2019 148.834 14.8519C120.485 12.5018 92.1897 19.9582 68.681 35.9736C45.1722 51.9889 27.8763 75.5917 19.687 102.833C11.4978 130.074 12.9119 159.302 23.6928 185.625C15.1356 166.85 11.427 146.228 12.9069 125.648C14.3868 105.068 21.0078 85.1891 32.1632 67.8317C43.3187 50.4744 58.6518 36.1942 76.7576 26.2997C94.8634 16.4052 115.163 11.2128 135.796 11.1982Z" fill="#FDFDFF"/>
<path fill-rule="evenodd" clip-rule="evenodd" d="M138.104 14.0081C162.662 13.9981 186.672 21.272 207.095 34.9096C227.519 48.5471 243.439 67.9356 252.841 90.6224C262.244 113.309 264.706 138.275 259.918 162.362C255.129 186.448 243.304 208.574 225.939 225.939C208.574 243.304 186.449 255.129 162.362 259.918C138.275 264.706 113.309 262.243 90.6227 252.841C67.9359 243.438 48.5474 227.518 34.9098 207.095C21.2723 186.672 13.9984 162.662 14.0083 138.104C14.0216 105.196 27.1003 73.6393 50.3699 50.3697C73.6395 27.1 105.196 14.0214 138.104 14.0081Z" fill="url(#paint5_linear_49_38612)"/>
<path style="mix-blend-mode:screen" opacity="0.65" fill-rule="evenodd" clip-rule="evenodd" d="M138.104 133.437C194.958 133.437 243.483 129.323 261.397 123.401C257.791 93.2431 243.254 65.4532 220.538 45.2915C197.821 25.1297 168.502 13.9951 138.129 13.9951C107.756 13.9951 78.4365 25.1297 55.7203 45.2915C33.004 65.4532 18.4671 93.2431 14.8608 123.401C32.8756 129.172 81.2495 133.437 138.104 133.437Z" fill="url(#paint6_linear_49_38612)"/>
<path style="mix-blend-mode:screen" opacity="0.5" fill-rule="evenodd" clip-rule="evenodd" d="M239.669 71.5649C228.62 54.7206 213.554 40.8897 195.828 31.3182C178.102 21.7466 158.274 16.7351 138.129 16.7351C117.984 16.7351 98.1558 21.7466 80.4301 31.3182C62.7044 40.8897 47.6383 54.7206 36.589 71.5649C25.8003 88.0241 250.458 88.0241 239.669 71.5649Z" fill="url(#paint7_linear_49_38612)"/>
</g>
<defs>
<linearGradient id="paint0_linear_49_38612" x1="138.104" y1="275.95" x2="138.104" y2="0.309082" gradientUnits="userSpaceOnUse">
<stop stop-color="#293140"/>
<stop offset="1" stop-color="#576485"/>
</linearGradient>
<linearGradient id="paint1_linear_49_38612" x1="25.349" y1="235.554" x2="25.349" y2="40.6538" gradientUnits="userSpaceOnUse">
<stop stop-color="#293140"/>
<stop offset="0.06" stop-color="#2D3545"/>
<stop offset="0.14" stop-color="#394154"/>
<stop offset="0.22" stop-color="#4D566D"/>
<stop offset="0.31" stop-color="#697290"/>
<stop offset="0.41" stop-color="#8F98C0"/>
<stop offset="0.54" stop-color="#657299"/>
<stop offset="0.61" stop-color="#7A85A7"/>
<stop offset="0.95" stop-color="#EAEBF3"/>
</linearGradient>
<linearGradient id="paint2_linear_49_38612" x1="250.91" y1="235.554" x2="250.91" y2="40.6538" gradientUnits="userSpaceOnUse">
<stop stop-color="#293140"/>
<stop offset="0.06" stop-color="#2D3545"/>
<stop offset="0.14" stop-color="#394154"/>
<stop offset="0.22" stop-color="#4D566D"/>
<stop offset="0.31" stop-color="#697290"/>
<stop offset="0.41" stop-color="#8F98C0"/>
<stop offset="0.54" stop-color="#657299"/>
<stop offset="0.61" stop-color="#7A85A7"/>
<stop offset="0.95" stop-color="#EAEBF3"/>
</linearGradient>
<linearGradient id="paint3_linear_49_38612" x1="138.104" y1="50.3388" x2="138.104" y2="0.308942" gradientUnits="userSpaceOnUse">
<stop stop-color="#D4D6E7"/>
<stop offset="1" stop-color="#F6F6FA"/>
</linearGradient>
<linearGradient id="paint4_linear_49_38612" x1="138.104" y1="275.95" x2="138.104" y2="225.87" gradientUnits="userSpaceOnUse">
<stop stop-color="#576485"/>
<stop offset="0.03" stop-color="#505D7B"/>
<stop offset="0.12" stop-color="#424D65"/>
<stop offset="0.22" stop-color="#374054"/>
<stop offset="0.34" stop-color="#2F3749"/>
<stop offset="0.52" stop-color="#2A3242"/>
<stop offset="1" stop-color="#293140"/>
</linearGradient>
<linearGradient id="paint5_linear_49_38612" x1="138.104" y1="262.25" x2="138.104" y2="14.0081" gradientUnits="userSpaceOnUse">
<stop offset="0.06" stop-color="#5E6A81"/>
<stop offset="0.41" stop-color="#909ABA"/>
<stop offset="0.45" stop-color="#959EBE"/>
<stop offset="0.61" stop-color="#A9AFCD"/>
<stop offset="0.72" stop-color="#B0B5D2"/>
<stop offset="1" stop-color="#F5F6FA"/>
</linearGradient>
<linearGradient id="paint6_linear_49_38612" x1="138.104" y1="133.437" x2="138.104" y2="14.0081" gradientUnits="userSpaceOnUse">
<stop stop-color="#101214"/>
<stop offset="1" stop-color="#DDDEE8"/>
</linearGradient>
<linearGradient id="paint7_linear_49_38612" x1="138.104" y1="83.9093" x2="138.104" y2="16.7177" gradientUnits="userSpaceOnUse">
<stop stop-color="#0B0C0D"/>
<stop offset="1" stop-color="#DBDBEB"/>
</linearGradient>
<clipPath id="clip0_49_38612">
<rect width="276.301" height="276" fill="white"/>
</clipPath>
</defs>
</svg>
