<svg width="250" height="250" viewBox="0 0 250 250" fill="none" xmlns="http://www.w3.org/2000/svg">
<g clip-path="url(#clip0_49_38353)">
<path fill-rule="evenodd" clip-rule="evenodd" d="M12.425 125.023C12.4361 110.244 15.3646 95.6133 21.0425 81.9691C26.7205 68.3249 35.0361 55.9358 45.5126 45.5124L36.4101 36.4099C33.1818 39.8211 30.1431 43.4068 27.3076 47.1509C26.4429 48.1976 28.3544 50.6553 27.3076 51.7021C25.6691 53.9322 21.2999 54.8425 19.798 57.2091C18.2961 59.5758 16.6122 62.352 15.2468 64.9917C15.3948 67.6745 14.8733 70.352 13.7292 72.7831C12.5852 75.2142 10.8545 77.3226 8.69299 78.9186C6.00775 81.5128 7.32762 88.7037 4.36931 91.7986C0.208421 107.148 -1.02674 123.143 0.728309 138.95C2.59117 142.689 4.11438 146.589 5.27956 150.601C5.19348 152.138 4.58309 153.6 3.55008 154.742C8.93175 176.935 20.2974 197.226 36.4101 213.408L45.5126 204.806C35.0076 194.347 26.6758 181.913 20.9971 168.22C15.3184 154.527 12.4051 139.846 12.425 125.023Z" fill="url(#paint0_linear_49_38353)"/>
<path fill-rule="evenodd" clip-rule="evenodd" d="M124.977 12.4249C139.811 12.3864 154.504 15.2911 168.207 20.9707C181.91 26.6502 194.35 34.9918 204.806 45.5125L213.044 37.2747C212.361 36.2734 211.724 35.3177 211.133 34.3164C210.541 33.3151 205.58 33.2696 204.351 32.1773C203.122 31.085 205.079 28.9004 203.805 27.8991C199.917 24.7594 195.844 21.8565 191.608 19.2062C188.973 17.6634 185.879 17.0993 182.869 17.6133C177.499 18.205 174.04 9.87619 168.76 7.87364C146.285 -0.55174 121.861 -2.34139 98.3972 2.71771C74.9333 7.77681 53.4172 19.4716 36.4102 36.41L45.5127 45.5125C55.9276 35.0374 68.3088 26.7222 81.9454 21.0442C95.5821 15.3661 110.206 12.437 124.977 12.4249Z" fill="url(#paint1_linear_49_38353)"/>
<path fill-rule="evenodd" clip-rule="evenodd" d="M244.493 88.1577C242.239 80.8998 239.329 73.8619 235.8 67.1309C229.793 58.0284 219.643 47.515 212.816 37.1837L204.806 45.5125C215.281 55.9631 223.592 68.3774 229.262 82.0444C234.932 95.7114 237.851 110.363 237.851 125.159C237.851 139.956 234.932 154.607 229.262 168.274C223.592 181.941 215.281 194.356 204.806 204.806L213.59 213.59C227.766 199.449 238.333 182.107 244.402 163.026C244.327 154.803 246.051 146.663 249.454 139.177C251.273 122.01 249.585 104.653 244.493 88.1577Z" fill="url(#paint2_linear_49_38353)"/>
<path fill-rule="evenodd" clip-rule="evenodd" d="M124.977 237.575C95.1931 237.615 66.6114 225.829 45.5127 204.806L36.4102 213.408C52.7138 229.694 73.1943 241.166 95.5978 246.562C118.001 251.958 141.459 251.069 163.39 243.992C164.437 243.674 165.301 240.624 166.348 240.26C167.395 239.896 168.624 242.172 169.671 241.762C171.446 241.125 173.175 240.397 174.905 239.669C176.803 236.897 179.341 234.623 182.304 233.039C185.266 231.454 188.567 230.606 191.926 230.566C199.685 225.658 206.874 219.903 213.363 213.408L204.806 204.806C194.319 215.263 181.866 223.542 168.166 229.166C154.465 234.79 139.787 237.648 124.977 237.575Z" fill="url(#paint3_linear_49_38353)"/>
<path fill-rule="evenodd" clip-rule="evenodd" d="M124.977 237.575C147.251 237.584 169.027 230.987 187.55 218.618C206.074 206.249 220.513 188.664 229.041 168.088C237.569 147.511 239.802 124.868 235.459 103.022C231.116 81.1756 220.391 61.1084 204.641 45.3586C188.892 29.6088 168.824 18.8839 146.978 14.5408C125.132 10.1976 102.489 12.4312 81.9123 20.9592C61.3359 29.4871 43.751 43.9261 31.382 62.4497C19.0131 80.9733 12.4158 102.749 12.4248 125.023C12.4369 154.87 24.2989 183.491 45.404 204.596C66.509 225.701 95.1301 237.563 124.977 237.575Z" fill="url(#paint4_linear_49_38353)"/>
<path style="mix-blend-mode:screen" opacity="0.2" fill-rule="evenodd" clip-rule="evenodd" d="M124.977 120.745C176.543 120.745 220.554 117.013 236.801 111.642C233.531 84.2892 220.346 59.0844 199.743 40.7982C179.14 22.5119 152.548 12.4131 125 12.4131C97.4524 12.4131 70.8605 22.5119 50.2573 40.7982C29.6542 59.0844 16.4695 84.2892 13.1987 111.642C29.5377 116.876 73.4117 120.745 124.977 120.745Z" fill="url(#paint5_linear_49_38353)"/>
<path style="mix-blend-mode:screen" opacity="0.25" fill-rule="evenodd" clip-rule="evenodd" d="M217.095 64.6277C207.066 49.3602 193.399 36.8254 177.323 28.1513C161.247 19.4772 143.267 14.9358 125 14.9358C106.733 14.9358 88.7531 19.4772 72.6773 28.1513C56.6014 36.8254 42.9343 49.3602 32.9056 64.6277C23.1204 79.5558 226.88 79.5558 217.095 64.6277Z" fill="url(#paint6_linear_49_38353)"/>
<path fill-rule="evenodd" clip-rule="evenodd" d="M122.884 9.87618C137.891 9.87383 152.745 12.8997 166.556 18.7728C180.366 24.6458 192.85 33.2452 203.259 44.056C184.62 26.2178 160.42 15.3214 134.709 13.1899C108.998 11.0585 83.3342 17.8213 62.0122 32.3468C40.6903 46.8724 25.0033 68.2796 17.5759 92.9869C10.1484 117.694 11.431 144.203 21.209 168.078C13.0822 150.237 9.78825 130.574 11.6575 111.059C13.5267 91.5443 20.4933 72.8638 31.8589 56.8906V51.2015L35.0448 52.7944C39.2809 47.3831 44.0036 42.371 49.1537 37.8208L47.3787 29.0369L52.6581 34.5894C61.9716 27.0978 72.4186 21.1369 83.6066 16.9306V10.7864L88.1578 15.3377C99.3746 11.7052 111.094 9.86212 122.884 9.87618Z" fill="#89EFF4"/>
<path fill-rule="evenodd" clip-rule="evenodd" d="M127.071 238.758C112.171 238.765 97.4233 235.761 83.7132 229.927C70.0031 224.093 57.6133 215.548 47.2876 204.806C65.7306 222.631 89.751 233.56 115.306 235.752C140.862 237.943 166.392 231.265 187.602 216.841C208.811 202.417 224.404 181.127 231.756 156.554C239.109 131.981 237.773 105.625 227.972 81.9224C235.45 98.3506 238.807 116.355 237.752 134.374C236.697 152.393 231.262 169.883 221.919 185.327L223.011 189.15L220.554 187.511C217.149 192.824 213.313 197.847 209.084 202.53L211.497 210.404L206.172 205.534C195.872 216.072 183.567 224.441 169.982 230.147C156.396 235.853 141.806 238.781 127.071 238.758Z" fill="#71CCCC"/>
<g style="mix-blend-mode:screen" opacity="0.4">
<path fill-rule="evenodd" clip-rule="evenodd" d="M113.781 0.500653C108.133 4.98798 102.795 9.85385 97.8063 15.0646C88.2288 18.6316 79.1443 23.4032 70.7719 29.2645C59.278 33.7426 47.28 36.7995 35.0446 38.367C34.2254 39.1863 33.4517 40.0055 32.678 40.8702L35.6818 39.4593C45.8175 37.7598 55.8352 35.4188 65.6745 32.4504C67.4626 31.8634 69.4029 31.9443 71.136 32.678C77.0636 35.4662 82.6022 39.0158 87.6115 43.2369C90.8087 46.6751 94.2296 49.8983 97.8518 52.8855C98.6537 53.5362 99.2815 54.3759 99.6787 55.3292C100.076 56.2824 100.23 57.3194 100.127 58.347C99.8544 61.8515 99.4903 66.2662 99.2172 70.6354C98.8531 76.0058 98.6255 81.3308 98.2159 84.6987C97.6698 89.25 97.1691 89.8416 93.073 91.3435C78.9839 96.3626 65.3552 102.591 52.3393 109.958C34.6228 112.358 17.1225 116.147 0 121.291L0 122.611C16.3557 118.274 32.9305 114.81 49.6541 112.234C50.163 112.592 50.52 113.128 50.6554 113.736C51.0195 116.33 31.8132 157.746 22.1191 168.624C21.1633 169.716 19.7979 169.488 18.1595 168.624L5.0974 160.431L5.37047 161.387C11.6512 165.21 19.0242 170.49 20.7537 171.582C26.8523 179.961 33.9091 187.598 41.7804 194.338C45.6035 197.706 46.8323 198.89 42.9183 202.03L33.4517 210.131L34.3619 211.132C37.9119 208.402 41.2798 206.035 44.1926 204.169C49.3355 200.892 52.2028 200.437 61.3963 203.259C92.9405 212.742 123.897 224.079 154.105 237.211C162.067 236.299 170.077 235.889 178.09 235.982C178.528 235.55 179 235.155 179.501 234.799L154.742 234.435C120.335 220.751 84.7746 208.386 48.0612 197.342C39.9273 191.246 32.5344 184.22 26.0331 176.406C24.8953 175.041 22.3921 171.172 23.5755 169.397C28.8549 161.66 32.678 153.741 38.276 143.774C45.5125 130.939 47.6516 123.339 56.7541 109.776C70.7166 102.455 85.2901 96.3637 100.309 91.5711C127.726 96.3873 155.49 98.9597 183.324 99.2627C199.178 107.032 215.631 113.516 232.523 118.651C235.527 119.516 236.301 120.016 237.074 123.202C238.667 128.118 240.078 138.312 241.125 142.363C242.758 144.496 244.277 146.714 245.676 149.008C245.815 148.27 245.998 147.54 246.222 146.823C245.13 144.957 244.038 143.091 242.9 141.225C242.263 138.494 238.349 123.657 238.349 121.882C238.349 120.107 239.532 119.925 241.125 119.971C243.765 119.971 246.814 120.198 249.818 120.198C249.795 119.895 249.795 119.591 249.818 119.288C244.447 119.288 239.077 118.924 236.71 118.651C220.128 113.783 203.927 107.698 188.24 100.446C184.69 98.8531 183.688 97.9884 188.513 95.8948C202.335 89.9901 215.601 82.8618 228.154 74.595C230.355 71.7692 232.807 69.149 235.482 66.7668L234.844 65.8566C232.387 68.2232 229.883 70.8174 227.38 73.6392C214.091 82.2875 200.153 89.8956 185.691 96.3954C183.182 97.6617 180.399 98.2871 177.59 98.2159C152.967 97.5788 122.975 95.2121 105.225 90.3423C103.583 89.9103 102.158 88.8898 101.22 87.475C100.581 86.0432 100.255 84.4916 100.264 82.9237C99.9189 78.8805 99.9189 74.8152 100.264 70.7719C100.628 65.629 100.992 60.8502 101.857 55.7528C101.207 53.7486 100.824 51.6674 100.719 49.5631C99.9909 40.4606 98.8986 30.1293 98.8531 20.8902C98.8531 18.3415 98.8531 17.3858 100.401 15.3377C104.754 10.2638 109.654 5.68488 115.01 1.68398L117.058 0.318604L113.781 0.500653ZM94.0743 19.2973C86.7351 21.8059 79.7219 25.1826 73.1841 29.3556C72.7289 30.1748 72.5924 30.6754 72.7289 31.085C72.8655 31.4946 86.7468 40.9612 88.5218 42.3266C91.0563 46.1248 94.3586 49.3496 98.2159 51.7932C100.127 53.1131 99.9454 52.4304 99.8544 50.4278C99.7633 48.4253 98.8531 40.0965 98.398 32.4959C98.1249 28.3543 98.0339 24.2127 97.9883 21.664C97.9428 19.1153 97.6243 18.3415 94.0743 19.2973Z" fill="#6CA8A7"/>
</g>
<path style="mix-blend-mode:screen" fill-rule="evenodd" clip-rule="evenodd" d="M70.681 29.2645C79.0534 23.4032 88.1379 18.6316 97.7154 15.0646C102.734 9.85064 108.101 4.98471 113.781 0.50061C84.5707 2.99988 57.1756 15.7145 36.4101 36.41L34.6807 38.2304C46.9161 36.6629 58.9141 33.6061 70.408 29.128L70.681 29.2645Z" fill="url(#paint7_radial_49_38353)"/>
<path style="mix-blend-mode:screen" fill-rule="evenodd" clip-rule="evenodd" d="M94.0746 19.2973C86.7354 21.8059 79.7222 25.1826 73.1843 29.3555C72.7292 30.1748 72.5927 30.6754 72.7292 31.085C72.8658 31.4946 86.7471 40.9612 88.5221 42.3266C91.0566 46.1248 94.3589 49.3496 98.2162 51.7932C100.128 53.1131 99.9457 52.4304 99.8547 50.4278C99.7636 48.4253 98.8534 40.0965 98.3983 32.4959C98.1252 28.3543 98.0342 24.2126 97.9886 21.6639C97.9431 19.1152 97.6245 18.3415 94.0746 19.2973Z" fill="url(#paint8_radial_49_38353)"/>
<path style="mix-blend-mode:screen" fill-rule="evenodd" clip-rule="evenodd" d="M87.6116 43.2368C82.5433 39.0183 76.9429 35.4837 70.9541 32.7235C69.221 31.9897 67.2807 31.9089 65.4926 32.4959C55.6533 35.4642 45.6356 37.8053 35.4999 39.5048L32.496 40.9612C30.6755 42.9638 28.9005 45.0573 27.2166 47.1964C26.3518 48.2432 28.2634 50.7009 27.2166 51.7477C25.5781 53.9778 21.2089 54.888 19.707 57.2547C18.2051 59.6213 16.5212 62.3976 15.1558 65.0373C15.3038 67.7201 14.7823 70.3975 13.6382 72.8286C12.4942 75.2597 10.7635 77.3682 8.60198 78.9641C5.91675 81.5583 7.23661 88.7493 4.2783 91.8442C1.62232 101.45 0.0949292 111.332 -0.272949 121.291C16.9386 116.133 34.5309 112.344 52.3395 109.958C65.4284 102.579 79.1336 96.3504 93.3007 91.3435C97.3968 89.8416 97.8519 89.0679 98.4436 84.6987C98.8532 81.3308 99.0808 76.0058 99.4449 70.6353C99.7179 66.0841 100.082 61.8514 100.355 58.347C100.458 57.3194 100.304 56.2824 99.9064 55.3291C99.5092 54.3759 98.8814 53.5362 98.0795 52.8855C94.3791 49.9061 90.882 46.6827 87.6116 43.2368Z" fill="url(#paint9_radial_49_38353)"/>
<path style="mix-blend-mode:screen" opacity="0.45" fill-rule="evenodd" clip-rule="evenodd" d="M98.8532 20.7991C98.8532 29.9016 99.991 40.4605 100.719 49.472C100.824 51.5763 101.207 53.6575 101.857 55.6617C100.992 60.7591 100.628 65.5379 100.264 70.6808C99.9191 74.7241 99.9191 78.7894 100.264 82.8326C100.255 84.4004 100.581 85.9521 101.22 87.3839C102.158 88.7987 103.583 89.8191 105.225 90.2512C122.884 95.03 153.013 97.3966 177.499 98.0338C180.308 98.105 183.091 97.4796 185.6 96.2133C200.062 89.7135 214 82.1054 227.289 73.4571C229.793 70.6353 232.296 68.0411 234.753 65.6744C228.7 56.8905 219.143 46.9233 212.68 37.0926C211.997 36.0913 211.36 35.09 210.768 34.1343C210.177 33.1785 205.216 33.0875 203.987 31.9952C202.758 30.9029 204.715 28.7183 203.441 27.717C199.666 24.6515 195.715 21.8096 191.608 19.2062C188.973 17.6634 185.879 17.0993 182.869 17.6133C177.499 18.2049 174.04 9.83062 168.76 7.87358C154.757 2.64227 139.926 -0.0248312 124.977 -7.33495e-05C122.338 -7.33495e-05 119.698 -7.33558e-05 117.058 0.227489L115.01 1.59286C109.654 5.59377 104.754 10.1726 100.401 15.2466C98.6257 17.2947 98.8532 18.2504 98.8532 20.7991Z" fill="url(#paint10_radial_49_38353)"/>
<path style="mix-blend-mode:screen" fill-rule="evenodd" clip-rule="evenodd" d="M228.2 74.5039C215.647 82.7708 202.38 89.8991 188.558 95.8037C184.007 97.8063 184.735 98.671 188.285 100.355C203.972 107.607 220.173 113.692 236.756 118.56C239.123 118.833 244.493 119.106 249.864 119.197C249.382 108.637 247.578 98.1781 244.493 88.0666C242.247 80.8058 239.337 73.7672 235.8 67.0398L235.527 66.5847C232.853 68.9669 230.4 71.5871 228.2 74.4129V74.5039Z" fill="url(#paint11_radial_49_38353)"/>
<path style="mix-blend-mode:screen" fill-rule="evenodd" clip-rule="evenodd" d="M241.216 119.971C239.623 119.971 238.576 119.698 238.44 121.882C238.303 124.067 242.354 138.494 242.991 141.225C244.129 143.091 245.221 144.957 246.314 146.823C247.025 144.125 248.001 141.503 249.226 138.995C249.91 132.754 250.138 126.472 249.909 120.198C246.905 120.198 243.856 120.198 241.216 119.971Z" fill="url(#paint12_radial_49_38353)"/>
<path style="mix-blend-mode:screen" fill-rule="evenodd" clip-rule="evenodd" d="M237.166 123.202C236.165 120.107 235.391 119.607 232.615 118.651C215.722 113.516 199.27 107.032 183.416 99.2627C155.492 99.0046 127.637 96.4626 100.128 91.6621C85.1084 96.4547 70.5349 102.546 56.5723 109.867C47.4698 123.521 45.3307 131.03 38.0943 143.865C32.4962 153.832 28.6732 161.751 23.3937 169.488C22.2104 171.263 24.7136 175.132 25.8514 176.497C32.3527 184.311 39.7456 191.337 47.8794 197.433C84.6839 208.417 120.305 220.751 154.743 234.435L179.729 234.799C183.332 232.134 187.674 230.655 192.154 230.566C216.927 214.821 235.349 190.838 244.175 162.844C244.199 158.247 244.733 153.668 245.768 149.19C244.369 146.896 242.849 144.678 241.216 142.545C240.17 138.494 238.759 128.3 237.166 123.384V123.202Z" fill="url(#paint13_radial_49_38353)"/>
<path style="mix-blend-mode:screen" fill-rule="evenodd" clip-rule="evenodd" d="M22.1645 168.624C31.8587 157.746 51.065 116.33 50.7009 113.781C50.5655 113.173 50.2085 112.638 49.6996 112.279C32.9615 114.839 16.3715 118.288 -2.50004e-05 122.611C-0.122429 128.082 0.120846 133.556 0.728175 138.995C2.59104 142.735 4.11424 146.634 5.27942 150.646C5.18317 152.168 4.57345 153.612 3.54995 154.742C8.60739 175.462 18.9038 194.535 33.4516 210.131L42.9182 202.166C46.8323 198.798 45.6035 197.615 41.7804 194.475C33.9091 187.734 26.8523 180.097 20.7537 171.719C18.9787 170.626 11.6512 165.347 5.37045 161.524L5.09737 160.568L18.205 168.396C19.8434 169.397 21.2088 169.625 22.1645 168.396V168.624Z" fill="url(#paint14_radial_49_38353)"/>
<path style="mix-blend-mode:screen" fill-rule="evenodd" clip-rule="evenodd" d="M154.105 237.211C123.897 224.079 92.9404 212.742 61.3962 203.259C52.2937 200.437 49.3354 200.892 44.1925 204.169C41.2797 206.035 37.9118 208.402 34.3618 211.132L36.5919 213.408C52.8788 229.661 73.3279 241.113 95.6954 246.508C118.063 251.903 141.484 251.033 163.39 243.992C164.436 243.674 165.301 240.624 166.348 240.26C167.395 239.896 168.624 242.172 169.67 241.762C171.445 241.125 173.175 240.397 174.904 239.669C175.781 238.291 176.854 237.049 178.09 235.982C170.077 235.889 162.066 236.299 154.105 237.211Z" fill="url(#paint15_radial_49_38353)"/>
<g style="mix-blend-mode:screen" opacity="0.5">
<path fill-rule="evenodd" clip-rule="evenodd" d="M171.537 43.2369C168.997 45.3572 166.595 47.6375 164.346 50.0637C162.343 52.0208 159.112 53.5682 158.202 56.2079C157.064 59.5758 160.295 63.0803 165.438 63.5354C169.488 63.8324 173.56 63.479 177.499 62.4886C182.435 61.3272 186.765 58.3757 189.651 54.2054C190.586 52.25 190.792 50.0252 190.233 47.931C189.674 45.8369 188.387 44.011 186.601 42.7817C184.205 41.7406 181.607 41.2416 178.995 41.3203C176.383 41.399 173.821 42.0534 171.491 43.2369H171.537Z" fill="#BDC8C9"/>
</g>
<path fill-rule="evenodd" clip-rule="evenodd" d="M171.537 42.3265C168.999 44.4323 166.597 46.6973 164.346 49.1079C162.343 51.0649 159.112 52.6124 158.202 55.2521C157.291 57.8918 160.295 62.1245 165.438 62.5796C169.488 62.8568 173.557 62.5037 177.499 61.5328C182.43 60.3869 186.76 57.4514 189.651 53.2951C190.543 51.325 190.728 49.1069 190.172 47.0166C189.616 44.9264 188.355 43.0925 186.602 41.8259C184.201 40.7918 181.602 40.3005 178.99 40.3871C176.378 40.4736 173.818 41.1359 171.491 42.3265H171.537Z" fill="url(#paint16_radial_49_38353)"/>
<g style="mix-blend-mode:screen" opacity="0.5">
<path fill-rule="evenodd" clip-rule="evenodd" d="M159.658 75.7783C157.564 76.3435 155.68 77.5047 154.234 79.1206C152.788 80.7364 151.842 82.7375 151.511 84.8808C151.511 89.8871 159.203 90.1602 162.753 90.2057C163.59 90.2455 164.425 90.1124 165.208 89.8149C165.992 89.5173 166.705 89.0616 167.304 88.4762C169.716 85.9275 172.629 75.9603 168.169 74.8225C165.378 74.3126 162.5 74.5642 159.84 75.5507L159.658 75.7783Z" fill="#BDC8C9"/>
</g>
<path fill-rule="evenodd" clip-rule="evenodd" d="M159.658 74.8224C157.57 75.398 155.691 76.5623 154.247 78.1763C152.802 79.7904 151.853 81.7859 151.511 83.9249C151.511 88.9313 159.203 89.2044 162.753 89.2499C163.59 89.2896 164.425 89.1566 165.208 88.859C165.992 88.5615 166.705 88.1058 167.304 87.5204C169.716 84.9262 172.629 75.0045 168.169 73.8667C165.377 73.3787 162.505 73.6298 159.84 74.5949L159.658 74.8224Z" fill="url(#paint17_radial_49_38353)"/>
<g style="mix-blend-mode:screen" opacity="0.5">
<path fill-rule="evenodd" clip-rule="evenodd" d="M66.8125 178.409C64.4556 178.909 62.2729 180.024 60.4862 181.64C58.4837 183.597 55.935 189.833 57.3914 192.563C57.8265 193.354 58.4395 194.033 59.182 194.546C59.9244 195.06 60.776 195.394 61.6696 195.522C64.3977 195.669 67.0946 194.883 69.3157 193.291C71.061 191.539 72.5891 189.583 73.8669 187.466C74.9585 186.185 75.962 184.832 76.8707 183.415C77.1086 182.901 77.2277 182.339 77.219 181.772C77.2103 181.205 77.0742 180.648 76.8206 180.141C76.5671 179.634 76.2027 179.19 75.7544 178.843C75.3061 178.496 74.7854 178.254 74.231 178.136C71.7107 177.634 69.1082 177.728 66.6304 178.409H66.8125Z" fill="#BDC8C9"/>
</g>
<path fill-rule="evenodd" clip-rule="evenodd" d="M66.8125 177.772C64.4678 178.28 62.2909 179.377 60.4862 180.958C58.4837 182.96 55.935 189.195 57.3914 191.926C57.8265 192.717 58.4395 193.396 59.182 193.909C59.9244 194.423 60.776 194.756 61.6696 194.884C64.4053 195.038 67.1089 194.233 69.3157 192.609C71.0816 190.875 72.6119 188.916 73.8669 186.783C74.958 185.518 75.9616 184.18 76.8707 182.778C77.1099 182.276 77.2352 181.727 77.2376 181.17C77.2401 180.614 77.1196 180.064 76.8848 179.56C76.65 179.055 76.3067 178.609 75.8794 178.253C75.4521 177.896 74.9514 177.639 74.4131 177.499C71.8928 176.997 69.2903 177.091 66.8125 177.772Z" fill="url(#paint18_radial_49_38353)"/>
</g>
<defs>
<linearGradient id="paint0_linear_49_38353" x1="22.7108" y1="213.408" x2="22.7108" y2="36.592" gradientUnits="userSpaceOnUse">
<stop stop-color="#322F4A"/>
<stop offset="1" stop-color="#99AAC9"/>
</linearGradient>
<linearGradient id="paint1_linear_49_38353" x1="124.704" y1="45.4214" x2="124.704" y2="-1.57666e-05" gradientUnits="userSpaceOnUse">
<stop offset="0.27" stop-color="#99AAC9"/>
<stop offset="1" stop-color="#C5E9FA"/>
</linearGradient>
<linearGradient id="paint2_linear_49_38353" x1="227.289" y1="213.408" x2="227.289" y2="37.1837" gradientUnits="userSpaceOnUse">
<stop stop-color="#322F4A"/>
<stop offset="1" stop-color="#99AAC9"/>
</linearGradient>
<linearGradient id="paint3_linear_49_38353" x1="124.977" y1="250" x2="124.977" y2="204.624" gradientUnits="userSpaceOnUse">
<stop stop-color="#535A80"/>
<stop offset="1" stop-color="#322F4A"/>
</linearGradient>
<linearGradient id="paint4_linear_49_38353" x1="124.977" y1="12.4249" x2="124.977" y2="237.575" gradientUnits="userSpaceOnUse">
<stop stop-color="#798AA8"/>
<stop offset="1" stop-color="#434D63"/>
</linearGradient>
<linearGradient id="paint5_linear_49_38353" x1="124.977" y1="120.745" x2="124.977" y2="12.4249" gradientUnits="userSpaceOnUse">
<stop offset="0.03"/>
<stop offset="1" stop-color="#9D9D9C"/>
</linearGradient>
<linearGradient id="paint6_linear_49_38353" x1="124.977" y1="75.8238" x2="124.977" y2="14.9281" gradientUnits="userSpaceOnUse">
<stop/>
<stop offset="1" stop-color="#C6C6C6"/>
</linearGradient>
<radialGradient id="paint7_radial_49_38353" cx="0" cy="0" r="1" gradientUnits="userSpaceOnUse" gradientTransform="translate(74.2765 19.4338) scale(30.903 30.903)">
<stop/>
<stop offset="0.16" stop-color="#0B0E0F"/>
<stop offset="0.46" stop-color="#273135"/>
<stop offset="0.87" stop-color="#556B72"/>
<stop offset="1" stop-color="#657F87"/>
</radialGradient>
<radialGradient id="paint8_radial_49_38353" cx="0" cy="0" r="1" gradientUnits="userSpaceOnUse" gradientTransform="translate(82.924 3.14036) scale(111.642 111.642)">
<stop/>
<stop offset="0.16" stop-color="#0B0E0F"/>
<stop offset="0.46" stop-color="#273135"/>
<stop offset="0.87" stop-color="#556B72"/>
<stop offset="1" stop-color="#657F87"/>
</radialGradient>
<radialGradient id="paint9_radial_49_38353" cx="0" cy="0" r="1" gradientUnits="userSpaceOnUse" gradientTransform="translate(-10.3767 15.6563) scale(251.274 251.274)">
<stop/>
<stop offset="0.16" stop-color="#0B0E0F"/>
<stop offset="0.46" stop-color="#273135"/>
<stop offset="0.87" stop-color="#556B72"/>
<stop offset="1" stop-color="#657F87"/>
</radialGradient>
<radialGradient id="paint10_radial_49_38353" cx="0" cy="0" r="1" gradientUnits="userSpaceOnUse" gradientTransform="translate(156.836 -3.09492) scale(189.104)">
<stop/>
<stop offset="0.16" stop-color="#0B0E0F"/>
<stop offset="0.46" stop-color="#273135"/>
<stop offset="0.87" stop-color="#556B72"/>
<stop offset="1" stop-color="#657F87"/>
</radialGradient>
<radialGradient id="paint11_radial_49_38353" cx="0" cy="0" r="1" gradientUnits="userSpaceOnUse" gradientTransform="translate(205.034 56.2079) scale(154.333 154.333)">
<stop/>
<stop offset="0.16" stop-color="#0B0E0F"/>
<stop offset="0.46" stop-color="#273135"/>
<stop offset="0.87" stop-color="#556B72"/>
<stop offset="1" stop-color="#657F87"/>
</radialGradient>
<radialGradient id="paint12_radial_49_38353" cx="0" cy="0" r="1" gradientUnits="userSpaceOnUse" gradientTransform="translate(249.955 116.557) scale(49.9727 49.9727)">
<stop/>
<stop offset="0.16" stop-color="#0B0E0F"/>
<stop offset="0.46" stop-color="#273135"/>
<stop offset="0.87" stop-color="#556B72"/>
<stop offset="1" stop-color="#657F87"/>
</radialGradient>
<radialGradient id="paint13_radial_49_38353" cx="0" cy="0" r="1" gradientUnits="userSpaceOnUse" gradientTransform="translate(114.464 64.5822) scale(322.456 322.456)">
<stop/>
<stop offset="0.16" stop-color="#0B0E0F"/>
<stop offset="0.46" stop-color="#273135"/>
<stop offset="0.87" stop-color="#556B72"/>
<stop offset="1" stop-color="#657F87"/>
</radialGradient>
<radialGradient id="paint14_radial_49_38353" cx="0" cy="0" r="1" gradientUnits="userSpaceOnUse" gradientTransform="translate(-40.0055 125.705) scale(215.274 215.274)">
<stop/>
<stop offset="0.16" stop-color="#0B0E0F"/>
<stop offset="0.46" stop-color="#273135"/>
<stop offset="0.87" stop-color="#556B72"/>
<stop offset="1" stop-color="#657F87"/>
</radialGradient>
<radialGradient id="paint15_radial_49_38353" cx="0" cy="0" r="1" gradientUnits="userSpaceOnUse" gradientTransform="translate(97.0325 305.116) scale(209.858 209.858)">
<stop/>
<stop offset="0.16" stop-color="#0B0E0F"/>
<stop offset="0.46" stop-color="#273135"/>
<stop offset="0.87" stop-color="#556B72"/>
<stop offset="1" stop-color="#657F87"/>
</radialGradient>
<radialGradient id="paint16_radial_49_38353" cx="0" cy="0" r="1" gradientUnits="userSpaceOnUse" gradientTransform="translate(183.37 68.4962) scale(46.3317 46.3317)">
<stop stop-color="#99AAC9"/>
<stop offset="1" stop-color="#515D7D"/>
</radialGradient>
<radialGradient id="paint17_radial_49_38353" cx="0" cy="0" r="1" gradientUnits="userSpaceOnUse" gradientTransform="translate(170.035 97.4877) scale(44.1471 44.1471)">
<stop stop-color="#99AAC9"/>
<stop offset="1" stop-color="#515D7D"/>
</radialGradient>
<radialGradient id="paint18_radial_49_38353" cx="0" cy="0" r="1" gradientUnits="userSpaceOnUse" gradientTransform="translate(75.7329 195.977) scale(27.0344 27.0344)">
<stop stop-color="#7C8AA3"/>
<stop offset="1" stop-color="#515D7D"/>
</radialGradient>
<clipPath id="clip0_49_38353">
<rect width="250" height="250" fill="white"/>
</clipPath>
</defs>
</svg>
