<svg width="258" height="258" viewBox="0 0 258 258" fill="none" xmlns="http://www.w3.org/2000/svg">
<g clip-path="url(#clip0_49_38444)">
<path fill-rule="evenodd" clip-rule="evenodd" d="M128.797 0.288094C154.224 0.27884 179.084 7.81122 200.23 21.9324C221.377 36.0536 237.86 56.1292 247.595 79.6198C257.33 103.11 259.88 128.96 254.921 153.9C249.963 178.84 237.719 201.749 219.739 219.729C201.759 237.709 178.85 249.953 153.91 254.911C128.97 259.87 103.12 257.32 79.6295 247.585C56.139 237.85 36.0634 221.367 21.9422 200.22C7.82098 179.074 0.288605 154.215 0.29786 128.787C0.310263 94.7106 13.8525 62.0337 37.948 37.9382C62.0435 13.8427 94.7204 0.300497 128.797 0.288094Z" fill="url(#paint0_linear_49_38444)"/>
<path style="mix-blend-mode:multiply" opacity="0.6" fill-rule="evenodd" clip-rule="evenodd" d="M13.0729 128.787C13.0955 113.601 16.1119 98.5678 21.9493 84.5483C27.7868 70.5288 36.3308 57.7976 47.0927 47.083L37.7338 37.724C25.7751 49.6633 16.2878 63.8433 9.81471 79.4527C3.34162 95.0622 0.00976563 111.795 0.00976562 128.693C0.00976563 145.592 3.34162 162.324 9.81471 177.934C16.2878 193.543 25.7751 207.723 37.7338 219.662L47.0927 210.865C36.282 200.109 27.7094 187.318 21.8703 173.23C16.0311 159.142 13.0411 144.037 13.0729 128.787Z" fill="url(#paint1_linear_49_38444)"/>
<path style="mix-blend-mode:multiply" opacity="0.6" fill-rule="evenodd" clip-rule="evenodd" d="M210.875 47.083C221.645 57.8281 230.19 70.5921 236.02 84.6442C241.85 98.6963 244.851 113.76 244.851 128.974C244.851 144.188 241.85 159.252 236.02 173.304C230.19 187.356 221.645 200.12 210.875 210.865L219.906 219.896C231.896 207.944 241.405 193.739 247.886 178.099C254.366 162.458 257.692 145.691 257.67 128.762C257.648 111.832 254.28 95.0732 247.759 79.4497C241.238 63.8262 231.693 49.6458 219.672 37.724L210.875 47.083Z" fill="url(#paint2_linear_49_38444)"/>
<path style="mix-blend-mode:screen" opacity="0.5" fill-rule="evenodd" clip-rule="evenodd" d="M128.797 13.0631C144.047 13.0313 159.152 16.0214 173.24 21.8605C187.328 27.6997 200.119 36.2722 210.875 47.083L219.672 37.724C207.733 25.7653 193.553 16.278 177.944 9.80494C162.334 3.33186 145.602 0 128.703 0C111.805 0 95.0721 3.33186 79.4626 9.80494C63.8532 16.278 49.6732 25.7653 37.7339 37.724L47.0929 47.083C57.8075 36.321 70.5387 27.777 84.5582 21.9396C98.5777 16.1021 113.61 13.0858 128.797 13.0631Z" fill="url(#paint3_linear_49_38444)"/>
<g style="mix-blend-mode:multiply" opacity="0.6">
<path fill-rule="evenodd" clip-rule="evenodd" d="M210.875 210.865C200.13 221.635 187.366 230.18 173.314 236.01C159.262 241.84 144.197 244.841 128.984 244.841C113.77 244.841 98.7062 241.84 84.6541 236.01C70.602 230.18 57.8379 221.635 47.0929 210.865L37.7339 219.662C49.6635 231.604 63.8297 241.078 79.4228 247.541C95.0158 254.005 111.73 257.332 128.61 257.332C145.489 257.332 162.203 254.005 177.796 247.541C193.389 241.078 207.556 231.604 219.485 219.662L210.875 210.865Z" fill="#965B3B"/>
</g>
<path style="mix-blend-mode:screen" fill-rule="evenodd" clip-rule="evenodd" d="M126.644 10.4426C142.074 10.4402 157.347 13.5514 171.546 19.5899C185.746 25.6284 198.581 34.4701 209.284 45.5856C190.12 27.2447 165.238 16.0413 138.802 13.8498C112.367 11.6583 85.98 18.6116 64.0573 33.5464C42.1346 48.4813 26.0056 70.4917 18.3688 95.8951C10.7321 121.299 12.0508 148.554 22.1043 173.102C14.1245 155.593 10.6661 136.363 12.0461 117.171C13.4262 97.9797 19.6005 79.4415 30.0033 63.2552C40.4061 47.069 54.7047 33.7522 71.589 24.5252C88.4732 15.2983 107.403 10.4562 126.644 10.4426Z" fill="url(#paint4_radial_49_38444)"/>
<path fill-rule="evenodd" clip-rule="evenodd" d="M128.797 13.0631C151.698 13.0539 174.087 19.837 193.133 32.5545C212.178 45.2719 227.024 63.3524 235.792 84.5086C244.561 105.665 246.857 128.946 242.392 151.408C237.926 173.87 226.899 194.502 210.705 210.696C194.512 226.889 173.879 237.916 151.418 242.382C128.956 246.848 105.674 244.551 84.5182 235.783C63.362 227.015 45.2816 212.169 32.5641 193.123C19.8466 174.078 13.0635 151.688 13.0728 128.787C13.0852 98.0988 25.2814 68.6712 46.9812 46.9715C68.6809 25.2718 98.1085 13.0755 128.797 13.0631Z" fill="url(#paint5_linear_49_38444)"/>
<g style="mix-blend-mode:multiply" opacity="0.3">
<path fill-rule="evenodd" clip-rule="evenodd" d="M158.043 253.963C172.082 247.693 186.12 241.516 200.159 235.62C201.937 234.403 203.715 233.186 205.4 231.876C189.162 238.802 173.018 245.914 156.92 253.214L152.99 255.039C154.627 254.712 156.265 254.384 157.903 253.963H158.043ZM120.607 257.052L121.216 256.771C130.575 252.559 139.934 249.003 149.293 245.681C156.359 243.2 163.331 240.72 170.397 237.913C178.399 234.684 185.699 229.957 193.795 226.775C203.154 223.079 212.84 219.803 222.48 216.621C223.837 215.17 225.147 213.673 226.411 212.175C220.561 214.094 214.852 216.2 209.19 218.586C203.528 220.973 198.334 223.266 192.952 226.073L182.002 231.268C177.978 233.139 173.954 234.918 169.882 236.556C164.174 238.895 158.371 240.861 152.522 242.732C146.672 244.604 141.806 245.961 136.471 247.412C129.546 249.51 122.749 252.01 116.115 254.899L113.354 256.163C115.741 256.443 118.034 256.677 120.514 256.818L120.607 257.052ZM235.91 199.822L232.494 200.617C229.359 201.272 226.27 201.974 223.135 202.723C220 203.472 215.975 204.548 212.466 205.577C200.252 209.134 188.226 213.298 176.34 217.791C166.045 221.628 155.891 225.652 145.736 229.817C139.279 232.484 132.821 235.292 126.41 238.24C117.425 242.358 108.488 246.648 99.5966 251.109L95.7594 253.027L100.72 254.244C121.029 243.622 141.431 232.952 162.676 224.202C168.993 221.628 175.357 219.195 181.815 216.902C187.524 214.889 193.327 213.064 199.176 211.38C210.594 208.104 222.199 205.484 233.757 202.91C234.506 201.881 235.208 200.851 235.863 199.822H235.91ZM86.1665 249.986L99.1286 243.294C111.607 237.055 124.304 231.081 137.22 225.372C149.48 219.943 161.927 214.843 174.656 210.163C181.956 207.449 189.256 204.829 196.649 202.395C203.247 200.243 209.892 198.277 216.677 196.733C223.463 195.189 229.874 194.253 236.472 193.177L240.87 192.428L241.993 190.463L236.238 191.773C229.64 193.177 223.088 194.534 216.537 196.031C206.897 198.184 197.445 200.711 188.086 203.986C178.727 207.262 169.368 210.538 160.009 214.094C146.625 219.241 133.336 224.623 120.233 230.425C110.874 234.59 101.515 239.082 92.437 243.668L82.7504 248.629L86.494 249.986H86.1665ZM72.128 243.996L77.5094 241.141C89.988 234.746 102.467 228.507 114.945 222.423C127.252 216.668 139.653 211.099 152.381 205.905C157.763 203.706 163.238 201.506 168.713 199.541C173.158 197.903 177.65 196.359 182.19 195.095C190.103 192.971 198.134 191.315 206.242 190.135C214.525 188.872 222.807 187.889 231.043 186.625C235.723 185.923 240.402 185.175 245.082 184.239C245.456 183.443 245.831 182.695 246.158 181.899C234.553 184.707 222.761 186.579 210.968 188.825C201.091 190.393 191.299 192.455 181.628 195.002C172.237 197.833 163.018 201.208 154.019 205.109C136.892 212.129 119.578 218.773 102.545 226.073C91.0799 231.034 79.7556 236.275 68.7588 242.031L72.128 243.809V243.996ZM248.966 174.506L242.929 175.816C227.955 178.857 212.606 179.84 197.632 182.835C190.706 184.192 183.874 185.83 177.089 187.514C170.304 189.199 164.22 191.118 157.809 193.083L147.608 196.218C137.594 199.307 127.58 202.208 117.519 205.156C108.581 207.73 99.5966 210.304 90.7056 213.111C81.8145 215.919 71.9876 219.288 62.6286 222.845C57.9491 224.763 52.8953 226.775 48.0754 228.834C49.0113 229.63 49.994 230.379 50.9299 231.081L53.7376 229.817C62.0671 225.98 70.4434 222.423 78.96 219.054C84.4818 216.855 90.144 214.889 95.8062 213.064C102.451 210.912 109.096 208.853 115.741 206.841C126.41 203.612 137.126 200.523 147.795 197.482C159.354 193.879 171.193 190.837 182.891 188.123C194.59 185.409 206.757 183.443 218.783 181.431C226.645 180.121 234.506 178.857 242.181 177.22L248.311 175.956L248.872 174.506H248.966ZM36.1895 217.884L44.5658 215.545C54.4395 212.363 64.2197 208.806 74.0934 205.624L81.019 203.472C94.1216 199.588 107.365 196.312 120.654 193.177C131.183 190.697 141.712 188.497 152.147 185.736C170.584 181.057 189.209 177.594 207.927 174.365C196.509 175.769 185.138 177.126 173.813 179.045C166.373 180.261 158.979 181.712 151.632 183.724C120.935 191.305 89.7697 196.92 59.8209 207.496C52.4741 210.07 45.0805 212.55 37.5934 214.656L33.7094 215.732C34.5049 216.621 35.3472 217.463 36.1895 218.352V217.884ZM236.565 170.013C241.172 169.488 245.749 168.723 250.276 167.72L251.399 167.439C251.412 167.268 251.412 167.096 251.399 166.925L249.902 167.299C245.222 168.329 240.917 169.218 236.378 170.013H236.565ZM219.953 38.192C217.037 40.2959 214.24 42.5612 211.577 44.9773C205.262 50.8072 199.454 57.1629 194.216 63.976C190.584 68.534 187.314 73.3686 184.436 78.4356C181.534 83.5831 175.966 94.3927 178.352 100.429C179.721 102.963 181.608 105.18 183.889 106.938C186.171 108.695 188.796 109.953 191.595 110.63C214.665 118.632 236.659 123.452 256.734 116.386C256.734 115.17 256.734 113.906 256.313 112.689C252.453 113.994 248.47 114.903 244.427 115.404C227.861 117.275 210.875 112.596 195.199 107.308C192.858 106.652 190.7 105.466 188.891 103.844C187.082 102.221 185.669 100.204 184.763 97.9491C182.611 92.5209 185.231 85.642 187.618 80.6818C195.367 64.4831 207.145 50.5455 221.825 40.2042C221.216 39.5023 220.561 38.8939 219.953 38.2388V38.192ZM210.875 29.9561L208.067 31.6407C200.774 36.256 194.119 41.8097 188.273 48.1593C184.389 52.1837 180.645 56.3952 177.042 60.6068C172.363 65.9882 167.683 71.4632 163.518 77.0786C161.413 79.7927 159.354 82.5536 157.388 85.3613C154.006 89.9898 150.882 94.8014 148.029 99.7741C145.761 103.514 143.969 107.523 142.695 111.707C142.262 113.226 142.103 114.811 142.227 116.386C142.302 117.803 142.669 119.189 143.303 120.457C144.015 121.777 144.986 122.938 146.157 123.873C147.33 124.869 148.702 125.603 150.182 126.026C151.552 126.425 152.942 126.753 154.347 127.009C156.218 127.336 158.09 127.664 159.962 127.898C164.641 128.6 169.321 129.114 174 129.582L185.699 130.752C192.952 131.454 200.159 132.437 207.365 133.232C213.729 134.043 220.136 134.48 226.551 134.543C233.473 134.54 240.37 133.707 247.094 132.063C250.652 131.168 254.152 130.058 257.576 128.74C257.576 128.272 257.576 127.804 257.576 127.336C251.719 129.42 245.691 130.986 239.56 132.016C232.199 133.247 224.703 133.451 217.286 132.624C212.606 132.156 207.927 131.361 203.013 130.612C198.1 129.863 192.157 128.974 186.682 128.459C183.453 128.132 180.271 127.757 177.042 127.336C172.69 126.775 168.291 126.12 163.94 125.371C162.115 125.043 160.336 124.716 158.511 124.295C156.686 123.873 155.797 123.686 154.44 123.312C153.12 122.918 151.891 122.263 150.829 121.386C149.766 120.509 148.89 119.428 148.253 118.206C147.615 116.984 147.23 115.647 147.119 114.273C147.009 112.899 147.175 111.518 147.608 110.209C148.718 106.29 150.19 102.484 152.007 98.8382C154.338 94.0956 157.061 89.5562 160.149 85.2677C164.361 79.4183 168.666 73.6157 173.158 68.0004C176.949 63.3209 180.832 58.6414 184.95 53.9619C191.838 46.4392 199.526 39.6919 207.88 33.8401L212.559 30.8452L210.875 29.9561ZM196.836 19.7548C195.994 20.2696 195.199 20.8311 194.403 21.3927C189.972 24.623 185.824 28.2235 182.002 32.1555C177.884 36.3202 174 40.7657 170.257 45.258C163.986 52.8856 158.09 60.7939 152.007 68.6555C144.332 78.4356 136.658 88.2625 128.609 97.9491C120.561 107.636 100.532 132.531 100.532 144.744C100.45 146.262 100.756 147.776 101.422 149.143C103.715 153.354 110.032 153.822 114.15 153.495C129.124 152.98 142.227 150.359 157.154 149.423C167.964 148.722 185.559 150.125 196.977 150.687C205.493 151.061 214.01 151.482 222.527 151.155C233.983 150.748 245.332 148.796 256.266 145.352C256.266 144.791 256.266 144.229 256.266 143.668C245.17 147.178 233.644 149.146 222.012 149.517C213.007 149.673 204.002 149.22 195.058 148.16C189.022 147.552 182.938 146.85 176.855 146.429C171.045 146.01 165.214 145.979 159.4 146.335C150.509 146.897 141.665 148.16 132.821 149.189C129.686 149.564 126.55 149.891 123.462 150.079C120.922 150.242 118.374 150.242 115.834 150.079C114.057 150.182 112.279 149.906 110.616 149.268C108.954 148.631 107.447 147.647 106.195 146.382C105.499 145.161 105.088 143.799 104.991 142.398C104.894 140.997 105.113 139.591 105.633 138.286C106.244 136.356 107.011 134.478 107.926 132.671C109.143 130.238 110.547 127.991 111.997 125.558C113.448 123.125 114.852 121.159 116.349 119.054C119.204 114.982 122.245 111.052 125.334 107.168C127.674 104.266 130.013 101.412 132.447 98.5106C137.126 92.9888 141.244 87.2798 145.502 81.5709C150.182 75.16 154.861 68.7491 159.775 62.385C165.577 54.7106 171.427 47.083 177.65 39.7362C180.505 36.4138 183.406 33.1382 186.448 30.0029C189.11 27.1848 191.938 24.5284 194.918 22.0478C195.713 21.3459 196.556 20.6907 197.398 20.0824L196.836 19.7548ZM184.997 13.2035C183.219 14.467 181.488 15.8241 179.803 17.1811C173.276 22.5157 167.145 28.3179 161.459 34.542C154.44 42.0292 147.749 49.9375 141.057 57.9395C122.573 79.7927 103.621 101.272 83.8267 122.048C80.785 125.23 77.603 128.319 74.4677 131.407L64.1729 141.094C59.9613 145.072 55.7966 149.143 51.8658 153.401C48.2399 157.257 44.9375 161.404 41.9921 165.802C41.6645 166.363 41.2902 166.925 40.9626 167.533C38.4321 171.102 37.4068 175.522 38.1081 179.84C38.7074 181.093 39.5978 182.184 40.705 183.023C41.8121 183.861 43.1038 184.423 44.4722 184.66C48.3021 185.565 52.257 185.818 56.1709 185.409C71.1453 184.379 85.9793 181.665 100.907 179.84C120.374 177.454 139.793 174.786 159.26 172.774C173.299 171.277 187.337 170.762 201.656 169.264C219.394 167.549 236.9 163.957 253.879 158.548L254.3 156.63C248.264 158.361 242.087 159.812 235.91 161.309C218.351 164.731 200.622 167.215 182.798 168.75C169.134 170.06 155.423 171.089 141.712 172.213C129.265 173.195 116.817 174.225 104.276 175.769C89.9568 177.5 75.7312 180.121 61.3184 181.104C57.5787 181.471 53.8087 181.392 50.0876 180.87C48.7269 180.767 47.4017 180.386 46.1943 179.75C44.9869 179.114 43.923 178.237 43.0684 177.173C40.6818 173.382 43.5831 168.095 45.6421 164.819C48.4332 160.58 51.5631 156.573 55.0011 152.839C58.8382 148.722 62.8158 144.838 66.887 141L76.7139 131.641C79.7556 128.74 82.7504 125.839 85.6517 122.797C104.65 102.816 123.088 82.1792 140.729 61.1683L153.551 45.726C157.388 41.0465 161.272 36.367 165.343 32.0619C169.895 27.1139 174.723 22.4269 179.803 18.0234C181.581 16.526 183.359 15.0753 185.138 13.6715L184.482 13.3439L184.997 13.2035ZM1.7017 147.739L5.77285 145.867C14.3831 141.843 22.9934 137.912 31.4164 133.654C38.9694 129.909 46.3116 125.754 53.41 121.206C60.1606 116.898 66.5602 112.063 72.5491 106.747C79.2659 100.717 85.5226 94.1948 91.2671 87.233C95.1511 82.5536 99.035 78.1548 103.2 73.8497C107.365 69.5446 111.67 65.801 116.115 61.917C124.866 54.617 132.868 46.5683 140.823 38.5196C150.981 27.6846 161.879 17.5682 173.439 8.24329L171.988 7.72854C169.087 9.88111 166.232 12.0805 163.472 14.3734C157.154 19.5209 151.165 25.0426 145.362 30.658C140.402 35.3375 135.535 40.017 130.575 44.6965C125.615 49.376 119.999 54.4766 114.477 59.1561C109.992 62.9004 105.712 66.8837 101.656 71.0888C97.4908 75.4407 93.5132 79.9798 89.6293 84.5657C83.8266 91.6222 77.5742 98.2965 70.9113 104.547C64.9042 110.083 58.5081 115.181 51.7722 119.802C36.9882 129.408 21.4479 137.796 5.3049 144.884L1.51452 146.616C1.51452 146.99 1.51452 147.364 1.51452 147.739H1.7017ZM0.297852 130.846C3.99465 129.021 7.64465 127.055 11.2011 124.95C21.5002 118.754 31.3514 111.843 40.6818 104.266C47.935 98.5106 54.7203 92.5209 62.0203 86.4843C69.3203 80.4478 75.4504 74.9728 82.3293 69.3574C92.5774 61.1215 102.591 52.558 112.606 44.0414C121.169 36.7414 129.779 29.4882 138.53 22.3753C146.111 16.2452 153.832 10.2087 161.927 4.54649L160.524 4.21893C152.615 9.64713 144.941 15.4029 137.36 21.2055C128.329 28.0843 119.391 35.2439 110.547 42.1696C100.486 50.2183 90.5184 58.3138 80.5511 66.4093C71.8004 73.4754 63.6581 81.0561 55.5158 88.7773C47.3735 96.4984 40.7286 102.816 32.7735 109.32C25.5263 115.326 17.6867 120.578 9.37606 124.997C6.42798 126.494 3.43311 127.898 0.391441 129.161C0.391441 129.723 0.391441 130.284 0.391441 130.846H0.297852ZM1.88888 108.431L3.71388 107.495C15.3828 101.393 26.4585 94.218 36.7979 86.0632C40.9626 82.7407 45.1741 79.4183 49.6197 76.4234C54.0652 73.4286 57.2472 70.9952 60.944 68.1875L73.5318 58.4542C79.2523 54.0241 85.2036 49.9004 91.3607 46.1003C102.152 39.5666 112.458 32.2633 122.199 24.2471C131.324 16.9939 139.934 9.64713 149.059 2.30034L149.527 1.97277H148.404C143.724 5.62278 138.717 9.36637 133.897 13.11C129.077 16.8535 123.088 21.6266 117.613 25.7914C108.768 32.483 99.5498 38.66 90.144 44.5093C78.4488 52.1262 67.1996 60.4069 56.4517 69.3106C45.3059 78.5961 33.6851 87.2961 21.6363 95.3754C15.4942 99.3141 9.08317 102.817 2.45042 105.857C2.26456 106.707 2.12398 107.566 2.02926 108.431H1.88888ZM7.31708 86.8119L13.4472 83.2555C20.7472 78.9504 27.9536 74.5048 35.3004 70.1529C45.8449 63.9136 56.4673 57.7991 67.1677 51.8093C77.3158 46.1916 87.0997 39.9398 96.4613 33.0914C106.288 25.9318 115.881 18.2574 125.568 10.817C129.966 7.44778 134.459 4.07854 138.998 0.849697H137.079C133.008 3.89136 128.937 6.97983 124.913 10.2087C115.554 17.5087 105.774 24.6215 95.8062 31.3132C85.8389 38.0048 75.9184 44.0414 65.5299 49.7503C55.1414 55.4593 44.0043 61.1215 33.6626 67.7196C26.6434 72.1651 19.8581 77.0786 12.9325 81.4773L8.25298 84.5657L7.45747 86.8119H7.31708ZM15.9741 67.2516C24.4596 63.1649 32.8671 58.8286 41.1966 54.2427C54.8582 46.9225 68.0914 38.8294 80.8318 30.0029C94.1216 20.6439 106.709 10.5362 119.531 0.615723L117.285 0.802902L110.5 6.2779C92.5762 20.5834 73.5141 33.401 53.5036 44.6029C41.9921 51.1074 30.1062 57.1439 18.4543 62.9465C17.612 64.3504 16.7696 65.801 15.9741 67.2516ZM29.0767 47.785L30.7613 47.083C46.0632 38.7068 61.1312 30.0497 75.5908 20.5503C83.7331 15.1845 91.7194 9.55354 99.5498 3.65739C97.3972 4.12534 95.2915 4.68688 93.1857 5.29521C90.5652 7.16701 87.9915 8.99201 85.3709 10.7702C74.6081 18.2106 63.5645 25.1362 52.3338 31.7811C46.2036 35.3843 39.9799 38.8939 33.7562 42.4036C32.1184 44.135 30.5741 45.96 29.0767 47.8318V47.785ZM229.312 48.6741C226.548 50.4831 223.962 52.5514 221.591 54.851C216.793 59.8682 212.927 65.6993 210.173 72.0715C207.509 77.2256 206.22 82.9794 206.429 88.7773C206.469 89.2545 206.563 89.7255 206.71 90.1811C207.441 92.1809 208.722 93.9331 210.407 95.235C212.592 96.9124 215.044 98.2096 217.66 99.0722C224.342 101.163 231.384 101.848 238.343 101.084C242.26 100.711 246.131 99.9589 249.902 98.8382C251.165 98.4638 252.335 98.0427 253.505 97.5747C253.505 97.2472 253.505 96.9196 253.505 96.6388C251.978 97.2619 250.416 97.7931 248.825 98.2299C245.311 99.2118 241.704 99.8235 238.063 100.055C231.525 100.611 224.946 99.7323 218.783 97.4811C216.559 96.8602 214.506 95.7411 212.779 94.2088C211.052 92.6764 209.697 90.771 208.816 88.6369C207.901 83.0527 208.872 77.3227 211.577 72.3523C213.995 66.0999 217.513 60.3311 221.965 55.3189C224.282 52.982 226.838 50.8958 229.593 49.0952L229.265 48.6741H229.312ZM236.191 58.033C234.543 59.0458 232.978 60.188 231.511 61.4491C230.559 62.3361 229.725 63.3427 229.031 64.4439C228.337 65.5433 227.742 66.7021 227.253 67.9068C226.683 69.1732 226.228 70.4889 225.896 71.8375C225.602 73.0801 225.445 74.3512 225.428 75.6279C225.382 76.8979 225.476 78.169 225.709 79.4183C225.929 80.6943 226.39 81.917 227.066 83.0215C227.712 84.0896 228.553 85.0263 229.546 85.7824C230.442 86.4727 231.481 86.9525 232.588 87.1863C234.309 87.4432 236.06 87.4432 237.782 87.1863C239.759 87.1153 241.722 86.817 243.631 86.2971C245.619 85.6391 247.558 84.8417 249.434 83.9106C249.2 83.2087 248.919 82.5536 248.685 81.8984C246.352 83.1428 243.927 84.2066 241.432 85.0805C238.435 86.1509 235.222 86.4722 232.073 86.0164C231.154 85.7728 230.292 85.3497 229.537 84.7714C228.782 84.1932 228.149 83.4712 227.674 82.6472C226.653 80.7568 226.198 78.6123 226.364 76.4702C226.455 73.3066 227.365 70.2208 229.006 67.5141C230.646 64.8075 232.961 62.5726 235.723 61.0279L237.454 60.0452L236.238 58.1734L236.191 58.033Z" fill="#B7805C"/>
</g>
<path style="mix-blend-mode:multiply" fill-rule="evenodd" clip-rule="evenodd" d="M61.6458 180.869C76.0586 179.887 90.2842 177.266 104.603 175.535C117.004 173.991 129.452 172.961 142.039 171.978C155.75 170.855 169.461 169.826 183.125 168.516C200.886 166.974 218.553 164.491 236.05 161.075C242.227 159.812 248.404 158.361 254.441 156.396C255.252 152.746 255.907 149.049 256.406 145.305C245.468 148.717 234.119 150.638 222.667 151.014C214.15 151.342 205.634 151.014 197.117 150.546C185.699 149.985 168.104 148.581 157.294 149.283C142.554 150.219 129.218 152.839 114.29 153.354C110.172 153.354 103.855 153.354 101.562 149.002C100.896 147.635 100.59 146.121 100.673 144.603C101.047 132.203 120.935 107.542 128.75 97.8086C136.564 88.0752 144.239 78.2951 152.147 68.515C158.23 60.747 164.127 52.8387 170.397 45.1175C174.141 40.4381 178.025 36.1797 182.143 32.015C185.964 28.083 190.113 24.4825 194.543 21.2522C195.339 20.6906 196.134 20.1291 196.977 19.6143C193.373 17.3682 189.63 15.2624 185.839 13.3906C184.014 14.7945 182.236 16.2451 180.458 17.7425C175.378 22.146 170.55 26.833 165.998 31.781C161.927 36.4605 158.043 40.8124 154.206 45.4451L141.244 61.1214C123.415 82.1323 105.165 102.769 86.1663 122.75C83.265 125.792 80.2701 128.693 77.2285 131.594L67.4015 140.953C63.3304 144.791 59.3528 148.675 55.5156 152.793C52.0777 156.527 48.9478 160.533 46.1567 164.772C44.0977 168.048 41.1964 173.336 43.583 177.126C44.4376 178.19 45.5015 179.067 46.7089 179.703C47.9163 180.339 49.2415 180.72 50.6022 180.823C54.3233 181.345 58.0933 181.424 61.833 181.057L61.6458 180.869Z" fill="url(#paint6_radial_49_38444)"/>
<path style="mix-blend-mode:multiply" fill-rule="evenodd" clip-rule="evenodd" d="M147.327 110.209C146.894 111.517 146.728 112.899 146.838 114.273C146.949 115.646 147.334 116.984 147.972 118.206C148.609 119.428 149.485 120.509 150.548 121.386C151.61 122.263 152.839 122.918 154.159 123.312C155.501 123.686 156.858 124.014 158.23 124.295C160.055 124.716 161.834 125.043 163.659 125.371C168.011 126.12 172.409 126.775 176.761 127.336C179.99 127.757 183.172 128.132 186.401 128.459C191.876 128.974 197.304 129.77 202.732 130.612C208.161 131.454 212.091 132.156 217.005 132.624C224.422 133.451 231.918 133.247 239.279 132.016C245.424 130.98 251.467 129.414 257.342 127.336C257.342 123.639 257.342 119.989 256.734 116.386C236.659 123.499 214.618 118.632 191.595 110.63C188.796 109.953 186.171 108.695 183.889 106.938C181.608 105.18 179.721 102.963 178.352 100.429C175.966 94.3926 181.534 83.583 184.436 78.4356C187.314 73.3685 190.584 68.534 194.216 63.9759C199.454 57.1629 205.262 50.8071 211.577 44.9772C214.24 42.5612 217.036 40.2959 219.953 38.192C217.457 35.7274 214.883 33.3409 212.232 31.0323L207.552 34.0272C199.199 39.879 191.51 46.6263 184.623 54.149C180.505 58.8285 176.621 63.2272 172.83 68.1875C168.151 73.8029 164.033 79.6054 159.821 85.4548C156.734 89.7434 154.01 94.2827 151.679 99.0253C149.863 102.671 148.39 106.478 147.28 110.396L147.327 110.209Z" fill="url(#paint7_radial_49_38444)"/>
<path style="mix-blend-mode:multiply" fill-rule="evenodd" clip-rule="evenodd" d="M70.4902 104.687C77.1531 98.4368 83.4054 91.7624 89.2081 84.706C93.0921 80.0265 97.0696 75.581 101.234 71.2291C105.291 67.024 109.571 63.0407 114.056 59.2964C119.578 54.6169 124.913 49.9374 130.154 44.8368C135.395 39.7361 139.981 35.4778 144.941 30.7983C150.79 25.1829 156.78 19.6611 163.097 14.5137C165.858 12.2207 168.713 9.8342 171.614 7.86882C168.291 6.65215 164.875 5.62267 161.413 4.68677C153.457 10.3489 145.736 16.3855 138.015 22.5156C129.779 29.4881 121.169 36.7413 112.606 44.0413C102.591 52.5579 92.5773 61.0746 82.3761 69.3573C75.4972 74.9727 68.8055 80.7284 62.0671 86.4842C55.3286 92.24 48.0286 98.5105 40.7286 104.266C31.3982 111.843 21.547 118.754 11.2479 124.95C7.69144 127.071 4.04144 129.036 0.297852 130.846C0.395294 136.122 0.801545 141.387 1.51452 146.616L5.3049 144.884C21.3469 137.828 36.7927 129.487 51.4914 119.943C58.179 115.316 64.5281 110.218 70.4902 104.687Z" fill="url(#paint8_radial_49_38444)"/>
<path style="mix-blend-mode:multiply" fill-rule="evenodd" clip-rule="evenodd" d="M115.928 206.934C109.283 208.946 102.638 211.005 95.9935 213.158C90.3313 214.983 84.6691 216.948 79.1473 219.148C70.6307 222.517 62.2544 226.073 53.9249 229.911L51.1172 231.174C56.5568 235.318 62.3149 239.026 68.3377 242.264C79.3813 236.462 90.7057 231.221 102.17 226.261C119.204 218.961 136.518 212.222 153.645 205.296C162.644 201.395 171.863 198.02 181.254 195.189C190.925 192.642 200.717 190.58 210.594 189.012C222.34 186.953 233.992 184.894 245.784 182.086C246.72 180.074 247.609 178.015 248.404 175.956L242.508 177.22C234.693 178.857 226.832 180.121 219.111 181.431C207.084 183.396 195.105 185.502 183.219 188.123C171.333 190.743 159.822 193.738 148.123 197.482C137.454 200.757 126.738 203.846 116.068 206.841L115.928 206.934Z" fill="url(#paint9_radial_49_38444)"/>
<path style="mix-blend-mode:multiply" fill-rule="evenodd" clip-rule="evenodd" d="M227.44 82.6471C227.915 83.4711 228.548 84.1931 229.303 84.7714C230.058 85.3496 230.92 85.7727 231.839 86.0163C234.988 86.4721 238.201 86.1508 241.198 85.0804C243.654 84.2029 246.033 83.1229 248.311 81.8516C245.312 74.2481 241.599 66.9465 237.22 60.0452L235.676 61.1214C232.914 62.6662 230.599 64.901 228.959 67.6077C227.318 70.3143 226.408 73.4001 226.317 76.5638C226.151 78.7058 226.606 80.8503 227.627 82.7407L227.44 82.6471Z" fill="url(#paint10_radial_49_38444)"/>
<path style="mix-blend-mode:screen" opacity="0.5" fill-rule="evenodd" clip-rule="evenodd" d="M128.796 124.435C181.815 124.435 227.066 120.598 243.771 115.076C240.408 86.9524 226.852 61.0374 205.669 42.2359C184.485 23.4344 157.144 13.051 128.82 13.051C100.496 13.051 73.1546 23.4344 51.971 42.2359C30.7873 61.0374 17.2311 86.9524 13.8682 115.076C30.6675 120.457 75.7778 124.435 128.796 124.435Z" fill="url(#paint11_linear_49_38444)"/>
<path style="mix-blend-mode:screen" opacity="0.3" fill-rule="evenodd" clip-rule="evenodd" d="M223.509 66.7368C213.206 51.029 199.156 38.1312 182.626 29.2054C166.096 20.2796 147.606 15.6062 128.82 15.6062C110.034 15.6062 91.5436 20.2796 75.0138 29.2054C58.484 38.1312 44.4343 51.029 34.1305 66.7368C24.0696 82.0855 233.57 82.0855 223.509 66.7368Z" fill="url(#paint12_linear_49_38444)"/>
</g>
<defs>
<linearGradient id="paint0_linear_49_38444" x1="128.797" y1="257.332" x2="128.797" y2="0.288086" gradientUnits="userSpaceOnUse">
<stop stop-color="#80350E"/>
<stop offset="1" stop-color="#DE7724"/>
</linearGradient>
<linearGradient id="paint1_linear_49_38444" x1="23.6485" y1="219.662" x2="23.6485" y2="37.9112" gradientUnits="userSpaceOnUse">
<stop stop-color="#965B3B"/>
<stop offset="1" stop-color="white"/>
</linearGradient>
<linearGradient id="paint2_linear_49_38444" x1="233.992" y1="219.662" x2="233.992" y2="37.9112" gradientUnits="userSpaceOnUse">
<stop stop-color="#965B3B"/>
<stop offset="1" stop-color="white"/>
</linearGradient>
<linearGradient id="paint3_linear_49_38444" x1="128.797" y1="46.9426" x2="128.797" y2="0.288099" gradientUnits="userSpaceOnUse">
<stop offset="0.25"/>
<stop offset="1" stop-color="#CC9750"/>
</linearGradient>
<radialGradient id="paint4_radial_49_38444" cx="0" cy="0" r="1" gradientUnits="userSpaceOnUse" gradientTransform="translate(6.10049 2.95546) scale(271.129 271.13)">
<stop stop-color="#EFC79C"/>
<stop offset="1"/>
</radialGradient>
<linearGradient id="paint5_linear_49_38444" x1="128.796" y1="244.557" x2="128.796" y2="13.0631" gradientUnits="userSpaceOnUse">
<stop stop-color="#752E08"/>
<stop offset="1" stop-color="#DE7724"/>
</linearGradient>
<radialGradient id="paint6_radial_49_38444" cx="0" cy="0" r="1" gradientUnits="userSpaceOnUse" gradientTransform="translate(206.102 272.634) scale(263.97 263.97)">
<stop stop-color="#CFA04D"/>
<stop offset="1" stop-color="white"/>
</radialGradient>
<radialGradient id="paint7_radial_49_38444" cx="0" cy="0" r="1" gradientUnits="userSpaceOnUse" gradientTransform="translate(278.587 -81.2286) scale(269.304 269.305)">
<stop stop-color="#CFA04D"/>
<stop offset="1" stop-color="white"/>
</radialGradient>
<radialGradient id="paint8_radial_49_38444" cx="0" cy="0" r="1" gradientUnits="userSpaceOnUse" gradientTransform="translate(27.7196 -22.4075) scale(201.545 201.546)">
<stop stop-color="#CFA04D"/>
<stop offset="1" stop-color="white"/>
</radialGradient>
<radialGradient id="paint9_radial_49_38444" cx="0" cy="0" r="1" gradientUnits="userSpaceOnUse" gradientTransform="translate(274.376 419.664) scale(339.871 339.871)">
<stop stop-color="#CFA04D"/>
<stop offset="1" stop-color="white"/>
</radialGradient>
<radialGradient id="paint10_radial_49_38444" cx="0" cy="0" r="1" gradientUnits="userSpaceOnUse" gradientTransform="translate(237.314 73.1477) scale(12.1667)">
<stop stop-color="#CFA04D"/>
<stop offset="1" stop-color="white"/>
</radialGradient>
<linearGradient id="paint11_linear_49_38444" x1="128.796" y1="124.435" x2="128.796" y2="13.0631" gradientUnits="userSpaceOnUse">
<stop/>
<stop offset="1" stop-color="#D4A15D"/>
</linearGradient>
<linearGradient id="paint12_linear_49_38444" x1="128.797" y1="78.2483" x2="128.797" y2="15.59" gradientUnits="userSpaceOnUse">
<stop/>
<stop offset="1" stop-color="#FFFD9E"/>
</linearGradient>
<clipPath id="clip0_49_38444">
<rect width="257.66" height="257.379" fill="white" transform="translate(0.00976562)"/>
</clipPath>
</defs>
</svg>
