<svg width="206" height="206" viewBox="0 0 206 206" fill="none" xmlns="http://www.w3.org/2000/svg">
<path fill-rule="evenodd" clip-rule="evenodd" d="M102.981 6.82671e-06C123.36 -0.00741023 143.282 6.02918 160.23 17.3462C177.177 28.6632 190.387 44.7521 198.188 63.5779C205.99 82.4036 208.034 103.12 204.06 123.108C200.086 143.095 190.274 161.454 175.864 175.864C161.454 190.274 143.095 200.086 123.108 204.06C103.12 208.034 82.4036 205.99 63.5779 198.188C44.7521 190.387 28.6632 177.177 17.3462 160.23C6.02918 143.282 -0.00741023 123.36 6.82671e-06 102.981C0.00994651 75.672 10.8629 49.4841 30.1735 30.1735C49.4841 10.8629 75.672 0.00994651 102.981 6.82671e-06Z" fill="url(#paint0_linear_93_10345)"/>
<path style="mix-blend-mode:multiply" opacity="0.6" fill-rule="evenodd" clip-rule="evenodd" d="M10.2381 102.981C10.2562 90.8106 12.6736 78.763 17.3518 67.5276C22.03 56.2921 28.8774 46.0891 37.5022 37.5022L30.0018 30.0017C20.4178 39.5701 12.8146 50.9342 7.6269 63.4439C2.43925 75.9536 -0.230957 89.3634 -0.230957 102.906C-0.230957 116.449 2.43925 129.859 7.6269 142.368C12.8146 154.878 20.4178 166.242 30.0018 175.811L37.5022 168.76C28.8383 160.14 21.9681 149.889 17.2885 138.599C12.6089 127.308 10.2126 115.203 10.2381 102.981Z" fill="url(#paint1_linear_93_10345)"/>
<path style="mix-blend-mode:multiply" opacity="0.6" fill-rule="evenodd" clip-rule="evenodd" d="M168.76 37.5022C177.392 46.1135 184.24 56.3428 188.912 67.6044C193.584 78.866 195.989 90.9387 195.989 103.131C195.989 115.324 193.584 127.396 188.912 138.658C184.24 149.919 177.392 160.149 168.76 168.76L175.998 175.998C185.607 166.419 193.227 155.035 198.421 142.501C203.615 129.966 206.28 116.529 206.263 102.961C206.245 89.393 203.546 75.9625 198.32 63.4415C193.094 50.9205 185.444 39.556 175.811 30.0017L168.76 37.5022Z" fill="url(#paint2_linear_93_10345)"/>
<path style="mix-blend-mode:screen" opacity="0.5" fill-rule="evenodd" clip-rule="evenodd" d="M102.981 10.2381C115.203 10.2126 127.309 12.6089 138.599 17.2885C149.889 21.9681 160.14 28.8383 168.76 37.5022L175.811 30.0018C166.242 20.4178 154.878 12.8146 142.369 7.6269C129.859 2.43925 116.449 -0.230957 102.906 -0.230957C89.3637 -0.230957 75.9539 2.43925 63.4441 7.6269C50.9344 12.8146 39.5703 20.4178 30.002 30.0018L37.5024 37.5022C46.0893 28.8774 56.2923 22.03 67.5278 17.3518C78.7633 12.6736 90.8108 10.2562 102.981 10.2381Z" fill="url(#paint3_linear_93_10345)"/>
<g style="mix-blend-mode:multiply" opacity="0.6">
<path fill-rule="evenodd" clip-rule="evenodd" d="M168.76 168.76C160.149 177.392 149.92 184.24 138.658 188.912C127.396 193.584 115.324 195.989 103.131 195.989C90.939 195.989 78.8663 193.584 67.6047 188.912C56.3431 184.24 46.1137 177.392 37.5024 168.76L30.002 175.811C39.5625 185.381 50.9156 192.973 63.4122 198.153C75.9088 203.333 89.3038 205.999 102.831 205.999C116.359 205.999 129.754 203.333 142.251 198.153C154.747 192.973 166.1 185.381 175.661 175.811L168.76 168.76Z" fill="#965B3B"/>
</g>
<path style="mix-blend-mode:screen" fill-rule="evenodd" clip-rule="evenodd" d="M101.256 8.13794C113.622 8.136 125.862 10.6294 137.242 15.4687C148.621 20.3081 158.908 27.394 167.485 36.3022C152.126 21.6034 132.186 12.6248 111 10.8685C89.8137 9.11217 68.667 14.6847 51.0978 26.6538C33.5285 38.6228 20.6024 56.2624 14.4822 76.6212C8.36195 96.9799 9.41879 118.823 17.4759 138.496C11.0807 124.464 8.30908 109.052 9.41507 93.6721C10.5211 78.2918 15.4693 63.4349 23.8063 50.4629C32.1433 37.491 43.6025 26.8187 57.1338 19.424C70.6652 12.0293 85.8359 8.1488 101.256 8.13794Z" fill="url(#paint4_radial_93_10345)"/>
<path fill-rule="evenodd" clip-rule="evenodd" d="M102.981 10.238C121.335 10.2306 139.278 15.6668 154.542 25.8588C169.805 36.0508 181.703 50.5408 188.73 67.4957C195.757 84.4507 197.597 103.109 194.019 121.11C190.44 139.111 181.603 155.647 168.625 168.624C155.647 181.602 139.112 190.44 121.11 194.018C103.109 197.597 84.451 195.757 67.496 188.73C50.541 181.703 36.051 169.805 25.859 154.541C15.667 139.278 10.2309 121.335 10.2383 102.981C10.2482 78.3872 20.0225 54.8034 37.4131 37.4129C54.8037 20.0223 78.3875 10.248 102.981 10.238Z" fill="url(#paint5_linear_93_10345)"/>
<g style="mix-blend-mode:multiply" opacity="0.3">
<path fill-rule="evenodd" clip-rule="evenodd" d="M126.42 203.3C137.671 198.274 148.922 193.324 160.172 188.599C161.597 187.624 163.022 186.649 164.372 185.599C151.359 191.149 138.421 196.849 125.52 202.7L122.37 204.162C123.683 203.9 124.995 203.637 126.308 203.3H126.42ZM96.4184 205.775L96.9059 205.55C104.406 202.175 111.907 199.325 119.407 196.662C125.07 194.674 130.658 192.687 136.321 190.436C142.734 187.849 148.584 184.061 155.072 181.511C162.572 178.548 170.335 175.923 178.061 173.373C179.148 172.21 180.198 171.01 181.211 169.81C176.523 171.348 171.948 173.035 167.41 174.948C162.872 176.861 158.71 178.698 154.397 180.948L145.621 185.111C142.396 186.611 139.171 188.036 135.908 189.349C131.333 191.224 126.683 192.799 121.995 194.299C117.307 195.799 113.407 196.887 109.132 198.049C103.582 199.731 98.1347 201.734 92.8181 204.05L90.6055 205.062C92.5181 205.287 94.3557 205.475 96.3434 205.587L96.4184 205.775ZM188.824 159.91L186.086 160.547C183.574 161.072 181.098 161.635 178.586 162.235C176.073 162.835 172.848 163.697 170.035 164.522C160.247 167.373 150.609 170.71 141.084 174.311C132.833 177.386 124.695 180.611 116.557 183.949C111.382 186.086 106.206 188.336 101.069 190.699C93.8682 193.999 86.7053 197.437 79.5798 201.012L76.5046 202.55L80.4799 203.525C96.7559 195.012 113.107 186.461 130.133 179.448C135.196 177.386 140.296 175.436 145.471 173.598C150.047 171.985 154.697 170.523 159.385 169.173C168.535 166.548 177.836 164.447 187.099 162.385C187.699 161.56 188.261 160.735 188.786 159.91H188.824ZM68.8167 200.112L79.2048 194.749C89.2054 189.749 99.381 184.961 109.732 180.386C119.557 176.036 129.533 171.948 139.733 168.198C145.584 166.023 151.434 163.922 157.36 161.972C162.647 160.247 167.973 158.672 173.411 157.434C178.848 156.197 183.986 155.447 189.274 154.584L192.799 153.984L193.699 152.409L189.086 153.459C183.799 154.584 178.548 155.672 173.298 156.872C165.573 158.597 157.997 160.622 150.497 163.247C142.996 165.872 135.496 168.498 127.995 171.348C117.27 175.473 106.619 179.786 96.1183 184.436C88.6179 187.774 81.1174 191.374 73.842 195.049L66.079 199.025L69.0792 200.112H68.8167ZM57.566 195.312L61.8788 193.024C71.8794 187.899 81.88 182.899 91.8806 178.023C101.744 173.41 111.682 168.948 121.882 164.785C126.195 163.022 130.583 161.26 134.971 159.685C138.533 158.372 142.134 157.134 145.771 156.122C152.113 154.42 158.55 153.092 165.048 152.147C171.685 151.134 178.323 150.347 184.924 149.334C188.674 148.771 192.424 148.171 196.174 147.421C196.474 146.784 196.774 146.184 197.037 145.546C187.736 147.796 178.286 149.296 168.835 151.097C160.92 152.354 153.072 154.006 145.321 156.047C137.795 158.316 130.407 161.021 123.195 164.147C109.469 169.773 95.5933 175.098 81.9425 180.948C72.7544 184.924 63.6789 189.124 54.8658 193.737L57.566 195.162V195.312ZM199.287 139.621L194.449 140.671C182.449 143.109 170.148 143.896 158.147 146.296C152.597 147.384 147.121 148.696 141.684 150.047C136.246 151.397 131.37 152.934 126.233 154.509L118.057 157.022C110.032 159.497 102.006 161.822 93.9432 164.185C86.7803 166.248 79.5798 168.31 72.4544 170.56C65.329 172.81 57.4535 175.511 49.953 178.361C46.2028 179.898 42.1526 181.511 38.2898 183.161C39.0399 183.799 39.8274 184.399 40.5775 184.961L42.8276 183.949C49.503 180.873 56.2159 178.023 63.0413 175.323C67.4666 173.56 72.0044 171.985 76.5421 170.523C81.8675 168.798 87.1928 167.148 92.5181 165.535C101.069 162.947 109.657 160.472 118.207 158.035C127.47 155.147 136.958 152.709 146.334 150.534C155.709 148.359 165.46 146.784 175.098 145.171C181.399 144.121 187.699 143.109 193.849 141.796L198.762 140.783L199.212 139.621H199.287ZM28.7642 174.386L35.4772 172.51C43.3901 169.96 51.2281 167.11 59.1411 164.56L64.6914 162.835C75.1921 159.722 85.8052 157.097 96.4559 154.584C104.894 152.597 113.332 150.834 121.695 148.621C136.471 144.871 151.397 142.096 166.398 139.508C157.247 140.633 148.134 141.721 139.058 143.259C133.096 144.234 127.17 145.396 121.282 147.009C96.6809 153.084 71.7044 157.584 47.7029 166.06C41.815 168.123 35.8897 170.11 29.8893 171.798L26.7766 172.66C27.4142 173.373 28.0892 174.048 28.7642 174.761V174.386ZM189.349 136.021C193.041 135.6 196.709 134.987 200.337 134.183L201.237 133.958C201.247 133.821 201.247 133.683 201.237 133.546L200.037 133.846C196.287 134.671 192.837 135.383 189.199 136.021H189.349ZM176.036 30.3768C173.698 32.0629 171.457 33.8783 169.323 35.8146C164.262 40.4868 159.608 45.5804 155.409 51.0405C152.499 54.6934 149.879 58.5679 147.571 62.6287C145.246 66.754 140.784 75.417 142.696 80.2548C143.793 82.2853 145.305 84.0624 147.134 85.4709C148.962 86.8793 151.066 87.8876 153.309 88.4303C171.798 94.8432 189.424 98.7059 205.512 93.0431C205.512 92.068 205.512 91.0555 205.175 90.0804C202.081 91.1255 198.89 91.8543 195.649 92.2555C182.374 93.7556 168.76 90.0054 156.197 85.7676C154.322 85.2416 152.592 84.2917 151.142 82.9912C149.692 81.6908 148.56 80.0745 147.834 78.2672C146.109 73.9169 148.209 68.4041 150.122 64.4288C156.332 51.4469 165.771 40.2771 177.536 31.9894C177.048 31.4268 176.523 30.9393 176.036 30.4143V30.3768ZM168.76 23.7764L166.51 25.1265C160.665 28.8252 155.332 33.2761 150.647 38.3648C147.534 41.59 144.534 44.9652 141.646 48.3404C137.896 52.6531 134.146 57.0409 130.808 61.5412C129.12 63.7163 127.47 65.9289 125.895 68.1791C123.184 71.8885 120.681 75.7445 118.395 79.7298C116.577 82.7271 115.141 85.9397 114.119 89.2929C113.772 90.5107 113.645 91.7806 113.744 93.0431C113.805 94.1783 114.099 95.2889 114.607 96.3058C115.177 97.363 115.956 98.2941 116.895 99.0434C117.835 99.8415 118.934 100.43 120.12 100.769C121.218 101.088 122.332 101.351 123.457 101.556C124.958 101.819 126.458 102.081 127.958 102.269C131.708 102.831 135.458 103.244 139.208 103.619L148.584 104.556C154.397 105.119 160.172 105.906 165.948 106.544C171.048 107.193 176.182 107.544 181.324 107.594C186.871 107.592 192.398 106.924 197.787 105.606C200.638 104.889 203.444 104 206.188 102.944C206.188 102.569 206.188 102.194 206.188 101.819C201.494 103.489 196.662 104.743 191.749 105.569C185.85 106.555 179.842 106.719 173.898 106.056C170.148 105.681 166.398 105.044 162.46 104.444C158.522 103.844 153.759 103.131 149.372 102.719C146.784 102.456 144.234 102.156 141.646 101.819C138.158 101.369 134.633 100.844 131.145 100.244C129.683 99.981 128.258 99.7185 126.795 99.381C125.333 99.0434 124.62 98.8934 123.532 98.5934C122.474 98.2779 121.49 97.7532 120.638 97.0503C119.786 96.3473 119.084 95.4806 118.574 94.5013C118.063 93.522 117.754 92.4502 117.665 91.3494C117.577 90.2486 117.71 89.1412 118.057 88.0928C118.946 84.9521 120.127 81.9012 121.582 78.9797C123.45 75.1789 125.633 71.541 128.108 68.1041C131.483 63.4163 134.933 58.766 138.533 54.2657C141.571 50.5155 144.684 46.7653 147.984 43.015C153.504 36.9862 159.665 31.5788 166.36 26.8891L170.11 24.4889L168.76 23.7764ZM157.51 15.6009C156.835 16.0134 156.197 16.4634 155.559 16.9135C152.009 19.5023 148.684 22.3878 145.621 25.539C142.321 28.8767 139.208 32.4394 136.208 36.0396C131.183 42.1525 126.458 48.4904 121.582 54.7908C115.432 62.6287 109.282 70.5042 102.831 78.2672C96.3809 86.0302 80.3299 105.981 80.3299 115.769C80.2637 116.986 80.509 118.199 81.0424 119.295C82.88 122.67 87.9428 123.045 91.243 122.782C103.244 122.37 113.744 120.27 125.708 119.52C134.371 118.957 148.472 120.082 157.622 120.532C164.447 120.832 171.273 121.17 178.098 120.907C187.28 120.581 196.375 119.017 205.137 116.257C205.137 115.807 205.137 115.357 205.137 114.907C196.245 117.72 187.008 119.298 177.686 119.595C170.469 119.72 163.252 119.357 156.084 118.507C151.247 118.02 146.371 117.457 141.496 117.12C136.84 116.784 132.167 116.759 127.508 117.045C120.382 117.495 113.294 118.507 106.206 119.332C103.694 119.632 101.181 119.895 98.706 120.045C96.6705 120.176 94.6286 120.176 92.5931 120.045C91.1689 120.127 89.7434 119.906 88.4114 119.395C87.0793 118.884 85.8713 118.096 84.8676 117.082C84.3105 116.104 83.9808 115.013 83.9029 113.889C83.825 112.766 84.0009 111.64 84.4176 110.594C84.9074 109.047 85.522 107.542 86.2552 106.094C87.2303 104.144 88.3554 102.344 89.5179 100.394C90.6805 98.4434 91.8056 96.8683 93.0056 95.1807C95.2933 91.918 97.7309 88.7678 100.206 85.6551C102.081 83.33 103.956 81.0424 105.906 78.7172C109.657 74.2919 112.957 69.7167 116.37 65.1414C120.12 60.0036 123.87 54.8658 127.808 49.7655C132.458 43.6151 137.146 37.5022 142.134 31.6144C144.421 28.9517 146.746 26.3265 149.184 23.8139C151.318 21.5554 153.584 19.4265 155.972 17.4385C156.61 16.876 157.285 16.3509 157.96 15.8634L157.51 15.6009ZM148.021 10.3506C146.596 11.3631 145.209 12.4507 143.859 13.5383C138.628 17.8135 133.714 22.4635 129.158 27.4516C123.532 33.452 118.17 39.7898 112.807 46.2027C97.9934 63.7163 82.805 80.9298 66.9416 97.5809C64.5039 100.131 61.9538 102.606 59.4411 105.081L51.1906 112.844C47.8154 116.032 44.4777 119.295 41.3275 122.707C38.4216 125.797 35.775 129.121 33.4145 132.645C33.152 133.096 32.852 133.546 32.5895 134.033C30.5615 136.893 29.7398 140.436 30.3018 143.896C30.7821 144.9 31.4957 145.775 32.383 146.447C33.2703 147.119 34.3055 147.569 35.4021 147.759C38.4715 148.484 41.641 148.687 44.7777 148.359C56.7784 147.534 68.6667 145.359 80.6299 143.896C96.2308 141.984 111.794 139.846 127.395 138.233C138.646 137.033 149.897 136.621 161.372 135.421C175.588 134.046 189.617 131.167 203.225 126.833L203.562 125.295C198.725 126.683 193.774 127.845 188.824 129.045C174.752 131.788 160.543 133.778 146.259 135.008C135.308 136.058 124.32 136.883 113.332 137.783C103.356 138.571 93.3807 139.396 83.3301 140.633C71.8544 142.021 60.4537 144.121 48.903 144.909C45.9059 145.203 42.8846 145.14 39.9024 144.721C38.8119 144.639 37.7499 144.333 36.7823 143.824C35.8147 143.314 34.962 142.611 34.2771 141.759C32.3645 138.721 34.6896 134.483 36.3397 131.858C38.5766 128.461 41.0849 125.25 43.8402 122.257C46.9153 118.957 50.103 115.844 53.3657 112.769L61.2412 105.269C63.6789 102.944 66.079 100.619 68.4042 98.1809C83.6301 82.1674 98.406 65.6289 112.544 48.7904L122.82 36.4146C125.895 32.6644 129.008 28.9142 132.271 25.464C135.918 21.4985 139.787 17.7423 143.859 14.2133C145.284 13.0132 146.709 11.8507 148.134 10.7256L147.609 10.4631L148.021 10.3506ZM1.12507 118.17L4.38777 116.67C11.2882 113.444 18.1886 110.294 24.939 106.881C30.9921 103.88 36.8763 100.55 42.5651 96.9058C47.9751 93.4531 53.1039 89.5783 57.9035 85.3176C63.2864 80.4858 68.3007 75.2584 72.9044 69.6792C76.0171 65.9289 79.1298 62.4037 82.4675 58.9535C85.8052 55.5033 89.2554 52.5031 92.8181 49.3904C99.8311 43.5401 106.244 37.0897 112.619 30.6393C120.76 21.9559 129.494 13.8484 138.758 6.37532L137.596 5.9628C135.271 7.6879 132.983 9.45051 130.77 11.2881C125.708 15.4134 120.907 19.8386 116.257 24.3389C112.282 28.0891 108.382 31.8394 104.406 35.5896C100.431 39.3398 95.9308 43.4276 91.5056 47.1778C87.911 50.1785 84.4808 53.3708 81.2299 56.7409C77.8922 60.2286 74.7045 63.8663 71.5918 67.5415C66.9414 73.1967 61.9307 78.5456 56.5909 83.555C51.7767 87.9914 46.6508 92.0771 41.2525 95.7807C29.4043 103.479 16.95 110.201 4.01274 115.882L0.975059 117.27C0.975059 117.57 0.975059 117.87 0.975059 118.17H1.12507ZM0 104.631C2.96268 103.169 5.88786 101.594 8.73803 99.906C16.992 94.9408 24.8869 89.4018 32.3645 83.33C38.1773 78.7172 43.6151 73.9169 49.4655 69.0791C55.3159 64.2413 60.2287 59.8536 65.7415 55.3533C73.9545 48.7529 81.98 41.89 90.0055 35.0646C96.8684 29.2142 103.769 23.4014 110.782 17.701C116.857 12.7882 123.045 7.95042 129.533 3.41264L128.408 3.15013C122.07 7.50039 115.92 12.1132 109.844 16.7635C102.606 22.2763 95.4433 28.0141 88.3554 33.5645C80.2924 40.0149 72.3044 46.5028 64.3164 52.9907C57.3035 58.6535 50.7781 64.7289 44.2527 70.9167C37.7273 77.1046 32.402 82.1674 26.0266 87.3802C20.2185 92.1932 13.9358 96.4026 7.27544 99.9435C4.9128 101.144 2.51265 102.269 0.0750046 103.281C0.0750046 103.731 0.0750046 104.181 0.0750046 104.631H0ZM1.27508 86.6677L2.73767 85.9176C12.0894 81.0271 20.9657 75.277 29.2518 68.7416C32.5895 66.0789 35.9647 63.4163 39.5274 61.0161C43.0901 58.616 45.6403 56.6659 48.603 54.4157L58.6911 46.6153C63.2756 43.0649 68.045 39.7601 72.9794 36.7147C81.6277 31.4784 89.8871 25.6254 97.6934 19.2011C105.006 13.3882 111.907 7.50039 119.22 1.61253L119.595 1.35002H118.695C114.944 4.27519 110.932 7.27538 107.069 10.2756C103.206 13.2757 98.406 17.101 94.0182 20.4387C86.9303 25.8015 79.5423 30.7518 72.0044 35.4396C62.6316 41.5439 53.6163 48.1802 45.0027 55.3158C36.0703 62.7573 26.7572 69.7297 17.101 76.2046C12.1787 79.3612 7.04071 82.1682 1.7251 84.6051C1.57616 85.2861 1.46349 85.9747 1.38758 86.6677H1.27508ZM5.62534 69.3416L10.5381 66.4915C16.3885 63.0413 22.1638 59.4785 28.0517 55.9908C36.5022 50.9905 45.0152 46.0902 53.5908 41.2899C61.7236 36.7878 69.5646 31.7775 77.0672 26.289C84.9427 20.5512 92.6306 14.4008 100.394 8.43795C103.919 5.73778 107.519 3.03762 111.157 0.449963H109.619C106.356 2.88761 103.094 5.36276 99.8686 7.95042C92.3681 13.8008 84.5301 19.5011 76.5421 24.8639C68.5542 30.2268 60.6037 35.0646 52.2782 39.6398C43.9527 44.2151 35.0271 48.7529 26.7391 54.0407C21.1138 57.6034 15.676 61.5412 10.1256 65.0664L6.37539 67.5415L5.73785 69.3416H5.62534ZM12.5633 53.6657C19.3637 50.3905 26.1016 46.9153 32.777 43.2401C43.7257 37.3735 54.331 30.8876 64.5414 23.8139C75.1921 16.3134 85.2802 8.21293 95.5558 0.262451L93.7557 0.41246L88.3179 4.80023C73.9536 16.2649 58.6768 26.5372 42.6401 35.5146C33.4145 40.7274 23.889 45.5652 14.5509 50.2155C13.8758 51.3406 13.2008 52.5031 12.5633 53.6657ZM23.0639 38.0647L24.414 37.5022C36.6772 30.7893 48.753 23.8514 60.3412 16.2384C66.8666 11.9382 73.2669 7.42539 79.5423 2.7001C77.8172 3.07512 76.1296 3.52515 74.442 4.01268C72.3419 5.51277 70.2793 6.97536 68.1791 8.40045C59.5536 14.3633 50.7031 19.9136 41.7025 25.239C36.7897 28.1266 31.8019 30.9393 26.8141 33.752C25.5015 35.1396 24.264 36.6022 23.0639 38.1022V38.0647ZM183.536 38.7773C181.321 40.227 179.249 41.8846 177.348 43.7276C173.503 47.7484 170.405 52.4216 168.198 57.5284C166.063 61.659 165.03 66.2702 165.198 70.9167C165.229 71.2992 165.305 71.6767 165.423 72.0418C166.008 73.6445 167.035 75.0487 168.385 76.0921C170.136 77.4363 172.101 78.476 174.198 79.1672C179.553 80.8429 185.197 81.392 190.774 80.7798C193.913 80.4807 197.015 79.8779 200.037 78.9797C201.05 78.6797 201.987 78.3422 202.925 77.9672C202.925 77.7047 202.925 77.4421 202.925 77.2171C201.701 77.7164 200.449 78.1422 199.175 78.4922C196.358 79.2792 193.467 79.7694 190.549 79.9548C185.31 80.4002 180.037 79.6963 175.098 77.8922C173.316 77.3945 171.671 76.4977 170.287 75.2696C168.903 74.0416 167.816 72.5145 167.11 70.8042C166.377 66.329 167.155 61.7369 169.323 57.7534C171.261 52.7427 174.081 48.1195 177.648 44.1026C179.505 42.2297 181.554 40.5579 183.761 39.1148L183.499 38.7773H183.536ZM189.049 46.2777C187.728 47.0894 186.474 48.0048 185.299 49.0154C184.535 49.7263 183.867 50.533 183.311 51.4156C182.755 52.2966 182.278 53.2253 181.886 54.1907C181.429 55.2057 181.065 56.2601 180.798 57.3409C180.563 58.3368 180.437 59.3554 180.423 60.3786C180.386 61.3964 180.462 62.4151 180.648 63.4163C180.825 64.4389 181.194 65.4188 181.736 66.304C182.253 67.16 182.928 67.9106 183.724 68.5166C184.441 69.0698 185.275 69.4543 186.161 69.6417C187.541 69.8476 188.944 69.8476 190.324 69.6417C191.909 69.5848 193.482 69.3457 195.012 68.9291C196.605 68.4018 198.159 67.7627 199.662 67.0165C199.475 66.454 199.25 65.9289 199.062 65.4039C197.192 66.4012 195.249 67.2537 193.249 67.9541C190.848 68.8119 188.273 69.0694 185.749 68.7041C185.012 68.5089 184.321 68.1698 183.716 67.7064C183.111 67.2429 182.604 66.6643 182.224 66.0039C181.405 64.489 181.041 62.7703 181.174 61.0536C181.247 58.5183 181.976 56.0452 183.291 53.8761C184.605 51.7069 186.46 49.9159 188.674 48.6779L190.062 47.8903L189.086 46.3902L189.049 46.2777Z" fill="#B7805C"/>
</g>
<path style="mix-blend-mode:multiply" fill-rule="evenodd" clip-rule="evenodd" d="M49.1653 144.721C60.716 143.934 72.1167 141.833 83.5924 140.446C93.5305 139.208 103.506 138.383 113.594 137.596C124.582 136.696 135.571 135.871 146.521 134.821C160.755 133.585 174.913 131.595 188.936 128.858C193.887 127.845 198.837 126.683 203.675 125.107C204.325 122.182 204.85 119.22 205.25 116.219C196.484 118.954 187.388 120.493 178.211 120.795C171.385 121.057 164.56 120.795 157.734 120.42C148.584 119.97 134.483 118.845 125.82 119.407C114.007 120.157 103.319 122.257 91.3554 122.67C88.0552 122.67 82.9923 122.67 81.1547 119.182C80.6213 118.087 80.376 116.873 80.4422 115.657C80.7422 105.719 96.6807 85.9551 102.944 78.1546C109.206 70.3541 115.357 62.5161 121.695 54.6782C126.57 48.4528 131.295 42.1149 136.321 35.927C139.321 32.1768 142.433 28.7641 145.734 25.4264C148.796 22.2753 152.121 19.3897 155.672 16.8009C156.309 16.3508 156.947 15.9008 157.622 15.4883C154.734 13.6882 151.734 12.0006 148.696 10.5005C147.234 11.6256 145.809 12.7881 144.384 13.9882C140.312 17.5172 136.443 21.2734 132.795 25.2389C129.533 28.9891 126.42 32.4768 123.345 36.1895L112.957 48.7528C98.6683 65.5913 84.0424 82.1298 68.8165 98.1433C66.4913 100.581 64.0912 102.906 61.6535 105.231L53.7781 112.732C50.5154 115.807 47.3277 118.92 44.2525 122.22C41.4973 125.212 38.9889 128.423 36.752 131.82C35.1019 134.446 32.7768 138.683 34.6894 141.721C35.3743 142.574 36.227 143.276 37.1946 143.786C38.1623 144.296 39.2242 144.601 40.3148 144.684C43.2969 145.102 46.3183 145.165 49.3153 144.871L49.1653 144.721Z" fill="url(#paint6_radial_93_10345)"/>
<path style="mix-blend-mode:multiply" fill-rule="evenodd" clip-rule="evenodd" d="M117.832 88.0928C117.485 89.1412 117.352 90.2486 117.44 91.3494C117.529 92.4502 117.838 93.522 118.348 94.5013C118.859 95.4806 119.561 96.3473 120.413 97.0503C121.265 97.7532 122.249 98.2779 123.307 98.5934C124.382 98.8934 125.47 99.1559 126.57 99.381C128.033 99.7185 129.458 99.981 130.92 100.244C134.408 100.844 137.933 101.369 141.421 101.819C144.009 102.156 146.559 102.456 149.146 102.719C153.534 103.131 157.884 103.769 162.235 104.444C166.585 105.119 169.735 105.681 173.673 106.056C179.617 106.719 185.625 106.555 191.524 105.569C196.448 104.739 201.292 103.484 206 101.819C206 98.8559 206 95.9307 205.512 93.0431C189.424 98.7434 171.76 94.8432 153.309 88.4303C151.066 87.8876 148.962 86.8793 147.133 85.4709C145.305 84.0624 143.793 82.2853 142.696 80.2548C140.783 75.417 145.246 66.754 147.571 62.6287C149.878 58.5679 152.499 54.6934 155.409 51.0405C159.607 45.5804 164.262 40.4868 169.323 35.8146C171.457 33.8783 173.698 32.0629 176.035 30.3768C174.035 28.4016 171.973 26.489 169.848 24.6389L166.097 27.0391C159.403 31.7288 153.241 37.1362 147.721 43.165C144.421 46.9153 141.308 50.4405 138.271 54.4157C134.52 58.916 131.22 63.5663 127.845 68.2541C125.37 71.691 123.188 75.3289 121.32 79.1297C119.864 82.0512 118.684 85.1021 117.794 88.2428L117.832 88.0928Z" fill="url(#paint7_radial_93_10345)"/>
<path style="mix-blend-mode:multiply" fill-rule="evenodd" clip-rule="evenodd" d="M56.2534 83.6675C61.5932 78.6581 66.6039 73.3092 71.2543 67.654C74.367 63.9038 77.5547 60.3411 80.8924 56.8534C84.1433 53.4833 87.5735 50.291 91.168 47.2903C95.5933 43.5401 99.8686 39.7898 104.069 35.7021C108.269 31.6144 111.944 28.2016 115.92 24.4514C120.607 19.9511 125.408 15.5259 130.47 11.4006C132.683 9.56301 134.971 7.6504 137.296 6.0753C134.633 5.10024 131.895 4.27519 129.12 3.52515C122.745 8.06292 116.557 12.9007 110.369 17.8135C103.769 23.4014 96.8684 29.2142 90.0055 35.0646C81.98 41.89 73.9545 48.7154 65.779 55.3533C60.2662 59.8536 54.9033 64.4663 49.503 69.0791C44.1027 73.6919 38.2523 78.7172 32.402 83.33C24.9244 89.4018 17.0295 94.9407 8.77553 99.906C5.92536 101.606 3.00018 103.181 0 104.631C0.0780922 108.859 0.403669 113.079 0.975059 117.27L4.01274 115.882C16.8691 110.227 29.2476 103.542 41.0275 95.8932C46.3871 92.1853 51.4753 88.0996 56.2534 83.6675Z" fill="url(#paint8_radial_93_10345)"/>
<path style="mix-blend-mode:multiply" fill-rule="evenodd" clip-rule="evenodd" d="M92.6682 165.61C87.3429 167.223 82.0175 168.873 76.6922 170.598C72.1544 172.06 67.6167 173.635 63.1914 175.398C56.366 178.098 49.6531 180.948 42.9777 184.024L40.7275 185.036C45.087 188.357 49.7016 191.329 54.5284 193.924C63.3789 189.274 72.4545 185.074 81.6425 181.098C95.2934 175.248 109.169 169.848 122.895 164.297C130.107 161.171 137.495 158.466 145.021 156.197C152.772 154.156 160.62 152.503 168.535 151.247C177.948 149.596 187.286 147.946 196.737 145.696C197.487 144.084 198.2 142.434 198.837 140.783L194.112 141.796C187.849 143.109 181.549 144.121 175.361 145.171C165.723 146.746 156.122 148.434 146.596 150.534C137.071 152.634 127.845 155.034 118.47 158.034C109.919 160.66 101.331 163.135 92.7807 165.535L92.6682 165.61Z" fill="url(#paint9_radial_93_10345)"/>
<path style="mix-blend-mode:multiply" fill-rule="evenodd" clip-rule="evenodd" d="M182.036 66.004C182.416 66.6644 182.924 67.243 183.529 67.7064C184.134 68.1698 184.825 68.5089 185.561 68.7041C188.085 69.0694 190.66 68.8119 193.062 67.9541C195.03 67.2508 196.937 66.3853 198.762 65.3664C196.359 59.2729 193.383 53.4213 189.874 47.8904L188.637 48.7529C186.423 49.9909 184.568 51.7819 183.253 53.9511C181.939 56.1202 181.209 58.5933 181.136 61.1287C181.003 62.8454 181.368 64.564 182.186 66.079L182.036 66.004Z" fill="url(#paint10_radial_93_10345)"/>
<path style="mix-blend-mode:screen" opacity="0.5" fill-rule="evenodd" clip-rule="evenodd" d="M102.981 99.4934C145.471 99.4934 181.736 96.4182 195.124 91.9929C192.429 69.4542 181.565 48.6854 164.588 33.6176C147.611 18.5497 125.699 10.2283 103 10.2283C80.3005 10.2283 58.3887 18.5497 41.4118 33.6176C24.4348 48.6854 13.5706 69.4542 10.8755 91.9929C24.3388 96.3057 60.491 99.4934 102.981 99.4934Z" fill="url(#paint11_linear_93_10345)"/>
<path style="mix-blend-mode:screen" opacity="0.3" fill-rule="evenodd" clip-rule="evenodd" d="M178.886 53.2531C170.628 40.6646 159.368 30.3281 146.121 23.1748C132.874 16.0215 118.055 12.2761 103 12.2761C87.9446 12.2761 73.1259 16.0215 59.8786 23.1748C46.6313 30.3281 35.3717 40.6646 27.114 53.2531C19.051 65.5539 186.949 65.5539 178.886 53.2531Z" fill="url(#paint12_linear_93_10345)"/>
<defs>
<linearGradient id="paint0_linear_93_10345" x1="102.981" y1="206" x2="102.981" y2="0" gradientUnits="userSpaceOnUse">
<stop stop-color="#80350E"/>
<stop offset="1" stop-color="#DE7724"/>
</linearGradient>
<linearGradient id="paint1_linear_93_10345" x1="18.7136" y1="175.811" x2="18.7136" y2="30.1517" gradientUnits="userSpaceOnUse">
<stop stop-color="#965B3B"/>
<stop offset="1" stop-color="white"/>
</linearGradient>
<linearGradient id="paint2_linear_93_10345" x1="187.286" y1="175.811" x2="187.286" y2="30.1517" gradientUnits="userSpaceOnUse">
<stop stop-color="#965B3B"/>
<stop offset="1" stop-color="white"/>
</linearGradient>
<linearGradient id="paint3_linear_93_10345" x1="102.981" y1="37.3897" x2="102.981" y2="-6.92056e-05" gradientUnits="userSpaceOnUse">
<stop offset="0.25"/>
<stop offset="1" stop-color="#CC9750"/>
</linearGradient>
<radialGradient id="paint4_radial_93_10345" cx="0" cy="0" r="1" gradientUnits="userSpaceOnUse" gradientTransform="translate(4.65011 2.13759) scale(217.288 217.288)">
<stop stop-color="#EFC79C"/>
<stop offset="1"/>
</radialGradient>
<linearGradient id="paint5_linear_93_10345" x1="102.981" y1="195.762" x2="102.981" y2="10.238" gradientUnits="userSpaceOnUse">
<stop stop-color="#752E08"/>
<stop offset="1" stop-color="#DE7724"/>
</linearGradient>
<radialGradient id="paint6_radial_93_10345" cx="0" cy="0" r="1" gradientUnits="userSpaceOnUse" gradientTransform="translate(164.935 218.263) scale(211.55 211.55)">
<stop stop-color="#CFA04D"/>
<stop offset="1" stop-color="white"/>
</radialGradient>
<radialGradient id="paint7_radial_93_10345" cx="0" cy="0" r="1" gradientUnits="userSpaceOnUse" gradientTransform="translate(223.026 -65.329) scale(215.826 215.826)">
<stop stop-color="#CFA04D"/>
<stop offset="1" stop-color="white"/>
</radialGradient>
<radialGradient id="paint8_radial_93_10345" cx="0" cy="0" r="1" gradientUnits="userSpaceOnUse" gradientTransform="translate(21.9763 -18.1887) scale(161.522)">
<stop stop-color="#CFA04D"/>
<stop offset="1" stop-color="white"/>
</radialGradient>
<radialGradient id="paint9_radial_93_10345" cx="0" cy="0" r="1" gradientUnits="userSpaceOnUse" gradientTransform="translate(219.651 336.095) scale(272.379 272.379)">
<stop stop-color="#CFA04D"/>
<stop offset="1" stop-color="white"/>
</radialGradient>
<radialGradient id="paint10_radial_93_10345" cx="0" cy="0" r="1" gradientUnits="userSpaceOnUse" gradientTransform="translate(189.949 58.391) scale(9.75059 9.75059)">
<stop stop-color="#CFA04D"/>
<stop offset="1" stop-color="white"/>
</radialGradient>
<linearGradient id="paint11_linear_93_10345" x1="102.981" y1="99.4934" x2="102.981" y2="10.238" gradientUnits="userSpaceOnUse">
<stop/>
<stop offset="1" stop-color="#D4A15D"/>
</linearGradient>
<linearGradient id="paint12_linear_93_10345" x1="102.981" y1="62.4787" x2="102.981" y2="12.2631" gradientUnits="userSpaceOnUse">
<stop/>
<stop offset="1" stop-color="#FFFD9E"/>
</linearGradient>
</defs>
</svg>
