<svg width="374" height="129" viewBox="0 0 374 129" fill="none" xmlns="http://www.w3.org/2000/svg">
<g clip-path="url(#clip0_1_439)">
<path d="M43.6794 65.3669H41.9142V67.1007H43.6794V65.3669Z" fill="white"/>
<path d="M8.38259 54.9677H6.61743V56.7015H8.38259V54.9677Z" fill="white"/>
<path d="M6.62092 56.7015H4.85193V58.4354H6.62092V56.7015Z" fill="white"/>
<path d="M11.9136 53.2338H10.1484V54.9677H11.9136V53.2338Z" fill="white"/>
<path d="M20.7358 51.5H18.9706V53.2376H20.7358V51.5Z" fill="white"/>
<path d="M18.9702 51.5H17.2051V53.2376H18.9702V51.5Z" fill="white"/>
<path d="M17.2089 51.5H15.4437V53.2376H17.2089V51.5Z" fill="white"/>
<path d="M24.2651 51.5H22.4961V53.2376H24.2651V51.5Z" fill="white"/>
<path d="M22.4999 51.5H20.7347V53.2376H22.4999V51.5Z" fill="white"/>
<path d="M29.5564 54.9677H27.7913V56.7015H29.5564V54.9677Z" fill="white"/>
<path d="M27.7965 53.2338H26.0314V54.9677H27.7965V53.2338Z" fill="white"/>
<path d="M33.0913 60.1654H31.3223V61.8992H33.0913V60.1654Z" fill="white"/>
<path d="M52.5 72.3022H50.7349V74.0361H52.5V72.3022Z" fill="#CEE0E0"/>
<path d="M50.7397 72.3022H48.9707V74.0361H50.7397V72.3022Z" fill="#CEE0E0"/>
<path d="M50.7397 70.5647H48.9707V72.3023H50.7397V70.5647Z" fill="#CEE0E0"/>
<path d="M50.7397 68.8308H48.9707V70.5647H50.7397V68.8308Z" fill="#CEE0E0"/>
<path d="M48.9704 72.3022H47.2052V74.0361H48.9704V72.3022Z" fill="#CEE0E0"/>
<path d="M48.9704 70.5647H47.2052V72.3023H48.9704V70.5647Z" fill="#CEE0E0"/>
<path d="M48.9704 68.8308H47.2052V70.5647H48.9704V68.8308Z" fill="#F2F2F2"/>
<path d="M48.9704 67.1007H47.2052V68.8346H48.9704V67.1007Z" fill="#F2F2F2"/>
<path d="M47.2047 72.3022H45.4396V74.0361H47.2047V72.3022Z" fill="#CEE0E0"/>
<path d="M47.2047 70.5647H45.4396V72.3023H47.2047V70.5647Z" fill="#CEE0E0"/>
<path d="M47.2047 68.8308H45.4396V70.5647H47.2047V68.8308Z" fill="#F2F2F2"/>
<path d="M47.2047 67.1007H45.4396V68.8346H47.2047V67.1007Z" fill="white"/>
<path d="M45.4392 72.3022H43.6741V74.0361H45.4392V72.3022Z" fill="#CEE0E0"/>
<path d="M45.4392 70.5647H43.6741V72.3023H45.4392V70.5647Z" fill="#CEE0E0"/>
<path d="M45.4392 68.8308H43.6741V70.5647H45.4392V68.8308Z" fill="#F2F2F2"/>
<path d="M45.4392 67.1007H43.6741V68.8346H45.4392V67.1007Z" fill="white"/>
<path d="M43.6794 72.3022H41.9142V74.0361H43.6794V72.3022Z" fill="#CEE0E0"/>
<path d="M43.6794 70.5647H41.9142V72.3023H43.6794V70.5647Z" fill="#CEE0E0"/>
<path d="M43.6794 68.8308H41.9142V70.5647H43.6794V68.8308Z" fill="#F2F2F2"/>
<path d="M43.6794 67.1007H41.9142V68.8346H43.6794V67.1007Z" fill="white"/>
<path d="M41.9134 72.3022H40.1444V74.0361H41.9134V72.3022Z" fill="#CEE0E0"/>
<path d="M41.9134 70.5647H40.1444V72.3023H41.9134V70.5647Z" fill="#CEE0E0"/>
<path d="M41.9134 68.8308H40.1444V70.5647H41.9134V68.8308Z" fill="#F2F2F2"/>
<path d="M41.9134 67.1007H40.1444V68.8346H41.9134V67.1007Z" fill="white"/>
<path d="M41.9134 65.3669H40.1444V67.1007H41.9134V65.3669Z" fill="white"/>
<path d="M41.9134 63.6331H40.1444V65.3669H41.9134V63.6331Z" fill="white"/>
<path d="M40.1441 74.0323H38.3789V75.7662H40.1441V74.0323Z" fill="#CEE0E0"/>
<path d="M40.1441 72.3022H38.3789V74.0361H40.1441V72.3022Z" fill="#CEE0E0"/>
<path d="M40.1441 70.5647H38.3789V72.3023H40.1441V70.5647Z" fill="#F2F2F2"/>
<path d="M40.1441 68.8308H38.3789V70.5647H40.1441V68.8308Z" fill="#F2F2F2"/>
<path d="M40.1441 67.1007H38.3789V68.8346H40.1441V67.1007Z" fill="#F2F2F2"/>
<path d="M40.1441 65.3669H38.3789V67.1007H40.1441V65.3669Z" fill="white"/>
<path d="M40.1441 63.6331H38.3789V65.3669H40.1441V63.6331Z" fill="white"/>
<path d="M40.1441 61.8993H38.3789V63.6368H40.1441V61.8993Z" fill="white"/>
<path d="M38.3827 75.7662H36.6176V77.5H38.3827V75.7662Z" fill="#CEE0E0"/>
<path d="M38.3827 74.0323H36.6176V75.7662H38.3827V74.0323Z" fill="#CEE0E0"/>
<path d="M38.3827 72.3022H36.6176V74.0361H38.3827V72.3022Z" fill="#F2F2F2"/>
<path d="M38.3827 70.5647H36.6176V72.3023H38.3827V70.5647Z" fill="#F2F2F2"/>
<path d="M38.3827 68.8308H36.6176V70.5647H38.3827V68.8308Z" fill="#F2F2F2"/>
<path d="M38.3827 67.1007H36.6176V68.8346H38.3827V67.1007Z" fill="#F2F2F2"/>
<path d="M38.3827 65.3669H36.6176V67.1007H38.3827V65.3669Z" fill="#F2F2F2"/>
<path d="M38.3827 63.6331H36.6176V65.3669H38.3827V63.6331Z" fill="#F2F2F2"/>
<path d="M38.3827 61.8993H36.6176V63.6368H38.3827V61.8993Z" fill="white"/>
<path d="M38.3827 60.1654H36.6176V61.8992H38.3827V60.1654Z" fill="white"/>
<path d="M36.6186 75.7662H34.8534V77.5H36.6186V75.7662Z" fill="#CEE0E0"/>
<path d="M36.6186 74.0323H34.8534V75.7662H36.6186V74.0323Z" fill="#CEE0E0"/>
<path d="M36.6186 72.3022H34.8534V74.0361H36.6186V72.3022Z" fill="#F2F2F2"/>
<path d="M36.6186 70.5647H34.8534V72.3023H36.6186V70.5647Z" fill="#F2F2F2"/>
<path d="M36.6186 68.8308H34.8534V70.5647H36.6186V68.8308Z" fill="#F2F2F2"/>
<path d="M36.6186 67.1007H34.8534V68.8346H36.6186V67.1007Z" fill="#F2F2F2"/>
<path d="M36.6186 65.3669H34.8534V67.1007H36.6186V65.3669Z" fill="#F2F2F2"/>
<path d="M36.6186 63.6331H34.8534V65.3669H36.6186V63.6331Z" fill="#F2F2F2"/>
<path d="M36.6186 61.8993H34.8534V63.6368H36.6186V61.8993Z" fill="#F2F2F2"/>
<path d="M36.6186 60.1654H34.8534V61.8992H36.6186V60.1654Z" fill="white"/>
<path d="M34.8531 75.7662H33.0879V77.5H34.8531V75.7662Z" fill="#CEE0E0"/>
<path d="M34.8531 74.0323H33.0879V75.7662H34.8531V74.0323Z" fill="#CEE0E0"/>
<path d="M34.8531 72.3022H33.0879V74.0361H34.8531V72.3022Z" fill="#CEE0E0"/>
<path d="M34.8531 70.5647H33.0879V72.3023H34.8531V70.5647Z" fill="#F2F2F2"/>
<path d="M34.8531 68.8308H33.0879V70.5647H34.8531V68.8308Z" fill="#F2F2F2"/>
<path d="M34.8531 67.1007H33.0879V68.8346H34.8531V67.1007Z" fill="#F2F2F2"/>
<path d="M34.8531 65.3669H33.0879V67.1007H34.8531V65.3669Z" fill="#CEE0E0"/>
<path d="M34.8531 63.6331H33.0879V65.3669H34.8531V63.6331Z" fill="#CEE0E0"/>
<path d="M34.8531 61.8993H33.0879V63.6368H34.8531V61.8993Z" fill="#F2F2F2"/>
<path d="M34.8531 60.1654H33.0879V61.8992H34.8531V60.1654Z" fill="white"/>
<path d="M33.0913 75.7662H31.3223V77.5H33.0913V75.7662Z" fill="#CEE0E0"/>
<path d="M33.0913 74.0323H31.3223V75.7662H33.0913V74.0323Z" fill="#CEE0E0"/>
<path d="M33.0913 72.3022H31.3223V74.0361H33.0913V72.3022Z" fill="#CEE0E0"/>
<path d="M33.0913 70.5647H31.3223V72.3023H33.0913V70.5647Z" fill="#CEE0E0"/>
<path d="M33.0913 68.8308H31.3223V70.5647H33.0913V68.8308Z" fill="#F2F2F2"/>
<path d="M33.0913 67.1007H31.3223V68.8346H33.0913V67.1007Z" fill="#F2F2F2"/>
<path d="M33.0913 65.3669H31.3223V67.1007H33.0913V65.3669Z" fill="#CEE0E0"/>
<path d="M33.0913 63.6331H31.3223V65.3669H33.0913V63.6331Z" fill="#F2F2F2"/>
<path d="M33.0913 61.8993H31.3223V63.6368H33.0913V61.8993Z" fill="#F2F2F2"/>
<path d="M31.3234 75.7662H29.5582V77.5H31.3234V75.7662Z" fill="#CEE0E0"/>
<path d="M31.3234 74.0323H29.5582V75.7662H31.3234V74.0323Z" fill="#CEE0E0"/>
<path d="M31.3234 72.3022H29.5582V74.0361H31.3234V72.3022Z" fill="#CEE0E0"/>
<path d="M31.3234 70.5647H29.5582V72.3023H31.3234V70.5647Z" fill="#CEE0E0"/>
<path d="M31.3234 68.8308H29.5582V70.5647H31.3234V68.8308Z" fill="#CEE0E0"/>
<path d="M31.3234 67.1007H29.5582V68.8346H31.3234V67.1007Z" fill="#CEE0E0"/>
<path d="M31.3234 65.3669H29.5582V67.1007H31.3234V65.3669Z" fill="#CEE0E0"/>
<path d="M31.3234 63.6331H29.5582V65.3669H31.3234V63.6331Z" fill="#F2F2F2"/>
<path d="M31.3234 61.8993H29.5582V63.6368H31.3234V61.8993Z" fill="#F2F2F2"/>
<path d="M31.3234 60.1654H29.5582V61.8992H31.3234V60.1654Z" fill="white"/>
<path d="M31.3234 58.4316H29.5582V60.1654H31.3234V58.4316Z" fill="white"/>
<path d="M29.5564 75.7662H27.7913V77.5H29.5564V75.7662Z" fill="#CEE0E0"/>
<path d="M29.5564 74.0323H27.7913V75.7662H29.5564V74.0323Z" fill="#CEE0E0"/>
<path d="M29.5564 72.3022H27.7913V74.0361H29.5564V72.3022Z" fill="#CEE0E0"/>
<path d="M29.5564 70.5647H27.7913V72.3023H29.5564V70.5647Z" fill="#CEE0E0"/>
<path d="M29.5564 68.8308H27.7913V70.5647H29.5564V68.8308Z" fill="#CEE0E0"/>
<path d="M29.5564 67.1007H27.7913V68.8346H29.5564V67.1007Z" fill="#F2F2F2"/>
<path d="M29.5564 65.3669H27.7913V67.1007H29.5564V65.3669Z" fill="#F2F2F2"/>
<path d="M29.5564 63.6331H27.7913V65.3669H29.5564V63.6331Z" fill="#CEE0E0"/>
<path d="M29.5564 61.8993H27.7913V63.6368H29.5564V61.8993Z" fill="#F2F2F2"/>
<path d="M29.5564 60.1654H27.7913V61.8992H29.5564V60.1654Z" fill="#F2F2F2"/>
<path d="M29.5564 58.4316H27.7913V60.1654H29.5564V58.4316Z" fill="white"/>
<path d="M29.5564 56.7015H27.7913V58.4354H29.5564V56.7015Z" fill="white"/>
<path d="M27.7965 74.0323H26.0314V75.7662H27.7965V74.0323Z" fill="#CEE0E0"/>
<path d="M27.7965 72.3022H26.0314V74.0361H27.7965V72.3022Z" fill="#CEE0E0"/>
<path d="M27.7965 70.5647H26.0314V72.3023H27.7965V70.5647Z" fill="#CEE0E0"/>
<path d="M27.7965 68.8308H26.0314V70.5647H27.7965V68.8308Z" fill="#F2F2F2"/>
<path d="M27.7965 67.1007H26.0314V68.8346H27.7965V67.1007Z" fill="#F2F2F2"/>
<path d="M27.7965 65.3669H26.0314V67.1007H27.7965V65.3669Z" fill="#F2F2F2"/>
<path d="M27.7965 63.6331H26.0314V65.3669H27.7965V63.6331Z" fill="#F2F2F2"/>
<path d="M27.7965 61.8993H26.0314V63.6368H27.7965V61.8993Z" fill="#F2F2F2"/>
<path d="M27.7965 60.1654H26.0314V61.8992H27.7965V60.1654Z" fill="#F2F2F2"/>
<path d="M27.7965 58.4316H26.0314V60.1654H27.7965V58.4316Z" fill="#F2F2F2"/>
<path d="M27.7965 56.7015H26.0314V58.4354H27.7965V56.7015Z" fill="#F2F2F2"/>
<path d="M27.7965 54.9677H26.0314V56.7015H27.7965V54.9677Z" fill="white"/>
<path d="M26.0309 74.0323H24.2657V75.7662H26.0309V74.0323Z" fill="#CEE0E0"/>
<path d="M26.0309 72.3022H24.2657V74.0361H26.0309V72.3022Z" fill="#CEE0E0"/>
<path d="M26.0309 70.5647H24.2657V72.3023H26.0309V70.5647Z" fill="#F2F2F2"/>
<path d="M26.0309 68.8308H24.2657V70.5647H26.0309V68.8308Z" fill="#F2F2F2"/>
<path d="M26.0309 67.1007H24.2657V68.8346H26.0309V67.1007Z" fill="#F2F2F2"/>
<path d="M26.0309 65.3669H24.2657V67.1007H26.0309V65.3669Z" fill="#F2F2F2"/>
<path d="M26.0309 63.6331H24.2657V65.3669H26.0309V63.6331Z" fill="#F2F2F2"/>
<path d="M26.0309 61.8993H24.2657V63.6368H26.0309V61.8993Z" fill="#F2F2F2"/>
<path d="M26.0309 60.1654H24.2657V61.8992H26.0309V60.1654Z" fill="#F2F2F2"/>
<path d="M26.0309 58.4316H24.2657V60.1654H26.0309V58.4316Z" fill="#F2F2F2"/>
<path d="M26.0309 56.7015H24.2657V58.4354H26.0309V56.7015Z" fill="#F2F2F2"/>
<path d="M26.0309 54.9677H24.2657V56.7015H26.0309V54.9677Z" fill="#F2F2F2"/>
<path d="M26.0309 53.2338H24.2657V54.9677H26.0309V53.2338Z" fill="white"/>
<path d="M24.2651 75.7662H22.4961V77.5H24.2651V75.7662Z" fill="#CEE0E0"/>
<path d="M24.2651 74.0323H22.4961V75.7662H24.2651V74.0323Z" fill="#CEE0E0"/>
<path d="M24.2651 72.3022H22.4961V74.0361H24.2651V72.3022Z" fill="#CEE0E0"/>
<path d="M24.2651 70.5647H22.4961V72.3023H24.2651V70.5647Z" fill="#F2F2F2"/>
<path d="M24.2651 68.8308H22.4961V70.5647H24.2651V68.8308Z" fill="#F2F2F2"/>
<path d="M24.2651 67.1007H22.4961V68.8346H24.2651V67.1007Z" fill="#F2F2F2"/>
<path d="M24.2651 65.3669H22.4961V67.1007H24.2651V65.3669Z" fill="#F2F2F2"/>
<path d="M24.2651 63.6331H22.4961V65.3669H24.2651V63.6331Z" fill="#F2F2F2"/>
<path d="M24.2651 61.8993H22.4961V63.6368H24.2651V61.8993Z" fill="#F2F2F2"/>
<path d="M24.2651 60.1654H22.4961V61.8992H24.2651V60.1654Z" fill="#F2F2F2"/>
<path d="M24.2651 58.4316H22.4961V60.1654H24.2651V58.4316Z" fill="#F2F2F2"/>
<path d="M24.2651 56.7015H22.4961V58.4354H24.2651V56.7015Z" fill="#F2F2F2"/>
<path d="M24.2651 54.9677H22.4961V56.7015H24.2651V54.9677Z" fill="#F2F2F2"/>
<path d="M24.2651 53.2338H22.4961V54.9677H24.2651V53.2338Z" fill="white"/>
<path d="M22.4999 75.7662H20.7347V77.5H22.4999V75.7662Z" fill="#CEE0E0"/>
<path d="M22.4999 74.0323H20.7347V75.7662H22.4999V74.0323Z" fill="#CEE0E0"/>
<path d="M22.4999 72.3022H20.7347V74.0361H22.4999V72.3022Z" fill="#CEE0E0"/>
<path d="M22.4999 70.5647H20.7347V72.3023H22.4999V70.5647Z" fill="#F2F2F2"/>
<path d="M22.4999 68.8308H20.7347V70.5647H22.4999V68.8308Z" fill="#F2F2F2"/>
<path d="M22.4999 67.1007H20.7347V68.8346H22.4999V67.1007Z" fill="#F2F2F2"/>
<path d="M22.4999 65.3669H20.7347V67.1007H22.4999V65.3669Z" fill="#F2F2F2"/>
<path d="M22.4999 63.6331H20.7347V65.3669H22.4999V63.6331Z" fill="#F2F2F2"/>
<path d="M22.4999 61.8993H20.7347V63.6368H22.4999V61.8993Z" fill="#CEE0E0"/>
<path d="M22.4999 60.1654H20.7347V61.8992H22.4999V60.1654Z" fill="#CEE0E0"/>
<path d="M22.4999 58.4316H20.7347V60.1654H22.4999V58.4316Z" fill="#F2F2F2"/>
<path d="M22.4999 56.7015H20.7347V58.4354H22.4999V56.7015Z" fill="#F2F2F2"/>
<path d="M22.4999 54.9677H20.7347V56.7015H22.4999V54.9677Z" fill="#F2F2F2"/>
<path d="M22.4999 53.2338H20.7347V54.9677H22.4999V53.2338Z" fill="#F2F2F2"/>
<path d="M20.7358 75.7662H18.9706V77.5H20.7358V75.7662Z" fill="#CEE0E0"/>
<path d="M20.7358 74.0323H18.9706V75.7662H20.7358V74.0323Z" fill="#CEE0E0"/>
<path d="M20.7358 72.3022H18.9706V74.0361H20.7358V72.3022Z" fill="#CEE0E0"/>
<path d="M20.7358 70.5647H18.9706V72.3023H20.7358V70.5647Z" fill="#F2F2F2"/>
<path d="M20.7358 68.8308H18.9706V70.5647H20.7358V68.8308Z" fill="#F2F2F2"/>
<path d="M20.7358 67.1007H18.9706V68.8346H20.7358V67.1007Z" fill="#F2F2F2"/>
<path d="M20.7358 65.3669H18.9706V67.1007H20.7358V65.3669Z" fill="#F2F2F2"/>
<path d="M20.7358 63.6331H18.9706V65.3669H20.7358V63.6331Z" fill="#F2F2F2"/>
<path d="M20.7358 61.8993H18.9706V63.6368H20.7358V61.8993Z" fill="#CEE0E0"/>
<path d="M20.7358 60.1654H18.9706V61.8992H20.7358V60.1654Z" fill="#F2F2F2"/>
<path d="M20.7358 58.4316H18.9706V60.1654H20.7358V58.4316Z" fill="#F2F2F2"/>
<path d="M20.7358 56.7015H18.9706V58.4354H20.7358V56.7015Z" fill="#F2F2F2"/>
<path d="M20.7358 54.9677H18.9706V56.7015H20.7358V54.9677Z" fill="#F2F2F2"/>
<path d="M20.7358 53.2338H18.9706V54.9677H20.7358V53.2338Z" fill="#F2F2F2"/>
<path d="M18.9702 75.7662H17.2051V77.5H18.9702V75.7662Z" fill="#CEE0E0"/>
<path d="M18.9702 74.0323H17.2051V75.7662H18.9702V74.0323Z" fill="#CEE0E0"/>
<path d="M18.9702 72.3022H17.2051V74.0361H18.9702V72.3022Z" fill="#CEE0E0"/>
<path d="M18.9702 70.5647H17.2051V72.3023H18.9702V70.5647Z" fill="#F2F2F2"/>
<path d="M18.9702 68.8308H17.2051V70.5647H18.9702V68.8308Z" fill="#F2F2F2"/>
<path d="M18.9702 67.1007H17.2051V68.8346H18.9702V67.1007Z" fill="#F2F2F2"/>
<path d="M18.9702 65.3669H17.2051V67.1007H18.9702V65.3669Z" fill="#F2F2F2"/>
<path d="M18.9702 63.6331H17.2051V65.3669H18.9702V63.6331Z" fill="#CEE0E0"/>
<path d="M18.9702 61.8993H17.2051V63.6368H18.9702V61.8993Z" fill="#CEE0E0"/>
<path d="M18.9702 60.1654H17.2051V61.8992H18.9702V60.1654Z" fill="#F2F2F2"/>
<path d="M18.9702 58.4316H17.2051V60.1654H18.9702V58.4316Z" fill="#F2F2F2"/>
<path d="M18.9702 56.7015H17.2051V58.4354H18.9702V56.7015Z" fill="#F2F2F2"/>
<path d="M18.9702 54.9677H17.2051V56.7015H18.9702V54.9677Z" fill="#F2F2F2"/>
<path d="M18.9702 53.2338H17.2051V54.9677H18.9702V53.2338Z" fill="#F2F2F2"/>
<path d="M17.2089 74.0323H15.4437V75.7662H17.2089V74.0323Z" fill="#CEE0E0"/>
<path d="M17.2089 72.3022H15.4437V74.0361H17.2089V72.3022Z" fill="#CEE0E0"/>
<path d="M17.2089 70.5647H15.4437V72.3023H17.2089V70.5647Z" fill="#CEE0E0"/>
<path d="M17.2089 68.8308H15.4437V70.5647H17.2089V68.8308Z" fill="#CEE0E0"/>
<path d="M17.2089 67.1007H15.4437V68.8346H17.2089V67.1007Z" fill="#F2F2F2"/>
<path d="M17.2089 65.3669H15.4437V67.1007H17.2089V65.3669Z" fill="#F2F2F2"/>
<path d="M17.2089 63.6331H15.4437V65.3669H17.2089V63.6331Z" fill="#CEE0E0"/>
<path d="M17.2089 61.8993H15.4437V63.6368H17.2089V61.8993Z" fill="#F2F2F2"/>
<path d="M17.2089 60.1654H15.4437V61.8992H17.2089V60.1654Z" fill="#F2F2F2"/>
<path d="M17.2089 58.4316H15.4437V60.1654H17.2089V58.4316Z" fill="#F2F2F2"/>
<path d="M17.2089 56.7015H15.4437V58.4354H17.2089V56.7015Z" fill="#F2F2F2"/>
<path d="M17.2089 54.9677H15.4437V56.7015H17.2089V54.9677Z" fill="#F2F2F2"/>
<path d="M17.2089 53.2338H15.4437V54.9677H17.2089V53.2338Z" fill="white"/>
<path d="M15.4429 74.0323H13.674V75.7662H15.4429V74.0323Z" fill="#CEE0E0"/>
<path d="M15.4429 72.3022H13.674V74.0361H15.4429V72.3022Z" fill="#CEE0E0"/>
<path d="M15.4429 70.5647H13.674V72.3023H15.4429V70.5647Z" fill="#CEE0E0"/>
<path d="M15.4429 68.8308H13.674V70.5647H15.4429V68.8308Z" fill="#CEE0E0"/>
<path d="M15.4429 67.1007H13.674V68.8346H15.4429V67.1007Z" fill="#CEE0E0"/>
<path d="M15.4429 65.3669H13.674V67.1007H15.4429V65.3669Z" fill="#CEE0E0"/>
<path d="M15.4429 63.6331H13.674V65.3669H15.4429V63.6331Z" fill="#CEE0E0"/>
<path d="M15.4429 61.8993H13.674V63.6368H15.4429V61.8993Z" fill="#F2F2F2"/>
<path d="M15.4429 60.1654H13.674V61.8992H15.4429V60.1654Z" fill="#F2F2F2"/>
<path d="M15.4429 58.4316H13.674V60.1654H15.4429V58.4316Z" fill="#F2F2F2"/>
<path d="M15.4429 56.7015H13.674V58.4354H15.4429V56.7015Z" fill="#F2F2F2"/>
<path d="M15.4429 54.9677H13.674V56.7015H15.4429V54.9677Z" fill="#F2F2F2"/>
<path d="M15.4429 53.2338H13.674V54.9677H15.4429V53.2338Z" fill="white"/>
<path d="M13.6736 72.3022H11.9084V74.0361H13.6736V72.3022Z" fill="#CEE0E0"/>
<path d="M13.6736 70.5647H11.9084V72.3023H13.6736V70.5647Z" fill="#CEE0E0"/>
<path d="M13.6736 68.8308H11.9084V70.5647H13.6736V68.8308Z" fill="#CEE0E0"/>
<path d="M13.6736 67.1007H11.9084V68.8346H13.6736V67.1007Z" fill="#CEE0E0"/>
<path d="M13.6736 65.3669H11.9084V67.1007H13.6736V65.3669Z" fill="#F2F2F2"/>
<path d="M13.6736 63.6331H11.9084V65.3669H13.6736V63.6331Z" fill="#CEE0E0"/>
<path d="M13.6736 61.8993H11.9084V63.6368H13.6736V61.8993Z" fill="#CEE0E0"/>
<path d="M13.6736 60.1654H11.9084V61.8992H13.6736V60.1654Z" fill="#F2F2F2"/>
<path d="M13.6736 58.4316H11.9084V60.1654H13.6736V58.4316Z" fill="#F2F2F2"/>
<path d="M13.6736 56.7015H11.9084V58.4354H13.6736V56.7015Z" fill="#F2F2F2"/>
<path d="M13.6736 54.9677H11.9084V56.7015H13.6736V54.9677Z" fill="#F2F2F2"/>
<path d="M13.6736 53.2338H11.9084V54.9677H13.6736V53.2338Z" fill="white"/>
<path d="M11.9136 72.3022H10.1484V74.0361H11.9136V72.3022Z" fill="#CEE0E0"/>
<path d="M11.9136 70.5647H10.1484V72.3023H11.9136V70.5647Z" fill="#CEE0E0"/>
<path d="M11.9136 68.8308H10.1484V70.5647H11.9136V68.8308Z" fill="#CEE0E0"/>
<path d="M11.9136 67.1007H10.1484V68.8346H11.9136V67.1007Z" fill="#F2F2F2"/>
<path d="M11.9136 65.3669H10.1484V67.1007H11.9136V65.3669Z" fill="#F2F2F2"/>
<path d="M11.9136 63.6331H10.1484V65.3669H11.9136V63.6331Z" fill="#F2F2F2"/>
<path d="M11.9136 61.8993H10.1484V63.6368H11.9136V61.8993Z" fill="#CEE0E0"/>
<path d="M11.9136 60.1654H10.1484V61.8992H11.9136V60.1654Z" fill="#F2F2F2"/>
<path d="M11.9136 58.4316H10.1484V60.1654H11.9136V58.4316Z" fill="#F2F2F2"/>
<path d="M11.9136 56.7015H10.1484V58.4354H11.9136V56.7015Z" fill="#F2F2F2"/>
<path d="M11.9136 54.9677H10.1484V56.7015H11.9136V54.9677Z" fill="#F2F2F2"/>
<path d="M10.1481 74.0323H8.38293V75.7662H10.1481V74.0323Z" fill="#CEE0E0"/>
<path d="M10.1481 72.3022H8.38293V74.0361H10.1481V72.3022Z" fill="#CEE0E0"/>
<path d="M10.1481 70.5647H8.38293V72.3023H10.1481V70.5647Z" fill="#CEE0E0"/>
<path d="M10.1481 68.8308H8.38293V70.5647H10.1481V68.8308Z" fill="#F2F2F2"/>
<path d="M10.1481 67.1007H8.38293V68.8346H10.1481V67.1007Z" fill="#F2F2F2"/>
<path d="M10.1481 65.3669H8.38293V67.1007H10.1481V65.3669Z" fill="#F2F2F2"/>
<path d="M10.1481 63.6331H8.38293V65.3669H10.1481V63.6331Z" fill="#F2F2F2"/>
<path d="M10.1481 61.8993H8.38293V63.6368H10.1481V61.8993Z" fill="#F2F2F2"/>
<path d="M10.1481 60.1654H8.38293V61.8992H10.1481V60.1654Z" fill="#F2F2F2"/>
<path d="M10.1481 58.4316H8.38293V60.1654H10.1481V58.4316Z" fill="#F2F2F2"/>
<path d="M10.1481 56.7015H8.38293V58.4354H10.1481V56.7015Z" fill="#F2F2F2"/>
<path d="M10.1481 54.9677H8.38293V56.7015H10.1481V54.9677Z" fill="white"/>
<path d="M8.38259 74.0323H6.61743V75.7662H8.38259V74.0323Z" fill="#CEE0E0"/>
<path d="M8.38259 72.3022H6.61743V74.0361H8.38259V72.3022Z" fill="#CEE0E0"/>
<path d="M8.38259 70.5647H6.61743V72.3023H8.38259V70.5647Z" fill="#CEE0E0"/>
<path d="M8.38259 68.8308H6.61743V70.5647H8.38259V68.8308Z" fill="#F2F2F2"/>
<path d="M8.38259 67.1007H6.61743V68.8346H8.38259V67.1007Z" fill="#F2F2F2"/>
<path d="M8.38259 65.3669H6.61743V67.1007H8.38259V65.3669Z" fill="#F2F2F2"/>
<path d="M8.38259 63.6331H6.61743V65.3669H8.38259V63.6331Z" fill="#F2F2F2"/>
<path d="M8.38259 61.8993H6.61743V63.6368H8.38259V61.8993Z" fill="#F2F2F2"/>
<path d="M8.38259 60.1654H6.61743V61.8992H8.38259V60.1654Z" fill="#F2F2F2"/>
<path d="M8.38259 58.4316H6.61743V60.1654H8.38259V58.4316Z" fill="#F2F2F2"/>
<path d="M8.38259 56.7015H6.61743V58.4354H8.38259V56.7015Z" fill="white"/>
<path d="M6.62092 74.0323H4.85193V75.7662H6.62092V74.0323Z" fill="#CEE0E0"/>
<path d="M6.62092 72.3022H4.85193V74.0361H6.62092V72.3022Z" fill="#CEE0E0"/>
<path d="M6.62092 70.5647H4.85193V72.3023H6.62092V70.5647Z" fill="#CEE0E0"/>
<path d="M6.62092 68.8308H4.85193V70.5647H6.62092V68.8308Z" fill="#F2F2F2"/>
<path d="M6.62092 67.1007H4.85193V68.8346H6.62092V67.1007Z" fill="#F2F2F2"/>
<path d="M6.62092 65.3669H4.85193V67.1007H6.62092V65.3669Z" fill="#F2F2F2"/>
<path d="M6.62092 63.6331H4.85193V65.3669H6.62092V63.6331Z" fill="#F2F2F2"/>
<path d="M6.62092 61.8993H4.85193V63.6368H6.62092V61.8993Z" fill="#F2F2F2"/>
<path d="M6.62092 60.1654H4.85193V61.8992H6.62092V60.1654Z" fill="#F2F2F2"/>
<path d="M6.62092 58.4316H4.85193V60.1654H6.62092V58.4316Z" fill="white"/>
<path d="M4.85293 74.0323H3.08777V75.7662H4.85293V74.0323Z" fill="#CEE0E0"/>
<path d="M4.85293 72.3022H3.08777V74.0361H4.85293V72.3022Z" fill="#CEE0E0"/>
<path d="M4.85293 70.5647H3.08777V72.3023H4.85293V70.5647Z" fill="#CEE0E0"/>
<path d="M4.85293 68.8308H3.08777V70.5647H4.85293V68.8308Z" fill="#F2F2F2"/>
<path d="M4.85293 67.1007H3.08777V68.8346H4.85293V67.1007Z" fill="#F2F2F2"/>
<path d="M4.85293 65.3669H3.08777V67.1007H4.85293V65.3669Z" fill="#F2F2F2"/>
<path d="M4.85293 63.6331H3.08777V65.3669H4.85293V63.6331Z" fill="#CEE0E0"/>
<path d="M4.85293 61.8993H3.08777V63.6368H4.85293V61.8993Z" fill="#CEE0E0"/>
<path d="M4.85293 60.1654H3.08777V61.8992H4.85293V60.1654Z" fill="#F2F2F2"/>
<path d="M4.85293 58.4316H3.08777V60.1654H4.85293V58.4316Z" fill="white"/>
<path d="M3.08744 72.3022H1.32227V74.0361H3.08744V72.3022Z" fill="#CEE0E0"/>
<path d="M3.08744 70.5647H1.32227V72.3023H3.08744V70.5647Z" fill="#CEE0E0"/>
<path d="M3.08744 68.8308H1.32227V70.5647H3.08744V68.8308Z" fill="#F2F2F2"/>
<path d="M3.08744 67.1007H1.32227V68.8346H3.08744V67.1007Z" fill="#F2F2F2"/>
<path d="M3.08744 65.3669H1.32227V67.1007H3.08744V65.3669Z" fill="#CEE0E0"/>
<path d="M3.08744 63.6331H1.32227V65.3669H3.08744V63.6331Z" fill="#CEE0E0"/>
<path d="M3.08744 61.8993H1.32227V63.6368H3.08744V61.8993Z" fill="#F2F2F2"/>
<path d="M3.08744 60.1654H1.32227V61.8992H3.08744V60.1654Z" fill="#F2F2F2"/>
<path d="M3.08744 58.4316H1.32227V60.1654H3.08744V58.4316Z" fill="white"/>
<path d="M3.08744 56.7015H1.32227V58.4354H3.08744V56.7015Z" fill="white"/>
<path d="M1.32607 74.0323H-0.439087V75.7662H1.32607V74.0323Z" fill="#CEE0E0"/>
<path d="M1.32607 72.3022H-0.439087V74.0361H1.32607V72.3022Z" fill="#CEE0E0"/>
<path d="M1.32607 70.5647H-0.439087V72.3023H1.32607V70.5647Z" fill="#CEE0E0"/>
<path d="M1.32607 68.8308H-0.439087V70.5647H1.32607V68.8308Z" fill="#F2F2F2"/>
<path d="M1.32607 67.1007H-0.439087V68.8346H1.32607V67.1007Z" fill="#F2F2F2"/>
<path d="M1.32607 65.3669H-0.439087V67.1007H1.32607V65.3669Z" fill="#CEE0E0"/>
<path d="M1.32607 63.6331H-0.439087V65.3669H1.32607V63.6331Z" fill="#F2F2F2"/>
<path d="M1.32607 61.8993H-0.439087V63.6368H1.32607V61.8993Z" fill="#F2F2F2"/>
<path d="M1.32607 60.1654H-0.439087V61.8992H1.32607V60.1654Z" fill="#F2F2F2"/>
<path d="M1.32607 58.4316H-0.439087V60.1654H1.32607V58.4316Z" fill="#F2F2F2"/>
<path d="M1.32607 56.7015H-0.439087V58.4354H1.32607V56.7015Z" fill="white"/>
<path d="M359.058 66.4791H357.746V67.7994H359.058V66.4791Z" fill="white"/>
<path d="M364.301 63.8384H362.99V65.1616H364.301V63.8384Z" fill="white"/>
<path d="M362.989 63.8384H361.678V65.1616H362.989V63.8384Z" fill="white"/>
<path d="M366.926 62.5181H365.612V63.8384H366.926V62.5181Z" fill="white"/>
<path d="M370.857 63.8384H369.546V65.1616H370.857V63.8384Z" fill="white"/>
<path d="M357.746 67.7994H356.434V69.1198H357.746V67.7994Z" fill="white"/>
<path d="M374.792 75.7186H373.48V77.039H374.792V75.7186Z" fill="#CEE0E0"/>
<path d="M374.792 74.3983H373.48V75.7186H374.792V74.3983Z" fill="#CEE0E0"/>
<path d="M374.792 73.0779H373.48V74.3983H374.792V73.0779Z" fill="#F2F2F2"/>
<path d="M374.792 71.7605H373.48V73.0808H374.792V71.7605Z" fill="#F2F2F2"/>
<path d="M374.792 70.4373H373.48V71.7605H374.792V70.4373Z" fill="#F2F2F2"/>
<path d="M374.792 69.1169H373.48V70.4373H374.792V69.1169Z" fill="#F2F2F2"/>
<path d="M374.792 67.7994H373.48V69.1198H374.792V67.7994Z" fill="#F2F2F2"/>
<path d="M374.792 66.4791H373.48V67.7994H374.792V66.4791Z" fill="#F2F2F2"/>
<path d="M374.792 65.1587H373.48V66.4791H374.792V65.1587Z" fill="#F2F2F2"/>
<path d="M374.792 63.8384H373.48V65.1616H374.792V63.8384Z" fill="#F2F2F2"/>
<path d="M374.792 62.5181H373.48V63.8384H374.792V62.5181Z" fill="#F2F2F2"/>
<path d="M374.792 61.1977H373.48V62.5181H374.792V61.1977Z" fill="white"/>
<path d="M373.479 77.039H372.165V78.3593H373.479V77.039Z" fill="#CEE0E0"/>
<path d="M373.479 75.7186H372.165V77.039H373.479V75.7186Z" fill="#CEE0E0"/>
<path d="M373.479 74.3983H372.165V75.7186H373.479V74.3983Z" fill="#CEE0E0"/>
<path d="M373.479 73.0779H372.165V74.3983H373.479V73.0779Z" fill="#F2F2F2"/>
<path d="M373.479 71.7605H372.165V73.0808H373.479V71.7605Z" fill="#F2F2F2"/>
<path d="M373.479 70.4373H372.165V71.7605H373.479V70.4373Z" fill="#F2F2F2"/>
<path d="M373.479 69.1169H372.165V70.4373H373.479V69.1169Z" fill="#CEE0E0"/>
<path d="M373.479 67.7994H372.165V69.1198H373.479V67.7994Z" fill="#F2F2F2"/>
<path d="M373.479 66.4791H372.165V67.7994H373.479V66.4791Z" fill="#F2F2F2"/>
<path d="M373.479 65.1587H372.165V66.4791H373.479V65.1587Z" fill="#F2F2F2"/>
<path d="M373.479 63.8384H372.165V65.1616H373.479V63.8384Z" fill="#F2F2F2"/>
<path d="M373.479 62.5181H372.165V63.8384H373.479V62.5181Z" fill="white"/>
<path d="M373.479 61.1977H372.165V62.5181H373.479V61.1977Z" fill="white"/>
<path d="M372.17 77.039H370.858V78.3593H372.17V77.039Z" fill="#CEE0E0"/>
<path d="M372.17 75.7186H370.858V77.039H372.17V75.7186Z" fill="#CEE0E0"/>
<path d="M372.17 74.3983H370.858V75.7186H372.17V74.3983Z" fill="#CEE0E0"/>
<path d="M372.17 73.0779H370.858V74.3983H372.17V73.0779Z" fill="#CEE0E0"/>
<path d="M372.17 71.7605H370.858V73.0808H372.17V71.7605Z" fill="#F2F2F2"/>
<path d="M372.17 70.4373H370.858V71.7605H372.17V70.4373Z" fill="#F2F2F2"/>
<path d="M372.17 69.1169H370.858V70.4373H372.17V69.1169Z" fill="#CEE0E0"/>
<path d="M372.17 67.7994H370.858V69.1198H372.17V67.7994Z" fill="#F2F2F2"/>
<path d="M372.17 66.4791H370.858V67.7994H372.17V66.4791Z" fill="#F2F2F2"/>
<path d="M372.17 65.1587H370.858V66.4791H372.17V65.1587Z" fill="white"/>
<path d="M372.17 63.8384H370.858V65.1616H372.17V63.8384Z" fill="white"/>
<path d="M372.17 62.5181H370.858V63.8384H372.17V62.5181Z" fill="white"/>
<path d="M370.857 77.039H369.546V78.3593H370.857V77.039Z" fill="#CEE0E0"/>
<path d="M370.857 75.7186H369.546V77.039H370.857V75.7186Z" fill="#CEE0E0"/>
<path d="M370.857 74.3983H369.546V75.7186H370.857V74.3983Z" fill="#CEE0E0"/>
<path d="M370.857 73.0779H369.546V74.3983H370.857V73.0779Z" fill="#CEE0E0"/>
<path d="M370.857 71.7605H369.546V73.0808H370.857V71.7605Z" fill="#CEE0E0"/>
<path d="M370.857 70.4373H369.546V71.7605H370.857V70.4373Z" fill="#CEE0E0"/>
<path d="M370.857 69.1169H369.546V70.4373H370.857V69.1169Z" fill="#CEE0E0"/>
<path d="M370.857 67.7994H369.546V69.1198H370.857V67.7994Z" fill="#F2F2F2"/>
<path d="M370.857 66.4791H369.546V67.7994H370.857V66.4791Z" fill="white"/>
<path d="M370.857 65.1587H369.546V66.4791H370.857V65.1587Z" fill="white"/>
<path d="M369.545 77.039H368.234V78.3593H369.545V77.039Z" fill="#CEE0E0"/>
<path d="M369.545 75.7186H368.234V77.039H369.545V75.7186Z" fill="#CEE0E0"/>
<path d="M369.545 74.3983H368.234V75.7186H369.545V74.3983Z" fill="#CEE0E0"/>
<path d="M369.545 73.0779H368.234V74.3983H369.545V73.0779Z" fill="#CEE0E0"/>
<path d="M369.545 71.7605H368.234V73.0808H369.545V71.7605Z" fill="#CEE0E0"/>
<path d="M369.545 70.4373H368.234V71.7605H369.545V70.4373Z" fill="#F2F2F2"/>
<path d="M369.545 69.1169H368.234V70.4373H369.545V69.1169Z" fill="#CEE0E0"/>
<path d="M369.545 67.7994H368.234V69.1198H369.545V67.7994Z" fill="#F2F2F2"/>
<path d="M369.545 66.4791H368.234V67.7994H369.545V66.4791Z" fill="white"/>
<path d="M369.545 65.1587H368.234V66.4791H369.545V65.1587Z" fill="#F2F2F2"/>
<path d="M369.545 63.8384H368.234V65.1616H369.545V63.8384Z" fill="white"/>
<path d="M368.238 77.039H366.927V78.3593H368.238V77.039Z" fill="#CEE0E0"/>
<path d="M368.238 75.7186H366.927V77.039H368.238V75.7186Z" fill="#CEE0E0"/>
<path d="M368.238 74.3983H366.927V75.7186H368.238V74.3983Z" fill="#CEE0E0"/>
<path d="M368.238 73.0779H366.927V74.3983H368.238V73.0779Z" fill="#CEE0E0"/>
<path d="M368.238 71.7605H366.927V73.0808H368.238V71.7605Z" fill="#F2F2F2"/>
<path d="M368.238 70.4373H366.927V71.7605H368.238V70.4373Z" fill="#F2F2F2"/>
<path d="M368.238 69.1169H366.927V70.4373H368.238V69.1169Z" fill="#F2F2F2"/>
<path d="M368.238 67.7994H366.927V69.1198H368.238V67.7994Z" fill="#F2F2F2"/>
<path d="M368.238 66.4791H366.927V67.7994H368.238V66.4791Z" fill="white"/>
<path d="M368.238 65.1587H366.927V66.4791H368.238V65.1587Z" fill="#F2F2F2"/>
<path d="M368.238 63.8384H366.927V65.1616H368.238V63.8384Z" fill="white"/>
<path d="M366.926 77.039H365.612V78.3593H366.926V77.039Z" fill="#CEE0E0"/>
<path d="M366.926 75.7186H365.612V77.039H366.926V75.7186Z" fill="#CEE0E0"/>
<path d="M366.926 74.3983H365.612V75.7186H366.926V74.3983Z" fill="#CEE0E0"/>
<path d="M366.926 73.0779H365.612V74.3983H366.926V73.0779Z" fill="#CEE0E0"/>
<path d="M366.926 71.7605H365.612V73.0808H366.926V71.7605Z" fill="#F2F2F2"/>
<path d="M366.926 70.4373H365.612V71.7605H366.926V70.4373Z" fill="#F2F2F2"/>
<path d="M366.926 69.1169H365.612V70.4373H366.926V69.1169Z" fill="#F2F2F2"/>
<path d="M366.926 67.7994H365.612V69.1198H366.926V67.7994Z" fill="#F2F2F2"/>
<path d="M366.926 66.4791H365.612V67.7994H366.926V66.4791Z" fill="#F2F2F2"/>
<path d="M366.926 65.1587H365.612V66.4791H366.926V65.1587Z" fill="#F2F2F2"/>
<path d="M366.926 63.8384H365.612V65.1616H366.926V63.8384Z" fill="white"/>
<path d="M365.611 77.039H364.3V78.3593H365.611V77.039Z" fill="#CEE0E0"/>
<path d="M365.611 75.7186H364.3V77.039H365.611V75.7186Z" fill="#CEE0E0"/>
<path d="M365.611 74.3983H364.3V75.7186H365.611V74.3983Z" fill="#CEE0E0"/>
<path d="M365.611 73.0779H364.3V74.3983H365.611V73.0779Z" fill="#CEE0E0"/>
<path d="M365.611 71.7605H364.3V73.0808H365.611V71.7605Z" fill="#F2F2F2"/>
<path d="M365.611 70.4373H364.3V71.7605H365.611V70.4373Z" fill="#CEE0E0"/>
<path d="M365.611 69.1169H364.3V70.4373H365.611V69.1169Z" fill="#F2F2F2"/>
<path d="M365.611 67.7994H364.3V69.1198H365.611V67.7994Z" fill="#F2F2F2"/>
<path d="M365.611 66.4791H364.3V67.7994H365.611V66.4791Z" fill="#F2F2F2"/>
<path d="M365.611 65.1587H364.3V66.4791H365.611V65.1587Z" fill="#F2F2F2"/>
<path d="M365.611 63.8384H364.3V65.1616H365.611V63.8384Z" fill="white"/>
<path d="M364.301 75.7186H362.99V77.039H364.301V75.7186Z" fill="#CEE0E0"/>
<path d="M364.301 74.3983H362.99V75.7186H364.301V74.3983Z" fill="#CEE0E0"/>
<path d="M364.301 73.0779H362.99V74.3983H364.301V73.0779Z" fill="#CEE0E0"/>
<path d="M364.301 71.7605H362.99V73.0808H364.301V71.7605Z" fill="#F2F2F2"/>
<path d="M364.301 70.4373H362.99V71.7605H364.301V70.4373Z" fill="#CEE0E0"/>
<path d="M364.301 69.1169H362.99V70.4373H364.301V69.1169Z" fill="#F2F2F2"/>
<path d="M364.301 67.7994H362.99V69.1198H364.301V67.7994Z" fill="#F2F2F2"/>
<path d="M364.301 66.4791H362.99V67.7994H364.301V66.4791Z" fill="#F2F2F2"/>
<path d="M364.301 65.1587H362.99V66.4791H364.301V65.1587Z" fill="#F2F2F2"/>
<path d="M362.989 74.3983H361.678V75.7186H362.989V74.3983Z" fill="#CEE0E0"/>
<path d="M362.989 73.0779H361.678V74.3983H362.989V73.0779Z" fill="#CEE0E0"/>
<path d="M362.989 71.7605H361.678V73.0808H362.989V71.7605Z" fill="#CEE0E0"/>
<path d="M362.989 70.4373H361.678V71.7605H362.989V70.4373Z" fill="#CEE0E0"/>
<path d="M362.989 69.1169H361.678V70.4373H362.989V69.1169Z" fill="#F2F2F2"/>
<path d="M362.989 67.7994H361.678V69.1198H362.989V67.7994Z" fill="#F2F2F2"/>
<path d="M362.989 66.4791H361.678V67.7994H362.989V66.4791Z" fill="#F2F2F2"/>
<path d="M362.989 65.1587H361.678V66.4791H362.989V65.1587Z" fill="white"/>
<path d="M361.68 74.3983H360.368V75.7186H361.68V74.3983Z" fill="#CEE0E0"/>
<path d="M361.68 73.0779H360.368V74.3983H361.68V73.0779Z" fill="#CEE0E0"/>
<path d="M361.68 71.7605H360.368V73.0808H361.68V71.7605Z" fill="#CEE0E0"/>
<path d="M361.68 70.4373H360.368V71.7605H361.68V70.4373Z" fill="#CEE0E0"/>
<path d="M361.68 69.1169H360.368V70.4373H361.68V69.1169Z" fill="#F2F2F2"/>
<path d="M361.68 67.7994H360.368V69.1198H361.68V67.7994Z" fill="#F2F2F2"/>
<path d="M361.68 66.4791H360.368V67.7994H361.68V66.4791Z" fill="white"/>
<path d="M361.68 65.1587H360.368V66.4791H361.68V65.1587Z" fill="white"/>
<path d="M360.37 75.7186H359.056V77.039H360.37V75.7186Z" fill="#CEE0E0"/>
<path d="M360.37 74.3983H359.056V75.7186H360.37V74.3983Z" fill="#CEE0E0"/>
<path d="M360.37 73.0779H359.056V74.3983H360.37V73.0779Z" fill="#CEE0E0"/>
<path d="M360.37 71.7605H359.056V73.0808H360.37V71.7605Z" fill="#F2F2F2"/>
<path d="M360.37 70.4373H359.056V71.7605H360.37V70.4373Z" fill="#CEE0E0"/>
<path d="M360.37 69.1169H359.056V70.4373H360.37V69.1169Z" fill="#F2F2F2"/>
<path d="M360.37 67.7994H359.056V69.1198H360.37V67.7994Z" fill="#F2F2F2"/>
<path d="M360.37 66.4791H359.056V67.7994H360.37V66.4791Z" fill="white"/>
<path d="M359.058 75.7186H357.746V77.039H359.058V75.7186Z" fill="#CEE0E0"/>
<path d="M359.058 74.3983H357.746V75.7186H359.058V74.3983Z" fill="#CEE0E0"/>
<path d="M359.058 73.0779H357.746V74.3983H359.058V73.0779Z" fill="#F2F2F2"/>
<path d="M359.058 71.7605H357.746V73.0808H359.058V71.7605Z" fill="#F2F2F2"/>
<path d="M359.058 70.4373H357.746V71.7605H359.058V70.4373Z" fill="#F2F2F2"/>
<path d="M359.058 69.1169H357.746V70.4373H359.058V69.1169Z" fill="#F2F2F2"/>
<path d="M359.058 67.7994H357.746V69.1198H359.058V67.7994Z" fill="white"/>
<path d="M357.746 75.7186H356.434V77.039H357.746V75.7186Z" fill="#CEE0E0"/>
<path d="M357.746 74.3983H356.434V75.7186H357.746V74.3983Z" fill="#CEE0E0"/>
<path d="M357.746 73.0779H356.434V74.3983H357.746V73.0779Z" fill="#F2F2F2"/>
<path d="M357.746 71.7605H356.434V73.0808H357.746V71.7605Z" fill="#F2F2F2"/>
<path d="M357.746 70.4373H356.434V71.7605H357.746V70.4373Z" fill="#F2F2F2"/>
<path d="M357.746 69.1169H356.434V70.4373H357.746V69.1169Z" fill="white"/>
<path d="M356.433 75.7186H355.122V77.039H356.433V75.7186Z" fill="#CEE0E0"/>
<path d="M356.433 74.3983H355.122V75.7186H356.433V74.3983Z" fill="#CEE0E0"/>
<path d="M356.433 73.0779H355.122V74.3983H356.433V73.0779Z" fill="#F2F2F2"/>
<path d="M356.433 71.7605H355.122V73.0808H356.433V71.7605Z" fill="#F2F2F2"/>
<path d="M356.433 70.4373H355.122V71.7605H356.433V70.4373Z" fill="#F2F2F2"/>
<path d="M356.433 69.1169H355.122V70.4373H356.433V69.1169Z" fill="white"/>
<path d="M355.127 74.3983H353.815V75.7186H355.127V74.3983Z" fill="#CEE0E0"/>
<path d="M355.127 73.0779H353.815V74.3983H355.127V73.0779Z" fill="#CEE0E0"/>
<path d="M355.127 71.7605H353.815V73.0808H355.127V71.7605Z" fill="#F2F2F2"/>
<path d="M355.127 70.4373H353.815V71.7605H355.127V70.4373Z" fill="#F2F2F2"/>
<path d="M355.127 69.1169H353.815V70.4373H355.127V69.1169Z" fill="#F2F2F2"/>
<path d="M353.814 73.0779H352.5V74.3983H353.814V73.0779Z" fill="#CEE0E0"/>
<path d="M353.814 71.7605H352.5V73.0808H353.814V71.7605Z" fill="#CEE0E0"/>
<path d="M353.814 70.4373H352.5V71.7605H353.814V70.4373Z" fill="#F2F2F2"/>
</g>
<defs>
<clipPath id="clip0_1_439">
<rect width="374" height="129" fill="white"/>
</clipPath>
</defs>
</svg>
