<svg width="34" height="34" viewBox="0 0 34 34" fill="none" xmlns="http://www.w3.org/2000/svg">
<path d="M32.4002 17.0909H30.0339V19.5306H32.4002V17.0909Z" fill="#FF9100"/>
<path d="M32.4002 14.647V17.0911H30.0339V14.647H32.3874H32.4002Z" fill="#FF9100"/>
<path d="M32.3882 12.207V14.6467H30.0346H30.0219V12.207H32.3882Z" fill="#FF9100"/>
<path d="M30.034 21.971H27.6677V24.4151H30.034V21.971Z" fill="#FF9100"/>
<path d="M30.034 19.5305H27.6677V21.9702H30.034V19.5305Z" fill="#FF9100"/>
<path d="M30.034 17.0909H27.6677V19.5306H30.034V17.0909Z" fill="#FFCE00"/>
<path d="M30.034 14.647V17.0911H27.6677V14.647H30.0213H30.034Z" fill="#FFCE00"/>
<path d="M30.0222 12.207V14.6467H27.6687H27.6517V12.207H30.0222Z" fill="#FFCE00"/>
<path d="M30.0222 9.76309H27.6517V12.2072H30.0222V9.76309Z" fill="#FF9100"/>
<path d="M30.0222 7.32396H27.6517V9.76368H30.0222V7.32396Z" fill="#FF9100"/>
<path d="M27.6681 24.4149H25.2975V26.8546H27.6681V24.4149Z" fill="#FF9100"/>
<path d="M27.6681 21.971H25.2975V24.4151H27.6681V21.971Z" fill="#FFCE00"/>
<path d="M27.6681 19.5305H25.2975V21.9702H27.6681V19.5305Z" fill="#FFCE00"/>
<path d="M27.6681 17.0909H25.2975V19.5306H27.6681V17.0909Z" fill="#FFCE00"/>
<path d="M27.6681 14.647V17.0911H25.2975V14.647H27.6511H27.6681Z" fill="#FFCE00"/>
<path d="M27.6518 12.207V14.6467H25.2983H25.2855V12.207H27.6518Z" fill="#FFCE00"/>
<path d="M27.6518 9.76309H25.2855V12.2072H27.6518V9.76309Z" fill="#FFCE00"/>
<path d="M27.6518 7.32396H25.2855V9.76368H27.6518V7.32396Z" fill="#FFCE00"/>
<path d="M27.6518 4.87964H25.2855V7.32373H27.6518V4.87964Z" fill="#FF9100"/>
<path d="M25.2977 26.854H22.9314V29.2981H25.2977V26.854Z" fill="#FF9100"/>
<path d="M25.2977 24.4149H22.9314V26.8546H25.2977V24.4149Z" fill="#EF9F00"/>
<path d="M25.2977 21.971H22.9314V24.4151H25.2977V21.971Z" fill="#EF9F00"/>
<path d="M25.2977 19.5305H22.9314V21.9702H25.2977V19.5305Z" fill="#EF9F00"/>
<path d="M25.2977 17.0909H22.9314V19.5306H25.2977V17.0909Z" fill="#FFCE00"/>
<path d="M25.2977 14.647V17.0911H22.9314V14.647H25.285H25.2977Z" fill="#FFCE00"/>
<path d="M25.2857 12.207V14.6467H22.9321H22.9194V12.207H25.2857Z" fill="#FFCE00"/>
<path d="M25.2857 9.76309H22.9194V12.2072H25.2857V9.76309Z" fill="#EF9F00"/>
<path d="M25.2857 7.32396H22.9194V9.76368H25.2857V7.32396Z" fill="#EF9F00"/>
<path d="M25.2857 4.87964H22.9194V7.32373H25.2857V4.87964Z" fill="#EF9F00"/>
<path d="M25.2857 2.43959H22.9194V4.87931H25.2857V2.43959Z" fill="#FF9100"/>
<path d="M22.9318 26.854H20.5612V29.2981H22.9318V26.854Z" fill="#FF9100"/>
<path d="M22.9318 24.4149H20.5612V26.8546H22.9318V24.4149Z" fill="#FFDE52"/>
<path d="M22.9318 21.971H20.5612V24.4151H22.9318V21.971Z" fill="#FFDE52"/>
<path d="M22.9318 19.5305H20.5612V21.9702H22.9318V19.5305Z" fill="#EF9F00"/>
<path d="M22.9318 17.0909H20.5612V19.5306H22.9318V17.0909Z" fill="#EF9F00"/>
<path d="M22.9318 14.647V17.0911H20.5612V14.647H22.919H22.9318Z" fill="#EF9F00"/>
<path d="M22.9197 12.207V14.6467H20.5619H20.5492V12.207H22.9197Z" fill="#EF9F00"/>
<path d="M22.9197 9.76309H20.5492V12.2072H22.9197V9.76309Z" fill="#EF9F00"/>
<path d="M22.9197 7.32396H20.5492V9.76368H22.9197V7.32396Z" fill="#FFDE52"/>
<path d="M22.9197 4.87964H20.5492V7.32373H22.9197V4.87964Z" fill="white"/>
<path d="M22.9197 2.43959H20.5492V4.87931H22.9197V2.43959Z" fill="#FF9100"/>
<path d="M20.5614 29.2936H18.1951V31.7333H20.5614V29.2936Z" fill="#FF9100"/>
<path d="M20.5614 26.854H18.1951V29.2981H20.5614V26.854Z" fill="#EF9F00"/>
<path d="M20.5614 24.4149H18.1951V26.8546H20.5614V24.4149Z" fill="#FFDE52"/>
<path d="M20.5614 21.971H18.1951V24.4151H20.5614V21.971Z" fill="#FFDE52"/>
<path d="M20.5614 19.5305H18.1951V21.9702H20.5614V19.5305Z" fill="#FFDE52"/>
<path d="M20.5614 17.0909H18.1951V19.5306H20.5614V17.0909Z" fill="#FFDE52"/>
<path d="M20.5614 14.647V17.0911H18.1951V14.647H20.5486H20.5614Z" fill="#FFDE52"/>
<path d="M20.5494 12.207V14.6467H18.1958H18.1873H18.183V12.207H20.5494Z" fill="#FFDE52"/>
<path d="M20.5494 9.76309H18.183V12.2072H20.5494V9.76309Z" fill="#FFDE52"/>
<path d="M20.5494 7.32396H18.183V9.76368H20.5494V7.32396Z" fill="#FFDE52"/>
<path d="M20.5494 4.87964H18.183V7.32373H20.5494V4.87964Z" fill="white"/>
<path d="M20.5494 2.43959H18.183V4.87931H20.5494V2.43959Z" fill="#EF9F00"/>
<path d="M20.5494 0H18.183V2.43972H20.5494V0Z" fill="#FF9100"/>
<path d="M18.1872 29.2936H15.8209V31.7333H18.1872V29.2936Z" fill="#FF9100"/>
<path d="M18.1872 26.854H15.8209V29.2981H18.1872V26.854Z" fill="#EF9F00"/>
<path d="M18.1872 24.4149H15.8209V26.8546H18.1872V24.4149Z" fill="#FFDE52"/>
<path d="M18.1872 21.971H15.8209V24.4151H18.1872V21.971Z" fill="#FFDE52"/>
<path d="M18.1872 19.5305H15.8209V21.9702H18.1872V19.5305Z" fill="#FFDE52"/>
<path d="M18.1872 17.0909H15.8209V19.5306H18.1872V17.0909Z" fill="#FFDE52"/>
<path d="M18.1872 14.647V17.0911H15.8209V14.647H18.1787H18.183H18.1872Z" fill="#FFDE52"/>
<path d="M18.1792 12.207V14.6467H15.8214H15.8129V12.207H18.1792Z" fill="#FFDE52"/>
<path d="M18.1792 9.76309H15.8129V12.2072H18.1792V9.76309Z" fill="#FFDE52"/>
<path d="M18.1792 7.32396H15.8129V9.76368H18.1792V7.32396Z" fill="#FFDE52"/>
<path d="M18.1792 4.87964H15.8129V7.32373H18.1792V4.87964Z" fill="white"/>
<path d="M18.1792 2.43959H15.8129V4.87931H18.1792V2.43959Z" fill="#EF9F00"/>
<path d="M18.1792 0H15.8129V2.43972H18.1792V0Z" fill="#FF9100"/>
<path d="M15.8211 29.2936H13.4548V31.7333H15.8211V29.2936Z" fill="#FF9100"/>
<path d="M15.8211 26.854H13.4548V29.2981H15.8211V26.854Z" fill="#EF9F00"/>
<path d="M15.8211 24.4149H13.4548V26.8546H15.8211V24.4149Z" fill="#FFDE52"/>
<path d="M15.8211 21.971H13.4548V24.4151H15.8211V21.971Z" fill="white"/>
<path d="M15.8211 19.5305H13.4548V21.9702H15.8211V19.5305Z" fill="white"/>
<path d="M15.8211 17.0909H13.4548V19.5306H15.8211V17.0909Z" fill="white"/>
<path d="M15.8211 14.647V17.0911H13.4548V14.647H15.8126H15.8211Z" fill="white"/>
<path d="M15.8133 12.207V14.6467H13.4555H13.4427V12.207H15.8133Z" fill="white"/>
<path d="M15.8133 9.76309H13.4427V12.2072H15.8133V9.76309Z" fill="#FFDE52"/>
<path d="M15.8133 7.32396H13.4427V9.76368H15.8133V7.32396Z" fill="#FFDE52"/>
<path d="M15.8133 4.87964H13.4427V7.32373H15.8133V4.87964Z" fill="white"/>
<path d="M15.8133 2.43959H13.4427V4.87931H15.8133V2.43959Z" fill="#EF9F00"/>
<path d="M15.8133 0H13.4427V2.43972H15.8133V0Z" fill="#FF9100"/>
<path d="M13.4592 26.854H11.0886V29.2981H13.4592V26.854Z" fill="#FF9100"/>
<path d="M13.4592 24.4149H11.0886V26.8546H13.4592V24.4149Z" fill="white"/>
<path d="M13.4592 21.971H11.0886V24.4151H13.4592V21.971Z" fill="white"/>
<path d="M13.4592 19.5305H11.0886V21.9702H13.4592V19.5305Z" fill="#EF9F00"/>
<path d="M13.4592 17.0909H11.0886V19.5306H13.4592V17.0909Z" fill="#EF9F00"/>
<path d="M13.4549 14.647V17.0911H11.0886V14.647H13.4422H13.4549Z" fill="#EF9F00"/>
<path d="M13.4389 12.207V14.6467H11.0853H11.0726V12.207H13.4389Z" fill="#EF9F00"/>
<path d="M13.4389 9.76309H11.0726V12.2072H13.4389V9.76309Z" fill="#EF9F00"/>
<path d="M13.4389 7.32396H11.0726V9.76368H13.4389V7.32396Z" fill="white"/>
<path d="M13.4389 4.87964H11.0726V7.32373H13.4389V4.87964Z" fill="white"/>
<path d="M13.4389 2.43959H11.0726V4.87931H13.4389V2.43959Z" fill="#FF9100"/>
<path d="M11.0808 26.854H8.71448V29.2981H11.0808V26.854Z" fill="#FF9100"/>
<path d="M11.0808 24.4149H8.71448V26.8546H11.0808V24.4149Z" fill="#EF9F00"/>
<path d="M11.0808 21.971H8.71448V24.4151H11.0808V21.971Z" fill="#EF9F00"/>
<path d="M11.0808 19.5305H8.71448V21.9702H11.0808V19.5305Z" fill="#EF9F00"/>
<path d="M11.0808 17.0909H8.71448V19.5306H11.0808V17.0909Z" fill="#FFCE00"/>
<path d="M11.085 14.647V17.0911H8.71448V14.647H11.0723H11.085Z" fill="#FFCE00"/>
<path d="M11.0729 12.207V14.6467H8.71514H8.70239V12.207H11.0729Z" fill="#FFCE00"/>
<path d="M11.0729 9.76309H8.70239V12.2072H11.0729V9.76309Z" fill="#EF9F00"/>
<path d="M11.0729 7.32396H8.70239V9.76368H11.0729V7.32396Z" fill="#EF9F00"/>
<path d="M11.0729 4.87964H8.70239V7.32373H11.0729V4.87964Z" fill="#EF9F00"/>
<path d="M11.0729 2.43959H8.70239V4.87931H11.0729V2.43959Z" fill="#FF9100"/>
<path d="M8.71882 24.4149H6.34827V26.8546H8.71882V24.4149Z" fill="#FF9100"/>
<path d="M8.71882 21.971H6.34827V24.4151H8.71882V21.971Z" fill="#FFCE00"/>
<path d="M8.71882 19.5305H6.34827V21.9702H8.71882V19.5305Z" fill="#FFCE00"/>
<path d="M8.71882 17.0909H6.34827V19.5306H8.71882V17.0909Z" fill="#FFCE00"/>
<path d="M8.71457 14.647V17.0911H6.34827V14.647H8.70183H8.71457Z" fill="#FFCE00"/>
<path d="M8.70255 12.207V14.6467H6.34899H6.33624V12.207H8.70255Z" fill="#FFCE00"/>
<path d="M8.70255 9.76309H6.33624V12.2072H8.70255V9.76309Z" fill="#FFCE00"/>
<path d="M8.70255 7.32396H6.33624V9.76368H8.70255V7.32396Z" fill="#FFCE00"/>
<path d="M8.70255 4.87964H6.33624V7.32373H8.70255V4.87964Z" fill="#FF9100"/>
<path d="M6.34842 21.971H3.98212V24.4151H6.34842V21.971Z" fill="#FF9100"/>
<path d="M6.34842 19.5305H3.98212V21.9702H6.34842V19.5305Z" fill="#FF9100"/>
<path d="M6.34842 17.0909H3.98212V19.5306H6.34842V17.0909Z" fill="#FFCE00"/>
<path d="M6.34842 14.647V17.0911H3.98212V14.647H6.33568H6.34842Z" fill="#FFCE00"/>
<path d="M6.3364 12.207V14.6467H3.98284H3.97009V12.207H6.3364Z" fill="#FFCE00"/>
<path d="M6.3364 9.76309H3.97009V12.2072H6.3364V9.76309Z" fill="#FF9100"/>
<path d="M6.3364 7.32396H3.97009V9.76368H6.3364V7.32396Z" fill="#FF9100"/>
<path d="M3.98227 17.0909H1.61597V19.5306H3.98227V17.0909Z" fill="#FF9100"/>
<path d="M3.98652 14.647V17.0911H1.61597V14.647H3.97378H3.98652Z" fill="#FF9100"/>
<path d="M3.97053 12.207V14.6467H1.61272H1.59998V12.207H3.97053Z" fill="#FF9100"/>
</svg>
