<svg width="24" height="24" viewBox="0 0 24 24" fill="none" xmlns="http://www.w3.org/2000/svg">
<g clip-path="url(#clip0_17_6076)">
<path d="M8.83468 10.1913H7.93018V11.0958H8.83468V10.1913Z" fill="#313434"/>
<path d="M8.83468 11.0955H7.93018V12H8.83468V11.0955Z" fill="#313434"/>
<path d="M9.73922 9.2868H8.83472V10.1913H9.73922V9.2868Z" fill="#313434"/>
<path d="M9.73922 8.38229H8.83472V9.28679H9.73922V8.38229Z" fill="#313434"/>
<path d="M10.6434 7.47781H9.73889V8.38231H10.6434V7.47781Z" fill="#313434"/>
<path d="M10.6434 6.57361H9.73889V7.47811H10.6434V6.57361Z" fill="#313434"/>
<path d="M11.5479 5.6691H10.6434V6.5736H11.5479V5.6691Z" fill="#313434"/>
<path d="M13.3566 10.1913H12.4521V11.0958H13.3566V10.1913Z" fill="#313434"/>
<path d="M14.2611 9.2868H13.3566V10.1913H14.2611V9.2868Z" fill="#313434"/>
<path d="M15.1656 8.38229H14.2611V9.28679H15.1656V8.38229Z" fill="#313434"/>
<path d="M16.0701 7.47781H15.1656V8.38231H16.0701V7.47781Z" fill="#313434"/>
<path d="M16.9743 6.57361H16.0698V7.47811H16.9743V6.57361Z" fill="#313434"/>
<path d="M17.8788 5.6691H16.9743V6.5736H17.8788V5.6691Z" fill="#313434"/>
<path d="M17.8788 4.76459H16.9743V5.66909H17.8788V4.76459Z" fill="#313434"/>
<path d="M16.9743 4.76459H16.0698V5.66909H16.9743V4.76459Z" fill="#313434"/>
<path d="M16.0701 4.76459H15.1656V5.66909H16.0701V4.76459Z" fill="#313434"/>
<path d="M15.1656 4.76459H14.2611V5.66909H15.1656V4.76459Z" fill="#313434"/>
<path d="M14.2611 4.76459H13.3566V5.66909H14.2611V4.76459Z" fill="#313434"/>
<path d="M13.3566 4.76459H12.4521V5.66909H13.3566V4.76459Z" fill="#313434"/>
<path d="M12.4524 4.76459H11.5479V5.66909H12.4524V4.76459Z" fill="#313434"/>
<path d="M11.5479 4.76459H10.6434V5.66909H11.5479V4.76459Z" fill="#313434"/>
<path d="M9.73922 11.0955H8.83472V12H9.73922V11.0955Z" fill="#313434"/>
<path d="M10.6434 11.0955H9.73889V12H10.6434V11.0955Z" fill="#313434"/>
<path d="M11.5479 11.0955H10.6434V12H11.5479V11.0955Z" fill="#313434"/>
<path d="M14.2611 11.0955H13.3566V12H14.2611V11.0955Z" fill="#313434"/>
<path d="M15.1656 11.0955H14.2611V12H15.1656V11.0955Z" fill="#313434"/>
<path d="M16.0701 11.0955H15.1656V12H16.0701V11.0955Z" fill="#313434"/>
<path d="M11.5479 12H10.6434V12.9045H11.5479V12Z" fill="#313434"/>
<path d="M16.0701 12H15.1656V12.9045H16.0701V12Z" fill="#313434"/>
<path d="M10.6434 12.9045H9.73889V13.809H10.6434V12.9045Z" fill="#313434"/>
<path d="M15.1656 12.9045H14.2611V13.809H15.1656V12.9045Z" fill="#313434"/>
<path d="M10.6434 13.8087H9.73889V14.7132H10.6434V13.8087Z" fill="#313434"/>
<path d="M14.2611 13.8087H13.3566V14.7132H14.2611V13.8087Z" fill="#313434"/>
<path d="M9.73922 14.7132H8.83472V15.6177H9.73922V14.7132Z" fill="#313434"/>
<path d="M13.3566 14.7132H12.4521V15.6177H13.3566V14.7132Z" fill="#313434"/>
<path d="M9.73922 15.6177H8.83472V16.5222H9.73922V15.6177Z" fill="#313434"/>
<path d="M12.4524 15.6177H11.5479V16.5222H12.4524V15.6177Z" fill="#313434"/>
<path d="M8.83468 16.5222H7.93018V17.4267H8.83468V16.5222Z" fill="#313434"/>
<path d="M11.5479 16.5222H10.6434V17.4267H11.5479V16.5222Z" fill="#313434"/>
<path d="M8.83468 17.4264H7.93018V18.3309H8.83468V17.4264Z" fill="#313434"/>
<path d="M10.6434 17.4264H9.73889V18.3309H10.6434V17.4264Z" fill="#313434"/>
<path d="M8.83468 18.3309H7.93018V19.2354H8.83468V18.3309Z" fill="#313434"/>
<path d="M9.73922 18.3309H8.83472V19.2354H9.73922V18.3309Z" fill="#313434"/>
<path d="M12.4524 5.6691H11.5479V6.5736H12.4524V5.6691Z" fill="#FFF130"/>
<path d="M13.3566 5.6691H12.4521V6.5736H13.3566V5.6691Z" fill="#FFDF12"/>
<path d="M14.2611 5.6691H13.3566V6.5736H14.2611V5.6691Z" fill="#FFDF12"/>
<path d="M15.1656 5.6691H14.2611V6.5736H15.1656V5.6691Z" fill="#FFDF12"/>
<path d="M16.0701 5.6691H15.1656V6.5736H16.0701V5.6691Z" fill="#FFDF12"/>
<path d="M16.9743 5.6691H16.0698V6.5736H16.9743V5.6691Z" fill="#FFC905"/>
<path d="M11.5479 6.57361H10.6434V7.47811H11.5479V6.57361Z" fill="#FFF130"/>
<path d="M12.4524 6.57361H11.5479V7.47811H12.4524V6.57361Z" fill="#FFDF12"/>
<path d="M13.3566 6.57361H12.4521V7.47811H13.3566V6.57361Z" fill="#FFDF12"/>
<path d="M14.2611 6.57361H13.3566V7.47811H14.2611V6.57361Z" fill="#FFDF12"/>
<path d="M15.1656 6.57361H14.2611V7.47811H15.1656V6.57361Z" fill="#FFDF12"/>
<path d="M16.0701 6.57361H15.1656V7.47811H16.0701V6.57361Z" fill="#FFC905"/>
<path d="M11.5479 7.47781H10.6434V8.38231H11.5479V7.47781Z" fill="#FFF130"/>
<path d="M12.4524 7.47781H11.5479V8.38231H12.4524V7.47781Z" fill="#FFDF12"/>
<path d="M13.3566 7.47781H12.4521V8.38231H13.3566V7.47781Z" fill="#FFDF12"/>
<path d="M14.2611 7.47781H13.3566V8.38231H14.2611V7.47781Z" fill="#FFDF12"/>
<path d="M15.1656 7.47781H14.2611V8.38231H15.1656V7.47781Z" fill="#FFC905"/>
<path d="M10.6434 8.38229H9.73889V9.28679H10.6434V8.38229Z" fill="#FFF130"/>
<path d="M11.5479 8.38229H10.6434V9.28679H11.5479V8.38229Z" fill="#FFDF12"/>
<path d="M12.4524 8.38229H11.5479V9.28679H12.4524V8.38229Z" fill="#FFDF12"/>
<path d="M13.3566 8.38229H12.4521V9.28679H13.3566V8.38229Z" fill="#FFDF12"/>
<path d="M14.2611 8.38229H13.3566V9.28679H14.2611V8.38229Z" fill="#FFC905"/>
<path d="M10.6434 9.2868H9.73889V10.1913H10.6434V9.2868Z" fill="#FFF130"/>
<path d="M11.5479 9.2868H10.6434V10.1913H11.5479V9.2868Z" fill="#FFDF12"/>
<path d="M12.4524 9.2868H11.5479V10.1913H12.4524V9.2868Z" fill="#FFDF12"/>
<path d="M13.3566 9.2868H12.4521V10.1913H13.3566V9.2868Z" fill="#FFC905"/>
<path d="M9.73922 10.1913H8.83472V11.0958H9.73922V10.1913Z" fill="#FFF130"/>
<path d="M10.6434 10.1913H9.73889V11.0958H10.6434V10.1913Z" fill="#FFDF12"/>
<path d="M11.5479 10.1913H10.6434V11.0958H11.5479V10.1913Z" fill="#FFDF12"/>
<path d="M12.4524 10.1913H11.5479V11.0958H12.4524V10.1913Z" fill="#FFDF12"/>
<path d="M12.4524 12H11.5479V12.9045H12.4524V12Z" fill="#FFDF12"/>
<path d="M13.3566 12H12.4521V12.9045H13.3566V12Z" fill="#FFDF12"/>
<path d="M12.4524 11.0955H11.5479V12H12.4524V11.0955Z" fill="#FFDF12"/>
<path d="M13.3566 11.0955H12.4521V12H13.3566V11.0955Z" fill="#FFDF12"/>
<path d="M14.2611 12H13.3566V12.9045H14.2611V12Z" fill="#FFDF12"/>
<path d="M15.1656 12H14.2611V12.9045H15.1656V12Z" fill="#FFC905"/>
<path d="M11.5479 12.9045H10.6434V13.809H11.5479V12.9045Z" fill="#FFDF12"/>
<path d="M12.4524 12.9045H11.5479V13.809H12.4524V12.9045Z" fill="#FFDF12"/>
<path d="M13.3566 12.9045H12.4521V13.809H13.3566V12.9045Z" fill="#FFDF12"/>
<path d="M14.2611 12.9045H13.3566V13.809H14.2611V12.9045Z" fill="#FFC905"/>
<path d="M11.5479 13.8087H10.6434V14.7132H11.5479V13.8087Z" fill="#FFDF12"/>
<path d="M12.4524 13.8087H11.5479V14.7132H12.4524V13.8087Z" fill="#FFDF12"/>
<path d="M13.3566 13.8087H12.4521V14.7132H13.3566V13.8087Z" fill="#FFC905"/>
<path d="M10.6434 14.7132H9.73889V15.6177H10.6434V14.7132Z" fill="#FFDF12"/>
<path d="M11.5479 14.7132H10.6434V15.6177H11.5479V14.7132Z" fill="#FFDF12"/>
<path d="M12.4524 14.7132H11.5479V15.6177H12.4524V14.7132Z" fill="#FFC905"/>
<path d="M10.6434 15.6177H9.73889V16.5222H10.6434V15.6177Z" fill="#FFDF12"/>
<path d="M11.5479 15.6177H10.6434V16.5222H11.5479V15.6177Z" fill="#FFC905"/>
<path d="M9.73922 16.5222H8.83472V17.4267H9.73922V16.5222Z" fill="#FFDF12"/>
<path d="M10.6434 16.5222H9.73889V17.4267H10.6434V16.5222Z" fill="#FFC905"/>
<path d="M9.73922 17.4264H8.83472V18.3309H9.73922V17.4264Z" fill="#FFC905"/>
</g>
<defs>
<clipPath id="clip0_17_6076">
<rect width="24" height="24" fill="white"/>
</clipPath>
</defs>
</svg>
