<svg width="165" height="106" viewBox="0 0 165 106" fill="none" xmlns="http://www.w3.org/2000/svg">
<path d="M161.7 53.2835H154.602V60.8897H161.7V53.2835Z" fill="#FF9100"/>
<path d="M161.7 45.6642V53.284H154.602V45.6642H161.662H161.7Z" fill="#FF9100"/>
<path d="M161.664 38.0572V45.6634H154.604H154.565V38.0572H161.664Z" fill="#FF9100"/>
<path d="M154.602 68.4977H147.503V76.1175H154.602V68.4977Z" fill="#FF9100"/>
<path d="M154.602 60.8893H147.503V68.4955H154.602V60.8893Z" fill="#FF9100"/>
<path d="M154.602 53.2835H147.503V60.8897H154.602V53.2835Z" fill="#FFCE00"/>
<path d="M154.602 45.6642V53.284H147.503V45.6642H154.564H154.602Z" fill="#FFCE00"/>
<path d="M154.567 38.0572V45.6634H147.506H147.455V38.0572H154.567Z" fill="#FFCE00"/>
<path d="M154.567 30.4379H147.455V38.0577H154.567V30.4379Z" fill="#FF9100"/>
<path d="M154.567 22.8335H147.455V30.4397H154.567V22.8335Z" fill="#FF9100"/>
<path d="M147.504 76.117H140.393V83.7232H147.504V76.117Z" fill="#FF9100"/>
<path d="M147.504 68.4977H140.393V76.1175H147.504V68.4977Z" fill="#FFCE00"/>
<path d="M147.504 60.8893H140.393V68.4955H147.504V60.8893Z" fill="#FFCE00"/>
<path d="M147.504 53.2835H140.393V60.8897H147.504V53.2835Z" fill="#FFCE00"/>
<path d="M147.504 45.6642V53.284H140.393V45.6642H147.453H147.504Z" fill="#FFCE00"/>
<path d="M147.455 38.0572V45.6634H140.395H140.356V38.0572H147.455Z" fill="#FFCE00"/>
<path d="M147.455 30.4379H140.356V38.0577H147.455V30.4379Z" fill="#FFCE00"/>
<path d="M147.455 22.8335H140.356V30.4397H147.455V22.8335Z" fill="#FFCE00"/>
<path d="M147.455 15.213H140.356V22.8328H147.455V15.213Z" fill="#FF9100"/>
<path d="M140.393 83.7214H133.294V91.3412H140.393V83.7214Z" fill="#FF9100"/>
<path d="M140.393 76.117H133.294V83.7232H140.393V76.117Z" fill="#EF9F00"/>
<path d="M140.393 68.4977H133.294V76.1175H140.393V68.4977Z" fill="#EF9F00"/>
<path d="M140.393 60.8893H133.294V68.4955H140.393V60.8893Z" fill="#EF9F00"/>
<path d="M140.393 53.2835H133.294V60.8897H140.393V53.2835Z" fill="#FFCE00"/>
<path d="M140.393 45.6642V53.284H133.294V45.6642H140.355H140.393Z" fill="#FFCE00"/>
<path d="M140.357 38.0572V45.6634H133.296H133.258V38.0572H140.357Z" fill="#FFCE00"/>
<path d="M140.357 30.4379H133.258V38.0577H140.357V30.4379Z" fill="#EF9F00"/>
<path d="M140.357 22.8335H133.258V30.4397H140.357V22.8335Z" fill="#EF9F00"/>
<path d="M140.357 15.213H133.258V22.8328H140.357V15.213Z" fill="#EF9F00"/>
<path d="M140.357 7.6058H133.258V15.212H140.357V7.6058Z" fill="#FF9100"/>
<path d="M133.295 83.7214H126.184V91.3412H133.295V83.7214Z" fill="#FF9100"/>
<path d="M133.295 76.117H126.184V83.7232H133.295V76.117Z" fill="#FFDE52"/>
<path d="M133.295 68.4977H126.184V76.1175H133.295V68.4977Z" fill="#FFDE52"/>
<path d="M133.295 60.8893H126.184V68.4955H133.295V60.8893Z" fill="#EF9F00"/>
<path d="M133.295 53.2835H126.184V60.8897H133.295V53.2835Z" fill="#EF9F00"/>
<path d="M133.295 45.6642V53.284H126.184V45.6642H133.257H133.295Z" fill="#EF9F00"/>
<path d="M133.259 38.0572V45.6634H126.186H126.147V38.0572H133.259Z" fill="#EF9F00"/>
<path d="M133.259 30.4379H126.147V38.0577H133.259V30.4379Z" fill="#EF9F00"/>
<path d="M133.259 22.8335H126.147V30.4397H133.259V22.8335Z" fill="#FFDE52"/>
<path d="M133.259 15.213H126.147V22.8328H133.259V15.213Z" fill="white"/>
<path d="M133.259 7.6058H126.147V15.212H133.259V7.6058Z" fill="#FF9100"/>
<path d="M126.184 91.3272H119.085V98.9333H126.184V91.3272Z" fill="#FF9100"/>
<path d="M126.184 83.7214H119.085V91.3412H126.184V83.7214Z" fill="#EF9F00"/>
<path d="M126.184 76.117H119.085V83.7232H126.184V76.117Z" fill="#FFDE52"/>
<path d="M126.184 68.4977H119.085V76.1175H126.184V68.4977Z" fill="#FFDE52"/>
<path d="M126.184 60.8893H119.085V68.4955H126.184V60.8893Z" fill="#FFDE52"/>
<path d="M126.184 53.2835H119.085V60.8897H126.184V53.2835Z" fill="#FFDE52"/>
<path d="M126.184 45.6642V53.284H119.085V45.6642H126.146H126.184Z" fill="#FFDE52"/>
<path d="M126.148 38.0572V45.6634H119.087H119.062H119.049V38.0572H126.148Z" fill="#FFDE52"/>
<path d="M126.148 30.4379H119.049V38.0577H126.148V30.4379Z" fill="#FFDE52"/>
<path d="M126.148 22.8335H119.049V30.4397H126.148V22.8335Z" fill="#FFDE52"/>
<path d="M126.148 15.213H119.049V22.8328H126.148V15.213Z" fill="white"/>
<path d="M126.148 7.6058H119.049V15.212H126.148V7.6058Z" fill="#EF9F00"/>
<path d="M126.148 0H119.049V7.60619H126.148V0Z" fill="#FF9100"/>
<path d="M119.062 91.3272H111.963V98.9333H119.062V91.3272Z" fill="#FF9100"/>
<path d="M119.062 83.7214H111.963V91.3412H119.062V83.7214Z" fill="#EF9F00"/>
<path d="M119.062 76.117H111.963V83.7232H119.062V76.117Z" fill="#FFDE52"/>
<path d="M119.062 68.4977H111.963V76.1175H119.062V68.4977Z" fill="#FFDE52"/>
<path d="M119.062 60.8893H111.963V68.4955H119.062V60.8893Z" fill="#FFDE52"/>
<path d="M119.062 53.2835H111.963V60.8897H119.062V53.2835Z" fill="#FFDE52"/>
<path d="M119.062 45.6642V53.284H111.963V45.6642H119.036H119.049H119.062Z" fill="#FFDE52"/>
<path d="M119.037 38.0572V45.6634H111.964H111.938V38.0572H119.037Z" fill="#FFDE52"/>
<path d="M119.037 30.4379H111.938V38.0577H119.037V30.4379Z" fill="#FFDE52"/>
<path d="M119.037 22.8335H111.938V30.4397H119.037V22.8335Z" fill="#FFDE52"/>
<path d="M119.037 15.213H111.938V22.8328H119.037V15.213Z" fill="white"/>
<path d="M119.037 7.6058H111.938V15.212H119.037V7.6058Z" fill="#EF9F00"/>
<path d="M119.037 0H111.938V7.60619H119.037V0Z" fill="#FF9100"/>
<path d="M111.963 91.3272H104.864V98.9333H111.963V91.3272Z" fill="#FF9100"/>
<path d="M111.963 83.7214H104.864V91.3412H111.963V83.7214Z" fill="#EF9F00"/>
<path d="M111.963 76.117H104.864V83.7232H111.963V76.117Z" fill="#FFDE52"/>
<path d="M111.963 68.4977H104.864V76.1175H111.963V68.4977Z" fill="white"/>
<path d="M111.963 60.8893H104.864V68.4955H111.963V60.8893Z" fill="white"/>
<path d="M111.963 53.2835H104.864V60.8897H111.963V53.2835Z" fill="white"/>
<path d="M111.963 45.6642V53.284H104.864V45.6642H111.938H111.963Z" fill="white"/>
<path d="M111.94 38.0572V45.6634H104.866H104.828V38.0572H111.94Z" fill="white"/>
<path d="M111.94 30.4379H104.828V38.0577H111.94V30.4379Z" fill="#FFDE52"/>
<path d="M111.94 22.8335H104.828V30.4397H111.94V22.8335Z" fill="#FFDE52"/>
<path d="M111.94 15.213H104.828V22.8328H111.94V15.213Z" fill="white"/>
<path d="M111.94 7.6058H104.828V15.212H111.94V7.6058Z" fill="#EF9F00"/>
<path d="M111.94 0H104.828V7.60619H111.94V0Z" fill="#FF9100"/>
<path d="M104.877 83.7214H97.7656V91.3412H104.877V83.7214Z" fill="#FF9100"/>
<path d="M104.877 76.117H97.7656V83.7232H104.877V76.117Z" fill="white"/>
<path d="M104.877 68.4977H97.7656V76.1175H104.877V68.4977Z" fill="white"/>
<path d="M104.877 60.8893H97.7656V68.4955H104.877V60.8893Z" fill="#EF9F00"/>
<path d="M104.877 53.2835H97.7656V60.8897H104.877V53.2835Z" fill="#EF9F00"/>
<path d="M104.865 45.6642V53.284H97.7656V45.6642H104.826H104.865Z" fill="#EF9F00"/>
<path d="M104.816 38.0572V45.6634H97.7558H97.7175V38.0572H104.816Z" fill="#EF9F00"/>
<path d="M104.816 30.4379H97.7175V38.0577H104.816V30.4379Z" fill="#EF9F00"/>
<path d="M104.816 22.8335H97.7175V30.4397H104.816V22.8335Z" fill="white"/>
<path d="M104.816 15.213H97.7175V22.8328H104.816V15.213Z" fill="white"/>
<path d="M104.816 7.6058H97.7175V15.212H104.816V7.6058Z" fill="#FF9100"/>
<path d="M97.7422 83.7214H90.6433V91.3412H97.7422V83.7214Z" fill="#FF9100"/>
<path d="M97.7422 76.117H90.6433V83.7232H97.7422V76.117Z" fill="#EF9F00"/>
<path d="M97.7422 68.4977H90.6433V76.1175H97.7422V68.4977Z" fill="#EF9F00"/>
<path d="M97.7422 60.8893H90.6433V68.4955H97.7422V60.8893Z" fill="#EF9F00"/>
<path d="M97.7422 53.2835H90.6433V60.8897H97.7422V53.2835Z" fill="#FFCE00"/>
<path d="M97.755 45.6642V53.284H90.6433V45.6642H97.7167H97.755Z" fill="#FFCE00"/>
<path d="M97.7188 38.0572V45.6634H90.6454H90.6072V38.0572H97.7188Z" fill="#FFCE00"/>
<path d="M97.7188 30.4379H90.6072V38.0577H97.7188V30.4379Z" fill="#EF9F00"/>
<path d="M97.7188 22.8335H90.6072V30.4397H97.7188V22.8335Z" fill="#EF9F00"/>
<path d="M97.7188 15.213H90.6072V22.8328H97.7188V15.213Z" fill="#EF9F00"/>
<path d="M97.7188 7.6058H90.6072V15.212H97.7188V7.6058Z" fill="#FF9100"/>
<path d="M90.6563 76.117H83.5447V83.7232H90.6563V76.117Z" fill="#FF9100"/>
<path d="M90.6563 68.4977H83.5447V76.1175H90.6563V68.4977Z" fill="#FFCE00"/>
<path d="M90.6563 60.8893H83.5447V68.4955H90.6563V60.8893Z" fill="#FFCE00"/>
<path d="M90.6563 53.2835H83.5447V60.8897H90.6563V53.2835Z" fill="#FFCE00"/>
<path d="M90.6436 45.6642V53.284H83.5447V45.6642H90.6054H90.6436Z" fill="#FFCE00"/>
<path d="M90.6077 38.0572V45.6634H83.547H83.5088V38.0572H90.6077Z" fill="#FFCE00"/>
<path d="M90.6077 30.4379H83.5088V38.0577H90.6077V30.4379Z" fill="#FFCE00"/>
<path d="M90.6077 22.8335H83.5088V30.4397H90.6077V22.8335Z" fill="#FFCE00"/>
<path d="M90.6077 15.213H83.5088V22.8328H90.6077V15.213Z" fill="#FF9100"/>
<path d="M83.5452 68.4977H76.4463V76.1175H83.5452V68.4977Z" fill="#FF9100"/>
<path d="M83.5452 60.8893H76.4463V68.4955H83.5452V60.8893Z" fill="#FF9100"/>
<path d="M83.5452 53.2835H76.4463V60.8897H83.5452V53.2835Z" fill="#FFCE00"/>
<path d="M83.5452 45.6642V53.284H76.4463V45.6642H83.507H83.5452Z" fill="#FFCE00"/>
<path d="M83.5091 38.0572V45.6634H76.4484H76.4102V38.0572H83.5091Z" fill="#FFCE00"/>
<path d="M83.5091 30.4379H76.4102V38.0577H83.5091V30.4379Z" fill="#FF9100"/>
<path d="M83.5091 22.8335H76.4102V30.4397H83.5091V22.8335Z" fill="#FF9100"/>
<path d="M76.4468 53.2835H69.3479V60.8897H76.4468V53.2835Z" fill="#FF9100"/>
<path d="M76.4596 45.6642V53.284H69.3479V45.6642H76.4213H76.4596Z" fill="#FF9100"/>
<path d="M76.4115 38.0572V45.6634H69.338H69.2998V38.0572H76.4115Z" fill="#FF9100"/>
<g filter="url(#filter0_f_40_6458)">
<path d="M47.5216 45.4776L44.8228 43.969L43.2157 46.844L45.9146 48.3526L47.5216 45.4776Z" fill="#FF9100"/>
<path d="M49.1315 42.5977L47.5216 45.4778L44.8227 43.9692L46.4326 41.0891L49.117 42.5895L49.1315 42.5977Z" fill="#FF9100"/>
<path d="M50.725 39.7147L49.1179 42.5897L46.4336 41.0892L46.4191 41.0811L48.0261 38.2061L50.725 39.7147Z" fill="#FF9100"/>
<path d="M41.6085 49.7198L38.9097 48.2112L37.2997 51.0914L39.9986 52.6L41.6085 49.7198Z" fill="#FF9100"/>
<path d="M43.216 46.844L40.5171 45.3354L38.91 48.2104L41.6089 49.719L43.216 46.844Z" fill="#FF9100"/>
<path d="M44.8229 43.9691L42.124 42.4605L40.517 45.3355L43.2158 46.8441L44.8229 43.9691Z" fill="#FFCE00"/>
<path d="M46.4328 41.0892L44.8228 43.9693L42.124 42.4607L43.7339 39.5806L46.4182 41.081L46.4328 41.0892Z" fill="#FFCE00"/>
<path d="M48.0267 38.2063L46.4197 41.0813L43.7353 39.5809L43.7159 39.57L45.323 36.695L48.0267 38.2063Z" fill="#FFCE00"/>
<path d="M49.6363 35.3264L46.9326 33.8151L45.3227 36.6952L48.0264 38.2065L49.6363 35.3264Z" fill="#FF9100"/>
<path d="M51.243 32.4521L48.5393 30.9408L46.9323 33.8158L49.636 35.3271L51.243 32.4521Z" fill="#FF9100"/>
<path d="M37.3004 51.0914L34.5967 49.5801L32.9896 52.4551L35.6933 53.9664L37.3004 51.0914Z" fill="#FF9100"/>
<path d="M38.91 48.2115L36.2063 46.7002L34.5964 49.5803L37.3001 51.0916L38.91 48.2115Z" fill="#FFCE00"/>
<path d="M40.5177 45.3356L37.814 43.8243L36.2069 46.6993L38.9106 48.2106L40.5177 45.3356Z" fill="#FFCE00"/>
<path d="M42.1246 42.4608L39.4209 40.9495L37.8138 43.8245L40.5176 45.3358L42.1246 42.4608Z" fill="#FFCE00"/>
<path d="M43.7345 39.5808L42.1245 42.461L39.4208 40.9497L41.0308 38.0695L43.7151 39.57L43.7345 39.5808Z" fill="#FFCE00"/>
<path d="M45.3231 36.6951L43.7161 39.5701L41.0318 38.0697L41.0172 38.0615L42.6243 35.1865L45.3231 36.6951Z" fill="#FFCE00"/>
<path d="M46.933 33.8152L44.2341 32.3066L42.6242 35.1867L45.3231 36.6953L46.933 33.8152Z" fill="#FFCE00"/>
<path d="M48.5394 30.9408L45.8406 29.4322L44.2335 32.3072L46.9324 33.8158L48.5394 30.9408Z" fill="#FFCE00"/>
<path d="M50.1496 28.0604L47.4507 26.5518L45.8408 29.432L48.5396 30.9406L50.1496 28.0604Z" fill="#FF9100"/>
<path d="M32.9901 52.4546L30.2913 50.946L28.6813 53.8261L31.3802 55.3347L32.9901 52.4546Z" fill="#FF9100"/>
<path d="M34.5968 49.5802L31.8979 48.0716L30.2909 50.9466L32.9898 52.4552L34.5968 49.5802Z" fill="#EF9F00"/>
<path d="M36.2064 46.7003L33.5076 45.1917L31.8976 48.0718L34.5965 49.5804L36.2064 46.7003Z" fill="#EF9F00"/>
<path d="M37.8141 43.8244L35.1152 42.3158L33.5082 45.1908L36.2071 46.6994L37.8141 43.8244Z" fill="#EF9F00"/>
<path d="M39.421 40.9496L36.7222 39.441L35.1151 42.316L37.814 43.8246L39.421 40.9496Z" fill="#FFCE00"/>
<path d="M41.0309 38.0696L39.421 40.9498L36.7221 39.4412L38.332 36.561L41.0164 38.0615L41.0309 38.0696Z" fill="#FFCE00"/>
<path d="M42.6244 35.1866L41.0174 38.0616L38.333 36.5612L38.3185 36.553L39.9255 33.678L42.6244 35.1866Z" fill="#FFCE00"/>
<path d="M44.2343 32.3067L41.5354 30.7981L39.9255 33.6782L42.6243 35.1868L44.2343 32.3067Z" fill="#EF9F00"/>
<path d="M45.841 29.4323L43.1421 27.9237L41.535 30.7987L44.2339 32.3073L45.841 29.4323Z" fill="#EF9F00"/>
<path d="M47.4508 26.5519L44.752 25.0433L43.142 27.9235L45.8409 29.4321L47.4508 26.5519Z" fill="#EF9F00"/>
<path d="M49.0582 23.6765L46.3594 22.1679L44.7523 25.0429L47.4512 26.5515L49.0582 23.6765Z" fill="#FF9100"/>
<path d="M30.2916 50.9462L27.5879 49.4349L25.978 52.3151L28.6817 53.8264L30.2916 50.9462Z" fill="#FF9100"/>
<path d="M31.8983 48.0719L29.1946 46.5606L27.5875 49.4356L30.2912 50.9469L31.8983 48.0719Z" fill="#FFDE52"/>
<path d="M33.5082 45.1919L30.8044 43.6806L29.1945 46.5608L31.8982 48.0721L33.5082 45.1919Z" fill="#FFDE52"/>
<path d="M35.1156 42.3161L32.4119 40.8048L30.8048 43.6798L33.5085 45.1911L35.1156 42.3161Z" fill="#EF9F00"/>
<path d="M36.7225 39.4412L34.0188 37.9299L32.4117 40.8049L35.1155 42.3162L36.7225 39.4412Z" fill="#EF9F00"/>
<path d="M38.3324 36.5613L36.7224 39.4414L34.0187 37.9301L35.6287 35.05L38.3178 36.5531L38.3324 36.5613Z" fill="#EF9F00"/>
<path d="M39.9259 33.6783L38.3188 36.5533L35.6297 35.0501L35.6151 35.042L37.2222 32.167L39.9259 33.6783Z" fill="#EF9F00"/>
<path d="M41.5357 30.7983L38.832 29.287L37.2221 32.1672L39.9258 33.6785L41.5357 30.7983Z" fill="#EF9F00"/>
<path d="M43.1424 27.924L40.4387 26.4127L38.8317 29.2877L41.5354 30.799L43.1424 27.924Z" fill="#FFDE52"/>
<path d="M44.7525 25.0436L42.0488 23.5323L40.4389 26.4124L43.1426 27.9237L44.7525 25.0436Z" fill="white"/>
<path d="M46.3597 22.1682L43.656 20.6569L42.049 23.5319L44.7527 25.0432L46.3597 22.1682Z" fill="#FF9100"/>
<path d="M25.9811 52.3099L23.2822 50.8013L21.6752 53.6763L24.374 55.1849L25.9811 52.3099Z" fill="#FF9100"/>
<path d="M27.588 49.435L24.8892 47.9264L23.2792 50.8066L25.9781 52.3152L27.588 49.435Z" fill="#EF9F00"/>
<path d="M29.1947 46.5607L26.4958 45.0521L24.8888 47.9271L27.5877 49.4357L29.1947 46.5607Z" fill="#FFDE52"/>
<path d="M30.8046 43.6807L28.1057 42.1721L26.4958 45.0523L29.1947 46.5609L30.8046 43.6807Z" fill="#FFDE52"/>
<path d="M32.412 40.8049L29.7131 39.2963L28.1061 42.1713L30.805 43.6799L32.412 40.8049Z" fill="#FFDE52"/>
<path d="M34.0192 37.93L31.3203 36.4214L29.7133 39.2964L32.4121 40.805L34.0192 37.93Z" fill="#FFDE52"/>
<path d="M35.6288 35.0501L34.0189 37.9302L31.32 36.4216L32.9299 33.5415L35.6143 35.0419L35.6288 35.0501Z" fill="#FFDE52"/>
<path d="M37.2223 32.1671L35.6153 35.0421L32.9309 33.5416L32.9212 33.5362L32.9164 33.5335L34.5234 30.6585L37.2223 32.1671Z" fill="#FFDE52"/>
<path d="M38.8322 29.2871L36.1333 27.7785L34.5234 30.6587L37.2222 32.1673L38.8322 29.2871Z" fill="#FFDE52"/>
<path d="M40.4389 26.4128L37.74 24.9042L36.1329 27.7792L38.8318 29.2878L40.4389 26.4128Z" fill="#FFDE52"/>
<path d="M42.049 23.5324L39.3501 22.0238L37.7402 24.9039L40.439 26.4125L42.049 23.5324Z" fill="white"/>
<path d="M43.6561 20.657L40.9573 19.1484L39.3502 22.0234L42.0491 23.532L43.6561 20.657Z" fill="#EF9F00"/>
<path d="M45.2633 17.7821L42.5645 16.2735L40.9574 19.1485L43.6563 20.6571L45.2633 17.7821Z" fill="#FF9100"/>
<path d="M23.2733 50.7962L20.5745 49.2876L18.9674 52.1626L21.6663 53.6712L23.2733 50.7962Z" fill="#FF9100"/>
<path d="M24.8803 47.9214L22.1814 46.4128L20.5715 49.293L23.2703 50.8016L24.8803 47.9214Z" fill="#EF9F00"/>
<path d="M26.487 45.0471L23.7881 43.5385L22.181 46.4135L24.8799 47.9221L26.487 45.0471Z" fill="#FFDE52"/>
<path d="M28.0968 42.1671L25.3979 40.6585L23.788 43.5387L26.4869 45.0473L28.0968 42.1671Z" fill="#FFDE52"/>
<path d="M29.7042 39.2913L27.0054 37.7827L25.3983 40.6577L28.0972 42.1663L29.7042 39.2913Z" fill="#FFDE52"/>
<path d="M31.3112 36.4164L28.6123 34.9078L27.0053 37.7828L29.7041 39.2914L31.3112 36.4164Z" fill="#FFDE52"/>
<path d="M32.921 33.5364L31.3111 36.4166L28.6122 34.908L30.2222 32.0278L32.9113 33.531L32.9162 33.5337L32.921 33.5364Z" fill="#FFDE52"/>
<path d="M34.5192 30.656L32.9121 33.531L30.223 32.0278L30.2133 32.0224L31.8203 29.1474L34.5192 30.656Z" fill="#FFDE52"/>
<path d="M36.129 27.7761L33.4302 26.2675L31.8202 29.1476L34.5191 30.6562L36.129 27.7761Z" fill="#FFDE52"/>
<path d="M37.7357 24.9017L35.0369 23.3931L33.4298 26.2681L36.1287 27.7767L37.7357 24.9017Z" fill="#FFDE52"/>
<path d="M39.3456 22.0213L36.6467 20.5127L35.0368 23.3929L37.7357 24.9015L39.3456 22.0213Z" fill="white"/>
<path d="M40.953 19.1459L38.2542 17.6373L36.6471 20.5123L39.346 22.0209L40.953 19.1459Z" fill="#EF9F00"/>
<path d="M42.56 16.2711L39.8611 14.7625L38.254 17.6375L40.9529 19.1461L42.56 16.2711Z" fill="#FF9100"/>
<path d="M20.5746 49.2877L17.8757 47.7791L16.2687 50.6541L18.9675 52.1627L20.5746 49.2877Z" fill="#FF9100"/>
<path d="M22.1815 46.4129L19.4827 44.9043L17.8727 47.7845L20.5716 49.2931L22.1815 46.4129Z" fill="#EF9F00"/>
<path d="M23.7882 43.5386L21.0894 42.03L19.4823 44.905L22.1812 46.4136L23.7882 43.5386Z" fill="#FFDE52"/>
<path d="M25.3981 40.6586L22.6992 39.15L21.0893 42.0302L23.7882 43.5388L25.3981 40.6586Z" fill="white"/>
<path d="M27.0055 37.7828L24.3066 36.2742L22.6996 39.1492L25.3985 40.6578L27.0055 37.7828Z" fill="white"/>
<path d="M28.6124 34.9079L25.9136 33.3993L24.3065 36.2743L27.0054 37.7829L28.6124 34.9079Z" fill="white"/>
<path d="M30.2223 32.0279L28.6124 34.9081L25.9135 33.3995L27.5234 30.5193L30.2126 32.0225L30.2223 32.0279Z" fill="white"/>
<path d="M31.8207 29.1477L30.2136 32.0227L27.5244 30.5195L27.5099 30.5114L29.1169 27.6364L31.8207 29.1477Z" fill="white"/>
<path d="M33.4305 26.2677L30.7268 24.7564L29.1169 27.6366L31.8206 29.1479L33.4305 26.2677Z" fill="#FFDE52"/>
<path d="M35.0372 23.3934L32.3335 21.8821L30.7264 24.7571L33.4302 26.2684L35.0372 23.3934Z" fill="#FFDE52"/>
<path d="M36.6473 20.513L33.9436 19.0017L32.3337 21.8818L35.0374 23.3931L36.6473 20.513Z" fill="white"/>
<path d="M38.2545 17.6376L35.5508 16.1263L33.9437 19.0013L36.6474 20.5126L38.2545 17.6376Z" fill="#EF9F00"/>
<path d="M39.8614 14.7627L37.1577 13.2514L35.5507 16.1264L38.2544 17.6377L39.8614 14.7627Z" fill="#FF9100"/>
<path d="M19.4876 44.9071L16.7839 43.3958L15.174 46.276L17.8777 47.7873L19.4876 44.9071Z" fill="#FF9100"/>
<path d="M21.0943 42.0328L18.3906 40.5215L16.7836 43.3965L19.4873 44.9078L21.0943 42.0328Z" fill="white"/>
<path d="M22.7042 39.1528L20.0005 37.6415L18.3906 40.5217L21.0943 42.033L22.7042 39.1528Z" fill="white"/>
<path d="M24.3116 36.277L21.6079 34.7657L20.0009 37.6407L22.7046 39.152L24.3116 36.277Z" fill="#EF9F00"/>
<path d="M25.9188 33.4021L23.2151 31.8908L21.608 34.7658L24.3118 36.2771L25.9188 33.4021Z" fill="#EF9F00"/>
<path d="M27.5236 30.5194L25.9136 33.3996L23.2148 31.891L24.8247 29.0108L27.509 30.5113L27.5236 30.5194Z" fill="#EF9F00"/>
<path d="M29.1127 27.6339L27.5056 30.5089L24.8213 29.0084L24.8068 29.0003L26.4138 26.1253L29.1127 27.6339Z" fill="#EF9F00"/>
<path d="M30.7223 24.7539L28.0234 23.2453L26.4135 26.1255L29.1124 27.6341L30.7223 24.7539Z" fill="#EF9F00"/>
<path d="M32.329 21.8796L29.6301 20.371L28.0231 23.246L30.7219 24.7546L32.329 21.8796Z" fill="white"/>
<path d="M33.9391 18.9992L31.2402 17.4906L29.6303 20.3708L32.3292 21.8794L33.9391 18.9992Z" fill="white"/>
<path d="M35.5465 16.1238L32.8477 14.6152L31.2406 17.4902L33.9395 18.9988L35.5465 16.1238Z" fill="#FF9100"/>
<path d="M16.775 43.3908L14.0762 41.8822L12.4662 44.7623L15.1651 46.2709L16.775 43.3908Z" fill="#FF9100"/>
<path d="M18.3817 40.5164L15.6829 39.0079L14.0758 41.8829L16.7747 43.3915L18.3817 40.5164Z" fill="#EF9F00"/>
<path d="M19.9916 37.6365L17.2927 36.1279L15.6828 39.008L18.3817 40.5166L19.9916 37.6365Z" fill="#EF9F00"/>
<path d="M21.599 34.7606L18.9001 33.252L17.2931 36.127L19.992 37.6356L21.599 34.7606Z" fill="#EF9F00"/>
<path d="M23.206 31.8858L20.5071 30.3772L18.9 33.2522L21.5989 34.7608L23.206 31.8858Z" fill="#FFCE00"/>
<path d="M24.8207 29.0085L23.2107 31.8887L20.507 30.3774L22.1169 27.4972L24.8061 29.0004L24.8207 29.0085Z" fill="#FFCE00"/>
<path d="M26.4142 26.1256L24.8071 29.0006L22.1179 27.4974L22.1034 27.4893L23.7104 24.6143L26.4142 26.1256Z" fill="#FFCE00"/>
<path d="M28.024 23.2456L25.3203 21.7343L23.7104 24.6144L26.4141 26.1258L28.024 23.2456Z" fill="#EF9F00"/>
<path d="M29.6307 20.3713L26.927 18.86L25.32 21.735L28.0237 23.2463L29.6307 20.3713Z" fill="#EF9F00"/>
<path d="M31.2408 17.4909L28.5371 15.9796L26.9272 18.8597L29.6309 20.371L31.2408 17.4909Z" fill="#EF9F00"/>
<path d="M32.848 14.6155L30.1443 13.1042L28.5372 15.9792L31.241 17.4905L32.848 14.6155Z" fill="#FF9100"/>
<path d="M15.6878 39.0107L12.9841 37.4994L11.3771 40.3744L14.0808 41.8857L15.6878 39.0107Z" fill="#FF9100"/>
<path d="M17.2977 36.1307L14.594 34.6194L12.9841 37.4995L15.6878 39.0109L17.2977 36.1307Z" fill="#FFCE00"/>
<path d="M18.9051 33.2549L16.2014 31.7435L14.5944 34.6186L17.2981 36.1299L18.9051 33.2549Z" fill="#FFCE00"/>
<path d="M20.5121 30.38L17.8083 28.8687L16.2013 31.7437L18.905 33.255L20.5121 30.38Z" fill="#FFCE00"/>
<path d="M22.1171 27.4973L20.5072 30.3775L17.8083 28.8689L19.4182 25.9887L22.1025 27.4892L22.1171 27.4973Z" fill="#FFCE00"/>
<path d="M23.7106 24.6143L22.1035 27.4894L19.4192 25.9889L19.4047 25.9808L21.0117 23.1058L23.7106 24.6143Z" fill="#FFCE00"/>
<path d="M25.3205 21.7344L22.6216 20.2258L21.0117 23.1059L23.7105 24.6145L25.3205 21.7344Z" fill="#FFCE00"/>
<path d="M26.9271 18.8601L24.2283 17.3515L22.6212 20.2265L25.3201 21.7351L26.9271 18.8601Z" fill="#FFCE00"/>
<path d="M28.5372 15.9797L25.8384 14.4711L24.2284 17.3512L26.9273 18.8598L28.5372 15.9797Z" fill="#FF9100"/>
<path d="M14.5941 34.6195L11.8953 33.1109L10.2853 35.991L12.9842 37.4996L14.5941 34.6195Z" fill="#FF9100"/>
<path d="M16.2016 31.7436L13.5027 30.235L11.8956 33.1101L14.5945 34.6186L16.2016 31.7436Z" fill="#FF9100"/>
<path d="M17.8087 28.8688L15.1099 27.3602L13.5028 30.2352L16.2017 31.7438L17.8087 28.8688Z" fill="#FFCE00"/>
<path d="M19.4184 25.9888L17.8084 28.869L15.1096 27.3604L16.7195 24.4802L19.4038 25.9807L19.4184 25.9888Z" fill="#FFCE00"/>
<path d="M21.0119 23.1058L19.4048 25.9809L16.7205 24.4804L16.7059 24.4723L18.313 21.5973L21.0119 23.1058Z" fill="#FFCE00"/>
<path d="M22.6217 20.2259L19.9229 18.7173L18.3129 21.5974L21.0118 23.106L22.6217 20.2259Z" fill="#FF9100"/>
<path d="M24.2284 17.3516L21.5295 15.843L19.9225 18.718L22.6214 20.2266L24.2284 17.3516Z" fill="#FF9100"/>
<path d="M15.11 27.3603L12.4111 25.8517L10.8041 28.7267L13.503 30.2353L15.11 27.3603Z" fill="#FF9100"/>
<path d="M16.7247 24.483L15.1148 27.3632L12.4111 25.8519L14.021 22.9717L16.7102 24.4749L16.7247 24.483Z" fill="#FF9100"/>
<path d="M18.3136 21.5975L16.7065 24.4725L14.0173 22.9693L14.0028 22.9612L15.6099 20.0862L18.3136 21.5975Z" fill="#FF9100"/>
</g>
<defs>
<filter id="filter0_f_40_6458" x="-3" y="2" width="66.0339" height="67.1047" filterUnits="userSpaceOnUse" color-interpolation-filters="sRGB">
<feFlood flood-opacity="0" result="BackgroundImageFix"/>
<feBlend mode="normal" in="SourceGraphic" in2="BackgroundImageFix" result="shape"/>
<feGaussianBlur stdDeviation="1.5" result="effect1_foregroundBlur_40_6458"/>
</filter>
</defs>
</svg>
