<svg width="347" height="69" viewBox="0 0 347 69" fill="none" xmlns="http://www.w3.org/2000/svg">
<rect x="14.8242" width="317.341" height="2.654" fill="#451B0B"/>
<rect x="14.8242" y="66.346" width="317.341" height="2.654" fill="#451B0B"/>
<rect x="332.174" y="2.65733" width="5.9316" height="2.654" fill="#451B0B"/>
<rect width="5.9316" height="2.654" transform="matrix(-1 0 0 1 14.8242 2.65733)" fill="#451B0B"/>
<rect x="338.107" y="5.31007" width="2.9658" height="2.654" fill="#451B0B"/>
<rect width="2.9658" height="2.654" transform="matrix(-1 0 0 1 8.9043 5.31007)" fill="#451B0B"/>
<rect x="341.07" y="7.95821" width="2.9658" height="2.654" fill="#451B0B"/>
<rect width="2.9658" height="2.654" transform="matrix(-1 0 0 1 5.94336 7.95821)" fill="#451B0B"/>
<rect x="344.033" y="10.6155" width="2.9658" height="47.772" fill="#451B0B"/>
<rect width="2.9658" height="47.772" transform="matrix(-1 0 0 1 2.9668 10.6155)" fill="#451B0B"/>
<rect x="341.07" y="58.3878" width="2.9658" height="2.654" fill="#451B0B"/>
<rect width="2.9658" height="2.654" transform="matrix(-1 0 0 1 5.94336 58.3878)" fill="#451B0B"/>
<rect x="338.107" y="61.0451" width="2.9658" height="2.654" fill="#451B0B"/>
<rect width="2.9658" height="2.654" transform="matrix(-1 0 0 1 8.9043 61.0451)" fill="#451B0B"/>
<rect x="332.174" y="63.6932" width="5.9316" height="2.654" fill="#451B0B"/>
<rect width="5.9316" height="2.654" transform="matrix(-1 0 0 1 14.8242 63.6932)" fill="#451B0B"/>
<rect x="14.8242" y="2.65733" width="317.341" height="63.6961" fill="#BC8C61"/>
<rect x="332.174" y="5.31007" width="5.9316" height="58.3881" fill="#BC8C61"/>
<rect x="338.107" y="7.95821" width="2.9658" height="53.08" fill="#BC8C61"/>
<rect x="341.07" y="10.6155" width="2.9658" height="47.772" fill="#BC8C61"/>
<rect x="2.9668" y="10.6155" width="2.9658" height="47.772" fill="#BC8C61"/>
<rect x="5.94336" y="7.95821" width="2.9658" height="53.08" fill="#BC8C61"/>
<rect x="8.9043" y="5.31007" width="5.9316" height="58.3881" fill="#BC8C61"/>
<rect x="22.0566" y="5.88617" width="302.348" height="2.18565" fill="#B47C57"/>
<rect x="22.0566" y="60.527" width="302.348" height="2.18565" fill="#B47C57"/>
<rect x="324.395" y="8.07455" width="5.65137" height="2.18565" fill="#B47C57"/>
<rect width="5.65137" height="2.18565" transform="matrix(-1 0 0 1 22.0566 8.07455)" fill="#B47C57"/>
<rect x="330.053" y="10.2538" width="2.82568" height="2.18565" fill="#B47C57"/>
<rect width="2.82568" height="2.18565" transform="matrix(-1 0 0 1 16.3945 10.2538)" fill="#B47C57"/>
<rect x="332.873" y="12.4422" width="2.82568" height="2.18565" fill="#B47C57"/>
<rect width="2.82568" height="2.18565" transform="matrix(-1 0 0 1 13.5801 12.4422)" fill="#B47C57"/>
<rect x="335.701" y="14.6305" width="2.82568" height="39.3417" fill="#B47C57"/>
<rect width="2.82568" height="39.3417" transform="matrix(-1 0 0 1 10.7539 14.6305)" fill="#B47C57"/>
<rect x="332.873" y="53.9665" width="2.82568" height="2.18565" fill="#B47C57"/>
<rect width="2.82568" height="2.18565" transform="matrix(-1 0 0 1 13.5801 53.9665)" fill="#B47C57"/>
<rect x="330.053" y="56.1548" width="2.82568" height="2.18565" fill="#B47C57"/>
<rect width="2.82568" height="2.18565" transform="matrix(-1 0 0 1 16.3945 56.1548)" fill="#B47C57"/>
<rect x="324.395" y="58.3432" width="5.65137" height="2.18565" fill="#B47C57"/>
<rect width="5.65137" height="2.18565" transform="matrix(-1 0 0 1 22.0566 58.3432)" fill="#B47C57"/>
<rect x="22.0566" y="8.07455" width="302.348" height="52.4556" fill="#FCBD80"/>
<rect x="324.395" y="10.2538" width="5.65137" height="48.0843" fill="#FCBD80"/>
<rect x="330.053" y="12.4422" width="2.82568" height="43.713" fill="#FCBD80"/>
<rect x="332.873" y="14.6305" width="2.82568" height="39.3417" fill="#FCBD80"/>
<rect x="10.7539" y="14.6305" width="2.82568" height="39.3417" fill="#FCBD80"/>
<rect x="13.5801" y="12.4422" width="2.82568" height="43.713" fill="#FCBD80"/>
<rect x="16.3945" y="10.2538" width="5.65137" height="48.0843" fill="#FCBD80"/>
</svg>
