<svg width="111" height="111" viewBox="0 0 111 111" fill="none" xmlns="http://www.w3.org/2000/svg">
<g clip-path="url(#clip0_1_2651)">
<path d="M111 43.4348V28.9565H103.761V7.23906H96.5217V0H89.2826H74.8042V7.23906H67.5652V14.4783H65.1522H45.8478H43.4348V7.23906H36.1958V0H21.7174H14.4783V7.23906H7.23906V28.9565H0V36.1958V43.4348H7.23906V50.6739V103.761H7.2408V103.762H14.4783V111H43.4348H67.5652H96.5217V103.762H103.762V50.6752H103.761V43.4348H111Z" fill="#2DBDEF"/>
<path d="M96.5217 7.23906V0H89.2826H74.8043V7.23906H67.5652V14.4783H65.1522H45.8478H43.4348V7.23906H36.1958V0H21.7174H14.4784V7.23906H7.23907V36.1958H19.3043H21.7174H43.4348V111H67.5652V36.1958H89.2826H98.9348H103.761V7.23906H96.5217Z" fill="#BBF245"/>
<path d="M36.1958 21.7174V14.4783H21.7174V36.1957H43.4348V21.7174H36.1958Z" fill="#98CC28"/>
<path d="M74.8042 21.7174V14.4783H89.2826V36.1957H67.5652V21.7174H74.8042Z" fill="#98CC28"/>
<path d="M43.4348 7.23907H36.1957V14.4781H43.4348V7.23907Z" fill="black"/>
<path d="M36.1957 0H14.4783V7.23906H36.1957V0Z" fill="black"/>
<path d="M74.8042 7.23907H67.5652V14.4781H74.8042V7.23907Z" fill="black"/>
<path d="M67.5652 14.4783H43.4348V21.7174H67.5652V14.4783Z" fill="black"/>
<path d="M111 28.9565H103.761V7.23906H96.5219V0H74.8042V7.23906H96.5219L96.5217 28.9565H74.8042V21.7174H67.5652V28.9565H43.4348V21.7174H36.1958V28.9565H14.4783V7.23906H7.23906V28.9565H0V36.1955V43.4346H7.23906V50.6737V103.761H14.4781V111H96.5217V103.761H67.5652V50.6739H96.5217V103.761H103.761V43.4348H111V28.9565ZM60.3261 36.1958V43.4348H50.6739V36.1958H60.3261ZM43.4348 36.1958V43.4348H14.4783H7.23906V36.1958H43.4348ZM14.4783 103.761V50.6739H43.4348V103.761H14.4783ZM60.3261 103.761H50.6739V50.6739H60.3261V103.761ZM103.761 43.4348H96.5219H67.5652V36.1958H103.761V43.4348Z" fill="black"/>
</g>
<defs>
<clipPath id="clip0_1_2651">
<rect width="111" height="111" fill="white"/>
</clipPath>
</defs>
</svg>
