<svg width="25" height="24" viewBox="0 0 25 24" fill="none" xmlns="http://www.w3.org/2000/svg">
<g clip-path="url(#clip0_33_7674)">
<path d="M19.5001 20.1822H19.0713V20.637H19.5001V20.1822Z" fill="#C16000"/>
<path d="M19.5001 19.7274H19.0713V20.1822H19.5001V19.7274Z" fill="#C16000"/>
<path d="M19.5001 19.2726H19.0713V19.7274H19.5001V19.2726Z" fill="#C16000"/>
<path d="M19.5001 18.8178H19.0713V19.2726H19.5001V18.8178Z" fill="#C16000"/>
<path d="M19.5001 18.3644H19.0713V18.8178H19.5001V18.3644Z" fill="#C16000"/>
<path d="M19.5001 17.9096H19.0713V18.3644H19.5001V17.9096Z" fill="#C16000"/>
<path d="M19.0714 21.0918H18.6426V21.5452H19.0714V21.0918Z" fill="#C16000"/>
<path d="M19.0714 20.637H18.6426V21.0918H19.0714V20.637Z" fill="#C16000"/>
<path d="M19.0714 20.1822H18.6426V20.637H19.0714V20.1822Z" fill="#FFAA0D"/>
<path d="M19.0714 19.7274H18.6426V20.1822H19.0714V19.7274Z" fill="#FFAA0D"/>
<path d="M19.0714 19.2726H18.6426V19.7274H19.0714V19.2726Z" fill="#FFAA0D"/>
<path d="M19.0714 18.8178H18.6426V19.2726H19.0714V18.8178Z" fill="#FFAA0D"/>
<path d="M19.0714 18.3644H18.6426V18.8178H19.0714V18.3644Z" fill="#FFAA0D"/>
<path d="M19.0714 17.9096H18.6426V18.3644H19.0714V17.9096Z" fill="#FFAA0D"/>
<path d="M19.0714 17.4548H18.6426V17.9096H19.0714V17.4548Z" fill="#C16000"/>
<path d="M19.0714 17H18.6426V17.4548H19.0714V17Z" fill="#C16000"/>
<path d="M18.6423 21.5452H18.2148V22H18.6423V21.5452Z" fill="#C16000"/>
<path d="M18.6423 21.0918H18.2148V21.5452H18.6423V21.0918Z" fill="#FFAA0D"/>
<path d="M18.6423 20.637H18.2148V21.0918H18.6423V20.637Z" fill="#FFAA0D"/>
<path d="M18.6423 20.1822H18.2148V20.637H18.6423V20.1822Z" fill="#FFAA0D"/>
<path d="M18.6423 19.7274H18.2148V20.1822H18.6423V19.7274Z" fill="#FFAA0D"/>
<path d="M18.6423 19.2726H18.2148V19.7274H18.6423V19.2726Z" fill="#FFAA0D"/>
<path d="M18.6423 18.8178H18.2148V19.2726H18.6423V18.8178Z" fill="#FFAA0D"/>
<path d="M18.6423 18.3644H18.2148V18.8178H18.6423V18.3644Z" fill="#FFAA0D"/>
<path d="M18.6423 17.9096H18.2148V18.3644H18.6423V17.9096Z" fill="#FFAA0D"/>
<path d="M18.6423 17.4548H18.2148V17.9096H18.6423V17.4548Z" fill="#FFAA0D"/>
<path d="M18.6423 17H18.2148V17.4548H18.6423V17Z" fill="#FFAA0D"/>
<path d="M18.6423 16.5452H18.2148V17H18.6423V16.5452Z" fill="#C16000"/>
<path d="M18.2149 21.0918H17.7861V21.5452H18.2149V21.0918Z" fill="#C16000"/>
<path d="M18.2149 20.637H17.7861V21.0918H18.2149V20.637Z" fill="#C16000"/>
<path d="M18.2149 20.1822H17.7861V20.637H18.2149V20.1822Z" fill="#C16000"/>
<path d="M18.2149 19.7274H17.7861V20.1822H18.2149V19.7274Z" fill="#C16000"/>
<path d="M18.2149 19.2726H17.7861V19.7274H18.2149V19.2726Z" fill="#FFAA0D"/>
<path d="M18.2149 18.8178H17.7861V19.2726H18.2149V18.8178Z" fill="#FFAA0D"/>
<path d="M18.2149 18.3644H17.7861V18.8178H18.2149V18.3644Z" fill="#FFAA0D"/>
<path d="M18.2149 17.9096H17.7861V18.3644H18.2149V17.9096Z" fill="#FFAA0D"/>
<path d="M18.2149 17.4548H17.7861V17.9096H18.2149V17.4548Z" fill="#FFAA0D"/>
<path d="M18.2149 17H17.7861V17.4548H18.2149V17Z" fill="#FFAA0D"/>
<path d="M18.2149 16.5452H17.7861V17H18.2149V16.5452Z" fill="#FFAA0D"/>
<path d="M18.2149 16.0904H17.7861V16.5452H18.2149V16.0904Z" fill="#C16000"/>
<path d="M17.7862 19.2726H17.3574V19.7274H17.7862V19.2726Z" fill="#C16000"/>
<path d="M17.7862 18.8178H17.3574V19.2726H17.7862V18.8178Z" fill="#FFAA0D"/>
<path d="M17.7862 18.3644H17.3574V18.8178H17.7862V18.3644Z" fill="#FFAA0D"/>
<path d="M17.7862 17.9096H17.3574V18.3644H17.7862V17.9096Z" fill="#FFAA0D"/>
<path d="M17.7862 17.4548H17.3574V17.9096H17.7862V17.4548Z" fill="#FFAA0D"/>
<path d="M17.7862 17H17.3574V17.4548H17.7862V17Z" fill="#FFAA0D"/>
<path d="M17.7862 16.5452H17.3574V17H17.7862V16.5452Z" fill="#FFAA0D"/>
<path d="M17.7862 16.0904H17.3574V16.5452H17.7862V16.0904Z" fill="#FFAA0D"/>
<path d="M17.7862 15.637H17.3574V16.0904H17.7862V15.637Z" fill="#C16000"/>
<path d="M17.3575 18.8178H16.9287V19.2726H17.3575V18.8178Z" fill="#C16000"/>
<path d="M17.3575 18.3644H16.9287V18.8178H17.3575V18.3644Z" fill="#FFAA0D"/>
<path d="M17.3575 17.9096H16.9287V18.3644H17.3575V17.9096Z" fill="#FFAA0D"/>
<path d="M17.3575 17.4548H16.9287V17.9096H17.3575V17.4548Z" fill="#FFAA0D"/>
<path d="M17.3575 17H16.9287V17.4548H17.3575V17Z" fill="#FFAA0D"/>
<path d="M17.3575 16.5452H16.9287V17H17.3575V16.5452Z" fill="#FFAA0D"/>
<path d="M17.3575 16.0904H16.9287V16.5452H17.3575V16.0904Z" fill="#FFAA0D"/>
<path d="M17.3575 15.637H16.9287V16.0904H17.3575V15.637Z" fill="#FFAA0D"/>
<path d="M17.3575 15.1822H16.9287V15.637H17.3575V15.1822Z" fill="#C16000"/>
<path d="M16.9283 18.3644H16.4995V18.8178H16.9283V18.3644Z" fill="#C16000"/>
<path d="M16.9283 17.9096H16.4995V18.3644H16.9283V17.9096Z" fill="#FFAA0D"/>
<path d="M16.9283 17.4548H16.4995V17.9096H16.9283V17.4548Z" fill="#FFAA0D"/>
<path d="M16.9283 17H16.4995V17.4548H16.9283V17Z" fill="#FFAA0D"/>
<path d="M16.9283 16.5452H16.4995V17H16.9283V16.5452Z" fill="#FFAA0D"/>
<path d="M16.9283 16.0904H16.4995V16.5452H16.9283V16.0904Z" fill="#FFAA0D"/>
<path d="M16.9283 15.637H16.4995V16.0904H16.9283V15.637Z" fill="#FFAA0D"/>
<path d="M16.9283 15.1822H16.4995V15.637H16.9283V15.1822Z" fill="#C16000"/>
<path d="M16.4996 18.3644H16.0708V18.8178H16.4996V18.3644Z" fill="#F30000"/>
<path d="M16.4996 17.9096H16.0708V18.3644H16.4996V17.9096Z" fill="#F30000"/>
<path d="M16.4996 17.4548H16.0708V17.9096H16.4996V17.4548Z" fill="#F30000"/>
<path d="M16.4996 17H16.0708V17.4548H16.4996V17Z" fill="#F30000"/>
<path d="M16.4996 16.5452H16.0708V17H16.4996V16.5452Z" fill="#F30000"/>
<path d="M16.4996 16.0904H16.0708V16.5452H16.4996V16.0904Z" fill="#F30000"/>
<path d="M16.4996 15.637H16.0708V16.0904H16.4996V15.637Z" fill="#F30000"/>
<path d="M16.4996 15.1822H16.0708V15.637H16.4996V15.1822Z" fill="#F30000"/>
<path d="M16.4996 14.7274H16.0708V15.1822H16.4996V14.7274Z" fill="#F30000"/>
<path d="M16.4996 14.2726H16.0708V14.7274H16.4996V14.2726Z" fill="#F30000"/>
<path d="M16.4996 13.8178H16.0708V14.2726H16.4996V13.8178Z" fill="#F30000"/>
<path d="M16.4996 13.363H16.0708V13.8178H16.4996V13.363Z" fill="#F30000"/>
<path d="M16.4996 12.9096H16.0708V13.363H16.4996V12.9096Z" fill="#F30000"/>
<path d="M16.4996 12.4548H16.0708V12.9096H16.4996V12.4548Z" fill="#F30000"/>
<path d="M16.4996 12H16.0708V12.4548H16.4996V12Z" fill="#F30000"/>
<path d="M16.4996 11.5452H16.0708V12H16.4996V11.5452Z" fill="#F30000"/>
<path d="M16.4996 11.0904H16.0708V11.5452H16.4996V11.0904Z" fill="#F30000"/>
<path d="M16.4996 10.6356H16.0708V11.0904H16.4996V10.6356Z" fill="#F30000"/>
<path d="M16.4996 10.1822H16.0708V10.6356H16.4996V10.1822Z" fill="#F30000"/>
<path d="M16.4996 9.72742H16.0708V10.1822H16.4996V9.72742Z" fill="#F30000"/>
<path d="M16.4996 9.27258H16.0708V9.72739H16.4996V9.27258Z" fill="#F30000"/>
<path d="M16.4996 8.81778H16.0708V9.27259H16.4996V8.81778Z" fill="#F30000"/>
<path d="M16.4996 8.36298H16.0708V8.81778H16.4996V8.36298Z" fill="#F30000"/>
<path d="M16.4996 7.90817H16.0708V8.36298H16.4996V7.90817Z" fill="#F30000"/>
<path d="M16.4996 7.4548H16.0708V7.90818H16.4996V7.4548Z" fill="#F30000"/>
<path d="M16.071 18.8178H15.6436V19.2726H16.071V18.8178Z" fill="#F30000"/>
<path d="M16.071 18.3644H15.6436V18.8178H16.071V18.3644Z" fill="white"/>
<path d="M16.071 17.9096H15.6436V18.3644H16.071V17.9096Z" fill="white"/>
<path d="M16.071 17.4548H15.6436V17.9096H16.071V17.4548Z" fill="white"/>
<path d="M16.071 17H15.6436V17.4548H16.071V17Z" fill="white"/>
<path d="M16.071 16.5452H15.6436V17H16.071V16.5452Z" fill="white"/>
<path d="M16.071 16.0904H15.6436V16.5452H16.071V16.0904Z" fill="white"/>
<path d="M16.071 15.637H15.6436V16.0904H16.071V15.637Z" fill="white"/>
<path d="M16.071 15.1822H15.6436V15.637H16.071V15.1822Z" fill="white"/>
<path d="M16.071 14.7274H15.6436V15.1822H16.071V14.7274Z" fill="white"/>
<path d="M16.071 14.2726H15.6436V14.7274H16.071V14.2726Z" fill="white"/>
<path d="M16.071 13.8178H15.6436V14.2726H16.071V13.8178Z" fill="white"/>
<path d="M16.071 13.363H15.6436V13.8178H16.071V13.363Z" fill="#A3B2B5"/>
<path d="M16.071 12.9096H15.6436V13.363H16.071V12.9096Z" fill="#E23333"/>
<path d="M16.071 12.4548H15.6436V12.9096H16.071V12.4548Z" fill="#E23333"/>
<path d="M16.071 12H15.6436V12.4548H16.071V12Z" fill="#E23333"/>
<path d="M16.071 11.5452H15.6436V12H16.071V11.5452Z" fill="#E23333"/>
<path d="M16.071 11.0904H15.6436V11.5452H16.071V11.0904Z" fill="#E23333"/>
<path d="M16.071 10.6356H15.6436V11.0904H16.071V10.6356Z" fill="#E23333"/>
<path d="M16.071 10.1822H15.6436V10.6356H16.071V10.1822Z" fill="#E23333"/>
<path d="M16.071 9.72742H15.6436V10.1822H16.071V9.72742Z" fill="#E23333"/>
<path d="M16.071 9.27258H15.6436V9.72739H16.071V9.27258Z" fill="#E23333"/>
<path d="M16.071 8.81778H15.6436V9.27259H16.071V8.81778Z" fill="#E23333"/>
<path d="M16.071 8.36298H15.6436V8.81778H16.071V8.36298Z" fill="#E23333"/>
<path d="M16.071 7.90817H15.6436V8.36298H16.071V7.90817Z" fill="#E23333"/>
<path d="M16.071 7.4548H15.6436V7.90818H16.071V7.4548Z" fill="#E23333"/>
<path d="M16.071 7H15.6436V7.45481H16.071V7Z" fill="#F30000"/>
<path d="M15.6436 19.2726H15.2148V19.7274H15.6436V19.2726Z" fill="#F30000"/>
<path d="M15.6436 18.8178H15.2148V19.2726H15.6436V18.8178Z" fill="white"/>
<path d="M15.6436 18.3644H15.2148V18.8178H15.6436V18.3644Z" fill="white"/>
<path d="M15.6436 17.9096H15.2148V18.3644H15.6436V17.9096Z" fill="white"/>
<path d="M15.6436 17.4548H15.2148V17.9096H15.6436V17.4548Z" fill="white"/>
<path d="M15.6436 17H15.2148V17.4548H15.6436V17Z" fill="white"/>
<path d="M15.6436 16.5452H15.2148V17H15.6436V16.5452Z" fill="white"/>
<path d="M15.6436 16.0904H15.2148V16.5452H15.6436V16.0904Z" fill="white"/>
<path d="M15.6436 15.637H15.2148V16.0904H15.6436V15.637Z" fill="white"/>
<path d="M15.6436 15.1822H15.2148V15.637H15.6436V15.1822Z" fill="white"/>
<path d="M15.6436 14.7274H15.2148V15.1822H15.6436V14.7274Z" fill="white"/>
<path d="M15.6436 14.2726H15.2148V14.7274H15.6436V14.2726Z" fill="white"/>
<path d="M15.6436 13.8178H15.2148V14.2726H15.6436V13.8178Z" fill="white"/>
<path d="M15.6436 13.363H15.2148V13.8178H15.6436V13.363Z" fill="#A3B2B5"/>
<path d="M15.6436 12.9096H15.2148V13.363H15.6436V12.9096Z" fill="#E23333"/>
<path d="M15.6436 12.4548H15.2148V12.9096H15.6436V12.4548Z" fill="#E23333"/>
<path d="M15.6436 12H15.2148V12.4548H15.6436V12Z" fill="#E23333"/>
<path d="M15.6436 11.5452H15.2148V12H15.6436V11.5452Z" fill="#E23333"/>
<path d="M15.6436 11.0904H15.2148V11.5452H15.6436V11.0904Z" fill="#E23333"/>
<path d="M15.6436 10.6356H15.2148V11.0904H15.6436V10.6356Z" fill="#E23333"/>
<path d="M15.6436 10.1822H15.2148V10.6356H15.6436V10.1822Z" fill="#E23333"/>
<path d="M15.6436 9.72742H15.2148V10.1822H15.6436V9.72742Z" fill="#E23333"/>
<path d="M15.6436 9.27258H15.2148V9.72739H15.6436V9.27258Z" fill="#E23333"/>
<path d="M15.6436 8.81778H15.2148V9.27259H15.6436V8.81778Z" fill="#E23333"/>
<path d="M15.6436 8.36298H15.2148V8.81778H15.6436V8.36298Z" fill="#E23333"/>
<path d="M15.6436 7.90817H15.2148V8.36298H15.6436V7.90817Z" fill="#E23333"/>
<path d="M15.6436 7.4548H15.2148V7.90818H15.6436V7.4548Z" fill="#E23333"/>
<path d="M15.6436 7H15.2148V7.45481H15.6436V7Z" fill="#E23333"/>
<path d="M15.6436 6.5452H15.2148V7H15.6436V6.5452Z" fill="#F30000"/>
<path d="M15.2144 19.2726H14.7856V19.7274H15.2144V19.2726Z" fill="#F30000"/>
<path d="M15.2144 18.8178H14.7856V19.2726H15.2144V18.8178Z" fill="white"/>
<path d="M15.2144 18.3644H14.7856V18.8178H15.2144V18.3644Z" fill="white"/>
<path d="M15.2144 17.9096H14.7856V18.3644H15.2144V17.9096Z" fill="white"/>
<path d="M15.2144 17.4548H14.7856V17.9096H15.2144V17.4548Z" fill="white"/>
<path d="M15.2144 17H14.7856V17.4548H15.2144V17Z" fill="white"/>
<path d="M15.2144 16.5452H14.7856V17H15.2144V16.5452Z" fill="white"/>
<path d="M15.2144 16.0904H14.7856V16.5452H15.2144V16.0904Z" fill="white"/>
<path d="M15.2144 15.637H14.7856V16.0904H15.2144V15.637Z" fill="white"/>
<path d="M15.2144 15.1822H14.7856V15.637H15.2144V15.1822Z" fill="white"/>
<path d="M15.2144 14.7274H14.7856V15.1822H15.2144V14.7274Z" fill="white"/>
<path d="M15.2144 14.2726H14.7856V14.7274H15.2144V14.2726Z" fill="white"/>
<path d="M15.2144 13.8178H14.7856V14.2726H15.2144V13.8178Z" fill="white"/>
<path d="M15.2144 13.363H14.7856V13.8178H15.2144V13.363Z" fill="#A3B2B5"/>
<path d="M15.2144 12.9096H14.7856V13.363H15.2144V12.9096Z" fill="#E23333"/>
<path d="M15.2144 12.4548H14.7856V12.9096H15.2144V12.4548Z" fill="#E23333"/>
<path d="M15.2144 12H14.7856V12.4548H15.2144V12Z" fill="#E23333"/>
<path d="M15.2144 11.5452H14.7856V12H15.2144V11.5452Z" fill="#E23333"/>
<path d="M15.2144 11.0904H14.7856V11.5452H15.2144V11.0904Z" fill="#E23333"/>
<path d="M15.2144 10.6356H14.7856V11.0904H15.2144V10.6356Z" fill="#E23333"/>
<path d="M15.2144 10.1822H14.7856V10.6356H15.2144V10.1822Z" fill="#E23333"/>
<path d="M15.2144 9.72742H14.7856V10.1822H15.2144V9.72742Z" fill="#E23333"/>
<path d="M15.2144 9.27258H14.7856V9.72739H15.2144V9.27258Z" fill="#E23333"/>
<path d="M15.2144 8.81778H14.7856V9.27259H15.2144V8.81778Z" fill="#E23333"/>
<path d="M15.2144 8.36298H14.7856V8.81778H15.2144V8.36298Z" fill="#E23333"/>
<path d="M15.2144 7.90817H14.7856V8.36298H15.2144V7.90817Z" fill="#E23333"/>
<path d="M15.2144 7.4548H14.7856V7.90818H15.2144V7.4548Z" fill="#E23333"/>
<path d="M15.2144 7H14.7856V7.45481H15.2144V7Z" fill="#E23333"/>
<path d="M15.2144 6.5452H14.7856V7H15.2144V6.5452Z" fill="#E23333"/>
<path d="M15.2144 6.09039H14.7856V6.5452H15.2144V6.09039Z" fill="#F30000"/>
<path d="M14.7857 19.2726H14.3569V19.7274H14.7857V19.2726Z" fill="#F30000"/>
<path d="M14.7857 18.8178H14.3569V19.2726H14.7857V18.8178Z" fill="white"/>
<path d="M14.7857 18.3644H14.3569V18.8178H14.7857V18.3644Z" fill="white"/>
<path d="M14.7857 17.9096H14.3569V18.3644H14.7857V17.9096Z" fill="white"/>
<path d="M14.7857 17.4548H14.3569V17.9096H14.7857V17.4548Z" fill="white"/>
<path d="M14.7857 17H14.3569V17.4548H14.7857V17Z" fill="white"/>
<path d="M14.7857 16.5452H14.3569V17H14.7857V16.5452Z" fill="white"/>
<path d="M14.7857 16.0904H14.3569V16.5452H14.7857V16.0904Z" fill="white"/>
<path d="M14.7857 15.637H14.3569V16.0904H14.7857V15.637Z" fill="white"/>
<path d="M14.7857 15.1822H14.3569V15.637H14.7857V15.1822Z" fill="white"/>
<path d="M14.7857 14.7274H14.3569V15.1822H14.7857V14.7274Z" fill="white"/>
<path d="M14.7857 14.2726H14.3569V14.7274H14.7857V14.2726Z" fill="white"/>
<path d="M14.7857 13.8178H14.3569V14.2726H14.7857V13.8178Z" fill="white"/>
<path d="M14.7857 13.363H14.3569V13.8178H14.7857V13.363Z" fill="#A3B2B5"/>
<path d="M14.7857 12.9096H14.3569V13.363H14.7857V12.9096Z" fill="#E23333"/>
<path d="M14.7857 12.4548H14.3569V12.9096H14.7857V12.4548Z" fill="#E23333"/>
<path d="M14.7857 12H14.3569V12.4548H14.7857V12Z" fill="#E23333"/>
<path d="M14.7857 11.5452H14.3569V12H14.7857V11.5452Z" fill="#E23333"/>
<path d="M14.7857 11.0904H14.3569V11.5452H14.7857V11.0904Z" fill="#E23333"/>
<path d="M14.7857 10.6356H14.3569V11.0904H14.7857V10.6356Z" fill="#E23333"/>
<path d="M14.7857 10.1822H14.3569V10.6356H14.7857V10.1822Z" fill="#E23333"/>
<path d="M14.7857 9.72742H14.3569V10.1822H14.7857V9.72742Z" fill="#E23333"/>
<path d="M14.7857 9.27258H14.3569V9.72739H14.7857V9.27258Z" fill="#E23333"/>
<path d="M14.7857 8.81778H14.3569V9.27259H14.7857V8.81778Z" fill="#E23333"/>
<path d="M14.7857 8.36298H14.3569V8.81778H14.7857V8.36298Z" fill="#E23333"/>
<path d="M14.7857 7.90817H14.3569V8.36298H14.7857V7.90817Z" fill="#E23333"/>
<path d="M14.7857 7.4548H14.3569V7.90818H14.7857V7.4548Z" fill="#E23333"/>
<path d="M14.7857 7H14.3569V7.45481H14.7857V7Z" fill="#E23333"/>
<path d="M14.7857 6.5452H14.3569V7H14.7857V6.5452Z" fill="#E23333"/>
<path d="M14.7857 6.09039H14.3569V6.5452H14.7857V6.09039Z" fill="#E23333"/>
<path d="M14.7857 5.63559H14.3569V6.0904H14.7857V5.63559Z" fill="#F30000"/>
<path d="M14.357 19.2726H13.9282V19.7274H14.357V19.2726Z" fill="#F30000"/>
<path d="M14.357 18.8178H13.9282V19.2726H14.357V18.8178Z" fill="white"/>
<path d="M14.357 18.3644H13.9282V18.8178H14.357V18.3644Z" fill="white"/>
<path d="M14.357 17.9096H13.9282V18.3644H14.357V17.9096Z" fill="white"/>
<path d="M14.357 17.4548H13.9282V17.9096H14.357V17.4548Z" fill="white"/>
<path d="M14.357 17H13.9282V17.4548H14.357V17Z" fill="white"/>
<path d="M14.357 16.5452H13.9282V17H14.357V16.5452Z" fill="white"/>
<path d="M14.357 16.0904H13.9282V16.5452H14.357V16.0904Z" fill="white"/>
<path d="M14.357 15.637H13.9282V16.0904H14.357V15.637Z" fill="white"/>
<path d="M14.357 15.1822H13.9282V15.637H14.357V15.1822Z" fill="white"/>
<path d="M14.357 14.7274H13.9282V15.1822H14.357V14.7274Z" fill="white"/>
<path d="M14.357 14.2726H13.9282V14.7274H14.357V14.2726Z" fill="white"/>
<path d="M14.357 13.8178H13.9282V14.2726H14.357V13.8178Z" fill="white"/>
<path d="M14.357 13.363H13.9282V13.8178H14.357V13.363Z" fill="#A3B2B5"/>
<path d="M14.357 12.9096H13.9282V13.363H14.357V12.9096Z" fill="#E23333"/>
<path d="M14.357 12.4548H13.9282V12.9096H14.357V12.4548Z" fill="#E23333"/>
<path d="M14.357 12H13.9282V12.4548H14.357V12Z" fill="#E23333"/>
<path d="M14.357 11.5452H13.9282V12H14.357V11.5452Z" fill="#E23333"/>
<path d="M14.357 11.0904H13.9282V11.5452H14.357V11.0904Z" fill="#E23333"/>
<path d="M14.357 10.6356H13.9282V11.0904H14.357V10.6356Z" fill="#E23333"/>
<path d="M14.357 10.1822H13.9282V10.6356H14.357V10.1822Z" fill="#E23333"/>
<path d="M14.357 9.72742H13.9282V10.1822H14.357V9.72742Z" fill="#E23333"/>
<path d="M14.357 9.27258H13.9282V9.72739H14.357V9.27258Z" fill="#E23333"/>
<path d="M14.357 8.81778H13.9282V9.27259H14.357V8.81778Z" fill="#E23333"/>
<path d="M14.357 8.36298H13.9282V8.81778H14.357V8.36298Z" fill="#E23333"/>
<path d="M14.357 7.90817H13.9282V8.36298H14.357V7.90817Z" fill="#E23333"/>
<path d="M14.357 7.4548H13.9282V7.90818H14.357V7.4548Z" fill="#E23333"/>
<path d="M14.357 7H13.9282V7.45481H14.357V7Z" fill="#E23333"/>
<path d="M14.357 6.5452H13.9282V7H14.357V6.5452Z" fill="#E23333"/>
<path d="M14.357 6.09039H13.9282V6.5452H14.357V6.09039Z" fill="#E23333"/>
<path d="M14.357 5.63559H13.9282V6.0904H14.357V5.63559Z" fill="#E23333"/>
<path d="M14.357 5.18079H13.9282V5.63559H14.357V5.18079Z" fill="#F30000"/>
<path d="M13.9283 19.2726H13.4995V19.7274H13.9283V19.2726Z" fill="#F30000"/>
<path d="M13.9283 18.8178H13.4995V19.2726H13.9283V18.8178Z" fill="white"/>
<path d="M13.9283 18.3644H13.4995V18.8178H13.9283V18.3644Z" fill="white"/>
<path d="M13.9283 17.9096H13.4995V18.3644H13.9283V17.9096Z" fill="white"/>
<path d="M13.9283 17.4548H13.4995V17.9096H13.9283V17.4548Z" fill="white"/>
<path d="M13.9283 17H13.4995V17.4548H13.9283V17Z" fill="white"/>
<path d="M13.9283 16.5452H13.4995V17H13.9283V16.5452Z" fill="white"/>
<path d="M13.9283 16.0904H13.4995V16.5452H13.9283V16.0904Z" fill="white"/>
<path d="M13.9283 15.637H13.4995V16.0904H13.9283V15.637Z" fill="white"/>
<path d="M13.9283 15.1822H13.4995V15.637H13.9283V15.1822Z" fill="white"/>
<path d="M13.9283 14.7274H13.4995V15.1822H13.9283V14.7274Z" fill="white"/>
<path d="M13.9283 14.2726H13.4995V14.7274H13.9283V14.2726Z" fill="white"/>
<path d="M13.9283 13.8178H13.4995V14.2726H13.9283V13.8178Z" fill="white"/>
<path d="M13.9283 13.363H13.4995V13.8178H13.9283V13.363Z" fill="#A3B2B5"/>
<path d="M13.9283 12.9096H13.4995V13.363H13.9283V12.9096Z" fill="#E23333"/>
<path d="M13.9283 12.4548H13.4995V12.9096H13.9283V12.4548Z" fill="#E23333"/>
<path d="M13.9283 12H13.4995V12.4548H13.9283V12Z" fill="#E23333"/>
<path d="M13.9283 11.5452H13.4995V12H13.9283V11.5452Z" fill="#E23333"/>
<path d="M13.9283 11.0904H13.4995V11.5452H13.9283V11.0904Z" fill="#E23333"/>
<path d="M13.9283 10.6356H13.4995V11.0904H13.9283V10.6356Z" fill="#E23333"/>
<path d="M13.9283 10.1822H13.4995V10.6356H13.9283V10.1822Z" fill="#E23333"/>
<path d="M13.9283 9.72742H13.4995V10.1822H13.9283V9.72742Z" fill="#E23333"/>
<path d="M13.9283 9.27258H13.4995V9.72739H13.9283V9.27258Z" fill="#E23333"/>
<path d="M13.9283 8.81778H13.4995V9.27259H13.9283V8.81778Z" fill="#1D2323"/>
<path d="M13.9283 8.36298H13.4995V8.81778H13.9283V8.36298Z" fill="#1D2323"/>
<path d="M13.9283 7.90817H13.4995V8.36298H13.9283V7.90817Z" fill="#1D2323"/>
<path d="M13.9283 7.4548H13.4995V7.90818H13.9283V7.4548Z" fill="#1D2323"/>
<path d="M13.9283 7H13.4995V7.45481H13.9283V7Z" fill="#1D2323"/>
<path d="M13.9283 6.5452H13.4995V7H13.9283V6.5452Z" fill="#1D2323"/>
<path d="M13.9283 6.09039H13.4995V6.5452H13.9283V6.09039Z" fill="#E23333"/>
<path d="M13.9283 5.63559H13.4995V6.0904H13.9283V5.63559Z" fill="#E23333"/>
<path d="M13.9283 5.18079H13.4995V5.63559H13.9283V5.18079Z" fill="#E23333"/>
<path d="M13.9283 4.72742H13.4995V5.18079H13.9283V4.72742Z" fill="#F30000"/>
<path d="M13.4992 19.2726H13.0718V19.7274H13.4992V19.2726Z" fill="#F30000"/>
<path d="M13.4992 18.8178H13.0718V19.2726H13.4992V18.8178Z" fill="white"/>
<path d="M13.4992 18.3644H13.0718V18.8178H13.4992V18.3644Z" fill="white"/>
<path d="M13.4992 17.9096H13.0718V18.3644H13.4992V17.9096Z" fill="white"/>
<path d="M13.4992 17.4548H13.0718V17.9096H13.4992V17.4548Z" fill="white"/>
<path d="M13.4992 17H13.0718V17.4548H13.4992V17Z" fill="white"/>
<path d="M13.4992 16.5452H13.0718V17H13.4992V16.5452Z" fill="white"/>
<path d="M13.4992 16.0904H13.0718V16.5452H13.4992V16.0904Z" fill="white"/>
<path d="M13.4992 15.637H13.0718V16.0904H13.4992V15.637Z" fill="white"/>
<path d="M13.4992 15.1822H13.0718V15.637H13.4992V15.1822Z" fill="white"/>
<path d="M13.4992 14.7274H13.0718V15.1822H13.4992V14.7274Z" fill="white"/>
<path d="M13.4992 14.2726H13.0718V14.7274H13.4992V14.2726Z" fill="white"/>
<path d="M13.4992 13.8178H13.0718V14.2726H13.4992V13.8178Z" fill="white"/>
<path d="M13.4992 13.363H13.0718V13.8178H13.4992V13.363Z" fill="#A3B2B5"/>
<path d="M13.4992 12.9096H13.0718V13.363H13.4992V12.9096Z" fill="#E23333"/>
<path d="M13.4992 12.4548H13.0718V12.9096H13.4992V12.4548Z" fill="#E23333"/>
<path d="M13.4992 12H13.0718V12.4548H13.4992V12Z" fill="#E23333"/>
<path d="M13.4992 11.5452H13.0718V12H13.4992V11.5452Z" fill="#E23333"/>
<path d="M13.4992 11.0904H13.0718V11.5452H13.4992V11.0904Z" fill="#E23333"/>
<path d="M13.4992 10.6356H13.0718V11.0904H13.4992V10.6356Z" fill="#E23333"/>
<path d="M13.4992 10.1822H13.0718V10.6356H13.4992V10.1822Z" fill="#E23333"/>
<path d="M13.4992 9.72742H13.0718V10.1822H13.4992V9.72742Z" fill="#E23333"/>
<path d="M13.4992 9.27258H13.0718V9.72739H13.4992V9.27258Z" fill="#1D2323"/>
<path d="M13.4992 8.81778H13.0718V9.27259H13.4992V8.81778Z" fill="#1D2323"/>
<path d="M13.4992 8.36298H13.0718V8.81778H13.4992V8.36298Z" fill="#1D2323"/>
<path d="M13.4992 7.90817H13.0718V8.36298H13.4992V7.90817Z" fill="#1D2323"/>
<path d="M13.4992 7.4548H13.0718V7.90818H13.4992V7.4548Z" fill="#1D2323"/>
<path d="M13.4992 7H13.0718V7.45481H13.4992V7Z" fill="#1D2323"/>
<path d="M13.4992 6.5452H13.0718V7H13.4992V6.5452Z" fill="#1D2323"/>
<path d="M13.4992 6.09039H13.0718V6.5452H13.4992V6.09039Z" fill="#1D2323"/>
<path d="M13.4992 5.63559H13.0718V6.0904H13.4992V5.63559Z" fill="#E23333"/>
<path d="M13.4992 5.18079H13.0718V5.63559H13.4992V5.18079Z" fill="#E23333"/>
<path d="M13.4992 4.72742H13.0718V5.18079H13.4992V4.72742Z" fill="#E23333"/>
<path d="M13.4992 4.27258H13.0718V4.72739H13.4992V4.27258Z" fill="#F30000"/>
<path d="M13.0719 20.637H12.6431V21.0918H13.0719V20.637Z" fill="#C16000"/>
<path d="M13.0719 20.1822H12.6431V20.637H13.0719V20.1822Z" fill="#C16000"/>
<path d="M13.0719 19.7274H12.6431V20.1822H13.0719V19.7274Z" fill="#C16000"/>
<path d="M13.0719 19.2726H12.6431V19.7274H13.0719V19.2726Z" fill="#C16000"/>
<path d="M13.0719 18.8178H12.6431V19.2726H13.0719V18.8178Z" fill="#C16000"/>
<path d="M13.0719 18.3644H12.6431V18.8178H13.0719V18.3644Z" fill="#C16000"/>
<path d="M13.0719 17.9096H12.6431V18.3644H13.0719V17.9096Z" fill="#C16000"/>
<path d="M13.0719 17.4548H12.6431V17.9096H13.0719V17.4548Z" fill="#C16000"/>
<path d="M13.0719 17H12.6431V17.4548H13.0719V17Z" fill="#C16000"/>
<path d="M13.0719 16.5452H12.6431V17H13.0719V16.5452Z" fill="#C16000"/>
<path d="M13.0719 16.0904H12.6431V16.5452H13.0719V16.0904Z" fill="#C16000"/>
<path d="M13.0719 15.637H12.6431V16.0904H13.0719V15.637Z" fill="#C16000"/>
<path d="M13.0719 15.1822H12.6431V15.637H13.0719V15.1822Z" fill="white"/>
<path d="M13.0719 14.7274H12.6431V15.1822H13.0719V14.7274Z" fill="white"/>
<path d="M13.0719 14.2726H12.6431V14.7274H13.0719V14.2726Z" fill="white"/>
<path d="M13.0719 13.8178H12.6431V14.2726H13.0719V13.8178Z" fill="white"/>
<path d="M13.0719 13.363H12.6431V13.8178H13.0719V13.363Z" fill="#A3B2B5"/>
<path d="M13.0719 12.9096H12.6431V13.363H13.0719V12.9096Z" fill="#E23333"/>
<path d="M13.0719 12.4548H12.6431V12.9096H13.0719V12.4548Z" fill="#E23333"/>
<path d="M13.0719 12H12.6431V12.4548H13.0719V12Z" fill="#E23333"/>
<path d="M13.0719 11.5452H12.6431V12H13.0719V11.5452Z" fill="#E23333"/>
<path d="M13.0719 11.0904H12.6431V11.5452H13.0719V11.0904Z" fill="#E23333"/>
<path d="M13.0719 10.6356H12.6431V11.0904H13.0719V10.6356Z" fill="#E23333"/>
<path d="M13.0719 10.1822H12.6431V10.6356H13.0719V10.1822Z" fill="#E23333"/>
<path d="M13.0719 9.72742H12.6431V10.1822H13.0719V9.72742Z" fill="#1D2323"/>
<path d="M13.0719 9.27258H12.6431V9.72739H13.0719V9.27258Z" fill="#1D2323"/>
<path d="M13.0719 8.81778H12.6431V9.27259H13.0719V8.81778Z" fill="#1D2323"/>
<path d="M13.0719 8.36298H12.6431V8.81778H13.0719V8.36298Z" fill="#0063EB"/>
<path d="M13.0719 7.90817H12.6431V8.36298H13.0719V7.90817Z" fill="#0063EB"/>
<path d="M13.0719 7.4548H12.6431V7.90818H13.0719V7.4548Z" fill="#0063EB"/>
<path d="M13.0719 7H12.6431V7.45481H13.0719V7Z" fill="#0063EB"/>
<path d="M13.0719 6.5452H12.6431V7H13.0719V6.5452Z" fill="#1D2323"/>
<path d="M13.0719 6.09039H12.6431V6.5452H13.0719V6.09039Z" fill="#1D2323"/>
<path d="M13.0719 5.63559H12.6431V6.0904H13.0719V5.63559Z" fill="#1D2323"/>
<path d="M13.0719 5.18079H12.6431V5.63559H13.0719V5.18079Z" fill="#E23333"/>
<path d="M13.0719 4.72742H12.6431V5.18079H13.0719V4.72742Z" fill="#E23333"/>
<path d="M13.0719 4.27258H12.6431V4.72739H13.0719V4.27258Z" fill="#E23333"/>
<path d="M13.0719 3.81778H12.6431V4.27259H13.0719V3.81778Z" fill="#F30000"/>
<path d="M12.6432 21.0918H12.2144V21.5452H12.6432V21.0918Z" fill="#C16000"/>
<path d="M12.6432 20.637H12.2144V21.0918H12.6432V20.637Z" fill="#FFAA0D"/>
<path d="M12.6432 20.1822H12.2144V20.637H12.6432V20.1822Z" fill="#FFAA0D"/>
<path d="M12.6432 19.7274H12.2144V20.1822H12.6432V19.7274Z" fill="#FFAA0D"/>
<path d="M12.6432 19.2726H12.2144V19.7274H12.6432V19.2726Z" fill="#FFAA0D"/>
<path d="M12.6432 18.8178H12.2144V19.2726H12.6432V18.8178Z" fill="#FFAA0D"/>
<path d="M12.6432 18.3644H12.2144V18.8178H12.6432V18.3644Z" fill="#FFAA0D"/>
<path d="M12.6432 17.9096H12.2144V18.3644H12.6432V17.9096Z" fill="#FFAA0D"/>
<path d="M12.6432 17.4548H12.2144V17.9096H12.6432V17.4548Z" fill="#FFAA0D"/>
<path d="M12.6432 17H12.2144V17.4548H12.6432V17Z" fill="#FFAA0D"/>
<path d="M12.6432 16.5452H12.2144V17H12.6432V16.5452Z" fill="#FFAA0D"/>
<path d="M12.6432 16.0904H12.2144V16.5452H12.6432V16.0904Z" fill="#FFAA0D"/>
<path d="M12.6432 15.637H12.2144V16.0904H12.6432V15.637Z" fill="#FFAA0D"/>
<path d="M12.6432 15.1822H12.2144V15.637H12.6432V15.1822Z" fill="#C16000"/>
<path d="M12.6432 14.7274H12.2144V15.1822H12.6432V14.7274Z" fill="white"/>
<path d="M12.6432 14.2726H12.2144V14.7274H12.6432V14.2726Z" fill="white"/>
<path d="M12.6432 13.8178H12.2144V14.2726H12.6432V13.8178Z" fill="white"/>
<path d="M12.6432 13.363H12.2144V13.8178H12.6432V13.363Z" fill="#A3B2B5"/>
<path d="M12.6432 12.9096H12.2144V13.363H12.6432V12.9096Z" fill="#E23333"/>
<path d="M12.6432 12.4548H12.2144V12.9096H12.6432V12.4548Z" fill="#E23333"/>
<path d="M12.6432 12H12.2144V12.4548H12.6432V12Z" fill="#E23333"/>
<path d="M12.6432 11.5452H12.2144V12H12.6432V11.5452Z" fill="#E23333"/>
<path d="M12.6432 11.0904H12.2144V11.5452H12.6432V11.0904Z" fill="#E23333"/>
<path d="M12.6432 10.6356H12.2144V11.0904H12.6432V10.6356Z" fill="#E23333"/>
<path d="M12.6432 10.1822H12.2144V10.6356H12.6432V10.1822Z" fill="#E23333"/>
<path d="M12.6432 9.72742H12.2144V10.1822H12.6432V9.72742Z" fill="#1D2323"/>
<path d="M12.6432 9.27258H12.2144V9.72739H12.6432V9.27258Z" fill="#1D2323"/>
<path d="M12.6432 8.81778H12.2144V9.27259H12.6432V8.81778Z" fill="#0063EB"/>
<path d="M12.6432 8.36298H12.2144V8.81778H12.6432V8.36298Z" fill="#0063EB"/>
<path d="M12.6432 7.90817H12.2144V8.36298H12.6432V7.90817Z" fill="#0063EB"/>
<path d="M12.6432 7.4548H12.2144V7.90818H12.6432V7.4548Z" fill="#0063EB"/>
<path d="M12.6432 7H12.2144V7.45481H12.6432V7Z" fill="#0063EB"/>
<path d="M12.6432 6.5452H12.2144V7H12.6432V6.5452Z" fill="#0063EB"/>
<path d="M12.6432 6.09039H12.2144V6.5452H12.6432V6.09039Z" fill="#1D2323"/>
<path d="M12.6432 5.63559H12.2144V6.0904H12.6432V5.63559Z" fill="#1D2323"/>
<path d="M12.6432 5.18079H12.2144V5.63559H12.6432V5.18079Z" fill="#E23333"/>
<path d="M12.6432 4.72742H12.2144V5.18079H12.6432V4.72742Z" fill="#E23333"/>
<path d="M12.6432 4.27258H12.2144V4.72739H12.6432V4.27258Z" fill="#E23333"/>
<path d="M12.6432 3.81778H12.2144V4.27259H12.6432V3.81778Z" fill="#E23333"/>
<path d="M12.6432 3.36298H12.2144V3.81778H12.6432V3.36298Z" fill="#F30000"/>
<path d="M12.2144 21.5452H11.7856V22H12.2144V21.5452Z" fill="#C16000"/>
<path d="M12.2144 21.0918H11.7856V21.5452H12.2144V21.0918Z" fill="#FFAA0D"/>
<path d="M12.2144 20.637H11.7856V21.0918H12.2144V20.637Z" fill="#FFAA0D"/>
<path d="M12.2144 20.1822H11.7856V20.637H12.2144V20.1822Z" fill="#FFAA0D"/>
<path d="M12.2144 19.7274H11.7856V20.1822H12.2144V19.7274Z" fill="#FFAA0D"/>
<path d="M12.2144 19.2726H11.7856V19.7274H12.2144V19.2726Z" fill="#FFAA0D"/>
<path d="M12.2144 18.8178H11.7856V19.2726H12.2144V18.8178Z" fill="#FFAA0D"/>
<path d="M12.2144 18.3644H11.7856V18.8178H12.2144V18.3644Z" fill="#FFAA0D"/>
<path d="M12.2144 17.9096H11.7856V18.3644H12.2144V17.9096Z" fill="#FFAA0D"/>
<path d="M12.2144 17.4548H11.7856V17.9096H12.2144V17.4548Z" fill="#FFAA0D"/>
<path d="M12.2144 17H11.7856V17.4548H12.2144V17Z" fill="#FFAA0D"/>
<path d="M12.2144 16.5452H11.7856V17H12.2144V16.5452Z" fill="#FFAA0D"/>
<path d="M12.2144 16.0904H11.7856V16.5452H12.2144V16.0904Z" fill="#FFAA0D"/>
<path d="M12.2144 15.637H11.7856V16.0904H12.2144V15.637Z" fill="#FFAA0D"/>
<path d="M12.2144 15.1822H11.7856V15.637H12.2144V15.1822Z" fill="#FFAA0D"/>
<path d="M12.2144 14.7274H11.7856V15.1822H12.2144V14.7274Z" fill="#C16000"/>
<path d="M12.2144 14.2726H11.7856V14.7274H12.2144V14.2726Z" fill="white"/>
<path d="M12.2144 13.8178H11.7856V14.2726H12.2144V13.8178Z" fill="white"/>
<path d="M12.2144 13.363H11.7856V13.8178H12.2144V13.363Z" fill="#A3B2B5"/>
<path d="M12.2144 12.9096H11.7856V13.363H12.2144V12.9096Z" fill="#E23333"/>
<path d="M12.2144 12.4548H11.7856V12.9096H12.2144V12.4548Z" fill="#E23333"/>
<path d="M12.2144 12H11.7856V12.4548H12.2144V12Z" fill="#E23333"/>
<path d="M12.2144 11.5452H11.7856V12H12.2144V11.5452Z" fill="#E23333"/>
<path d="M12.2144 11.0904H11.7856V11.5452H12.2144V11.0904Z" fill="#E23333"/>
<path d="M12.2144 10.6356H11.7856V11.0904H12.2144V10.6356Z" fill="#E23333"/>
<path d="M12.2144 10.1822H11.7856V10.6356H12.2144V10.1822Z" fill="#E23333"/>
<path d="M12.2144 9.72742H11.7856V10.1822H12.2144V9.72742Z" fill="#1D2323"/>
<path d="M12.2144 9.27258H11.7856V9.72739H12.2144V9.27258Z" fill="#1D2323"/>
<path d="M12.2144 8.81778H11.7856V9.27259H12.2144V8.81778Z" fill="#0063EB"/>
<path d="M12.2144 8.36298H11.7856V8.81778H12.2144V8.36298Z" fill="#0063EB"/>
<path d="M12.2144 7.90817H11.7856V8.36298H12.2144V7.90817Z" fill="#0063EB"/>
<path d="M12.2144 7.4548H11.7856V7.90818H12.2144V7.4548Z" fill="#0063EB"/>
<path d="M12.2144 7H11.7856V7.45481H12.2144V7Z" fill="#0063EB"/>
<path d="M12.2144 6.5452H11.7856V7H12.2144V6.5452Z" fill="#0063EB"/>
<path d="M12.2144 6.09039H11.7856V6.5452H12.2144V6.09039Z" fill="#1D2323"/>
<path d="M12.2144 5.63559H11.7856V6.0904H12.2144V5.63559Z" fill="#1D2323"/>
<path d="M12.2144 5.18079H11.7856V5.63559H12.2144V5.18079Z" fill="#E23333"/>
<path d="M12.2144 4.72742H11.7856V5.18079H12.2144V4.72742Z" fill="#E23333"/>
<path d="M12.2144 4.27258H11.7856V4.72739H12.2144V4.27258Z" fill="#E23333"/>
<path d="M12.2144 3.81778H11.7856V4.27259H12.2144V3.81778Z" fill="#E23333"/>
<path d="M12.2144 3.36298H11.7856V3.81778H12.2144V3.36298Z" fill="#E23333"/>
<path d="M12.2144 2.90817H11.7856V3.36298H12.2144V2.90817Z" fill="#F30000"/>
<path d="M12.2144 2.45337H11.7856V2.90818H12.2144V2.45337Z" fill="#F30000"/>
<path d="M12.2144 2H11.7856V2.45337H12.2144V2Z" fill="#F30000"/>
<path d="M11.7857 21.0918H11.3569V21.5452H11.7857V21.0918Z" fill="#C16000"/>
<path d="M11.7857 20.637H11.3569V21.0918H11.7857V20.637Z" fill="#FFAA0D"/>
<path d="M11.7857 20.1822H11.3569V20.637H11.7857V20.1822Z" fill="#FFAA0D"/>
<path d="M11.7857 19.7274H11.3569V20.1822H11.7857V19.7274Z" fill="#FFAA0D"/>
<path d="M11.7857 19.2726H11.3569V19.7274H11.7857V19.2726Z" fill="#FFAA0D"/>
<path d="M11.7857 18.8178H11.3569V19.2726H11.7857V18.8178Z" fill="#FFAA0D"/>
<path d="M11.7857 18.3644H11.3569V18.8178H11.7857V18.3644Z" fill="#FFAA0D"/>
<path d="M11.7857 17.9096H11.3569V18.3644H11.7857V17.9096Z" fill="#FFAA0D"/>
<path d="M11.7857 17.4548H11.3569V17.9096H11.7857V17.4548Z" fill="#FFAA0D"/>
<path d="M11.7857 17H11.3569V17.4548H11.7857V17Z" fill="#FFAA0D"/>
<path d="M11.7857 16.5452H11.3569V17H11.7857V16.5452Z" fill="#FFAA0D"/>
<path d="M11.7857 16.0904H11.3569V16.5452H11.7857V16.0904Z" fill="#FFAA0D"/>
<path d="M11.7857 15.637H11.3569V16.0904H11.7857V15.637Z" fill="#FFAA0D"/>
<path d="M11.7857 15.1822H11.3569V15.637H11.7857V15.1822Z" fill="#C16000"/>
<path d="M11.7857 14.7274H11.3569V15.1822H11.7857V14.7274Z" fill="white"/>
<path d="M11.7857 14.2726H11.3569V14.7274H11.7857V14.2726Z" fill="white"/>
<path d="M11.7857 13.8178H11.3569V14.2726H11.7857V13.8178Z" fill="white"/>
<path d="M11.7857 13.363H11.3569V13.8178H11.7857V13.363Z" fill="#A3B2B5"/>
<path d="M11.7857 12.9096H11.3569V13.363H11.7857V12.9096Z" fill="#E23333"/>
<path d="M11.7857 12.4548H11.3569V12.9096H11.7857V12.4548Z" fill="#E23333"/>
<path d="M11.7857 12H11.3569V12.4548H11.7857V12Z" fill="#E23333"/>
<path d="M11.7857 11.5452H11.3569V12H11.7857V11.5452Z" fill="#E23333"/>
<path d="M11.7857 11.0904H11.3569V11.5452H11.7857V11.0904Z" fill="#E23333"/>
<path d="M11.7857 10.6356H11.3569V11.0904H11.7857V10.6356Z" fill="#E23333"/>
<path d="M11.7857 10.1822H11.3569V10.6356H11.7857V10.1822Z" fill="#E23333"/>
<path d="M11.7857 9.72742H11.3569V10.1822H11.7857V9.72742Z" fill="#1D2323"/>
<path d="M11.7857 9.27258H11.3569V9.72739H11.7857V9.27258Z" fill="#1D2323"/>
<path d="M11.7857 8.81778H11.3569V9.27259H11.7857V8.81778Z" fill="#0063EB"/>
<path d="M11.7857 8.36298H11.3569V8.81778H11.7857V8.36298Z" fill="#0063EB"/>
<path d="M11.7857 7.90817H11.3569V8.36298H11.7857V7.90817Z" fill="#0063EB"/>
<path d="M11.7857 7.4548H11.3569V7.90818H11.7857V7.4548Z" fill="#0063EB"/>
<path d="M11.7857 7H11.3569V7.45481H11.7857V7Z" fill="#0063EB"/>
<path d="M11.7857 6.5452H11.3569V7H11.7857V6.5452Z" fill="#0063EB"/>
<path d="M11.7857 6.09039H11.3569V6.5452H11.7857V6.09039Z" fill="#1D2323"/>
<path d="M11.7857 5.63559H11.3569V6.0904H11.7857V5.63559Z" fill="#1D2323"/>
<path d="M11.7857 5.18079H11.3569V5.63559H11.7857V5.18079Z" fill="#E23333"/>
<path d="M11.7857 4.72742H11.3569V5.18079H11.7857V4.72742Z" fill="#E23333"/>
<path d="M11.7857 4.27258H11.3569V4.72739H11.7857V4.27258Z" fill="#E23333"/>
<path d="M11.7857 3.81778H11.3569V4.27259H11.7857V3.81778Z" fill="#E23333"/>
<path d="M11.7857 3.36298H11.3569V3.81778H11.7857V3.36298Z" fill="#F30000"/>
<path d="M11.357 20.637H10.9282V21.0918H11.357V20.637Z" fill="#C16000"/>
<path d="M11.357 20.1822H10.9282V20.637H11.357V20.1822Z" fill="#C16000"/>
<path d="M11.357 19.7274H10.9282V20.1822H11.357V19.7274Z" fill="#C16000"/>
<path d="M11.357 19.2726H10.9282V19.7274H11.357V19.2726Z" fill="#C16000"/>
<path d="M11.357 18.8178H10.9282V19.2726H11.357V18.8178Z" fill="#C16000"/>
<path d="M11.357 18.3644H10.9282V18.8178H11.357V18.3644Z" fill="#C16000"/>
<path d="M11.357 17.9096H10.9282V18.3644H11.357V17.9096Z" fill="#C16000"/>
<path d="M11.357 17.4548H10.9282V17.9096H11.357V17.4548Z" fill="#C16000"/>
<path d="M11.357 17H10.9282V17.4548H11.357V17Z" fill="#C16000"/>
<path d="M11.357 16.5452H10.9282V17H11.357V16.5452Z" fill="#C16000"/>
<path d="M11.357 16.0904H10.9282V16.5452H11.357V16.0904Z" fill="#C16000"/>
<path d="M11.357 15.637H10.9282V16.0904H11.357V15.637Z" fill="#C16000"/>
<path d="M11.357 15.1822H10.9282V15.637H11.357V15.1822Z" fill="white"/>
<path d="M11.357 14.7274H10.9282V15.1822H11.357V14.7274Z" fill="white"/>
<path d="M11.357 14.2726H10.9282V14.7274H11.357V14.2726Z" fill="white"/>
<path d="M11.357 13.8178H10.9282V14.2726H11.357V13.8178Z" fill="white"/>
<path d="M11.357 13.363H10.9282V13.8178H11.357V13.363Z" fill="#A3B2B5"/>
<path d="M11.357 12.9096H10.9282V13.363H11.357V12.9096Z" fill="#E23333"/>
<path d="M11.357 12.4548H10.9282V12.9096H11.357V12.4548Z" fill="#E23333"/>
<path d="M11.357 12H10.9282V12.4548H11.357V12Z" fill="#E23333"/>
<path d="M11.357 11.5452H10.9282V12H11.357V11.5452Z" fill="#E23333"/>
<path d="M11.357 11.0904H10.9282V11.5452H11.357V11.0904Z" fill="#E23333"/>
<path d="M11.357 10.6356H10.9282V11.0904H11.357V10.6356Z" fill="#E23333"/>
<path d="M11.357 10.1822H10.9282V10.6356H11.357V10.1822Z" fill="#E23333"/>
<path d="M11.357 9.72742H10.9282V10.1822H11.357V9.72742Z" fill="#1D2323"/>
<path d="M11.357 9.27258H10.9282V9.72739H11.357V9.27258Z" fill="#1D2323"/>
<path d="M11.357 8.81778H10.9282V9.27259H11.357V8.81778Z" fill="#1D2323"/>
<path d="M11.357 8.36298H10.9282V8.81778H11.357V8.36298Z" fill="#0063EB"/>
<path d="M11.357 7.90817H10.9282V8.36298H11.357V7.90817Z" fill="#0063EB"/>
<path d="M11.357 7.4548H10.9282V7.90818H11.357V7.4548Z" fill="#0063EB"/>
<path d="M11.357 7H10.9282V7.45481H11.357V7Z" fill="#0063EB"/>
<path d="M11.357 6.5452H10.9282V7H11.357V6.5452Z" fill="#1D2323"/>
<path d="M11.357 6.09039H10.9282V6.5452H11.357V6.09039Z" fill="#1D2323"/>
<path d="M11.357 5.63559H10.9282V6.0904H11.357V5.63559Z" fill="#1D2323"/>
<path d="M11.357 5.18079H10.9282V5.63559H11.357V5.18079Z" fill="#E23333"/>
<path d="M11.357 4.72742H10.9282V5.18079H11.357V4.72742Z" fill="#E23333"/>
<path d="M11.357 4.27258H10.9282V4.72739H11.357V4.27258Z" fill="#E23333"/>
<path d="M11.357 3.81778H10.9282V4.27259H11.357V3.81778Z" fill="#F30000"/>
<path d="M10.9279 19.2726H10.5005V19.7274H10.9279V19.2726Z" fill="#F30000"/>
<path d="M10.9279 18.8178H10.5005V19.2726H10.9279V18.8178Z" fill="white"/>
<path d="M10.9279 18.3644H10.5005V18.8178H10.9279V18.3644Z" fill="white"/>
<path d="M10.9279 17.9096H10.5005V18.3644H10.9279V17.9096Z" fill="white"/>
<path d="M10.9279 17.4548H10.5005V17.9096H10.9279V17.4548Z" fill="white"/>
<path d="M10.9279 17H10.5005V17.4548H10.9279V17Z" fill="white"/>
<path d="M10.9279 16.5452H10.5005V17H10.9279V16.5452Z" fill="white"/>
<path d="M10.9279 16.0904H10.5005V16.5452H10.9279V16.0904Z" fill="white"/>
<path d="M10.9279 15.637H10.5005V16.0904H10.9279V15.637Z" fill="white"/>
<path d="M10.9279 15.1822H10.5005V15.637H10.9279V15.1822Z" fill="white"/>
<path d="M10.9279 14.7274H10.5005V15.1822H10.9279V14.7274Z" fill="white"/>
<path d="M10.9279 14.2726H10.5005V14.7274H10.9279V14.2726Z" fill="white"/>
<path d="M10.9279 13.8178H10.5005V14.2726H10.9279V13.8178Z" fill="white"/>
<path d="M10.9279 13.363H10.5005V13.8178H10.9279V13.363Z" fill="#A3B2B5"/>
<path d="M10.9279 12.9096H10.5005V13.363H10.9279V12.9096Z" fill="#E23333"/>
<path d="M10.9279 12.4548H10.5005V12.9096H10.9279V12.4548Z" fill="#E23333"/>
<path d="M10.9279 12H10.5005V12.4548H10.9279V12Z" fill="#E23333"/>
<path d="M10.9279 11.5452H10.5005V12H10.9279V11.5452Z" fill="#E23333"/>
<path d="M10.9279 11.0904H10.5005V11.5452H10.9279V11.0904Z" fill="#E23333"/>
<path d="M10.9279 10.6356H10.5005V11.0904H10.9279V10.6356Z" fill="#E23333"/>
<path d="M10.9279 10.1822H10.5005V10.6356H10.9279V10.1822Z" fill="#E23333"/>
<path d="M10.9279 9.72742H10.5005V10.1822H10.9279V9.72742Z" fill="#E23333"/>
<path d="M10.9279 9.27258H10.5005V9.72739H10.9279V9.27258Z" fill="#1D2323"/>
<path d="M10.9279 8.81778H10.5005V9.27259H10.9279V8.81778Z" fill="#1D2323"/>
<path d="M10.9279 8.36298H10.5005V8.81778H10.9279V8.36298Z" fill="#1D2323"/>
<path d="M10.9279 7.90817H10.5005V8.36298H10.9279V7.90817Z" fill="#1D2323"/>
<path d="M10.9279 7.4548H10.5005V7.90818H10.9279V7.4548Z" fill="#1D2323"/>
<path d="M10.9279 7H10.5005V7.45481H10.9279V7Z" fill="#1D2323"/>
<path d="M10.9279 6.5452H10.5005V7H10.9279V6.5452Z" fill="#1D2323"/>
<path d="M10.9279 6.09039H10.5005V6.5452H10.9279V6.09039Z" fill="#1D2323"/>
<path d="M10.9279 5.63559H10.5005V6.0904H10.9279V5.63559Z" fill="#E23333"/>
<path d="M10.9279 5.18079H10.5005V5.63559H10.9279V5.18079Z" fill="#E23333"/>
<path d="M10.9279 4.72742H10.5005V5.18079H10.9279V4.72742Z" fill="#E23333"/>
<path d="M10.9279 4.27258H10.5005V4.72739H10.9279V4.27258Z" fill="#F30000"/>
<path d="M10.5006 19.2726H10.0718V19.7274H10.5006V19.2726Z" fill="#F30000"/>
<path d="M10.5006 18.8178H10.0718V19.2726H10.5006V18.8178Z" fill="white"/>
<path d="M10.5006 18.3644H10.0718V18.8178H10.5006V18.3644Z" fill="white"/>
<path d="M10.5006 17.9096H10.0718V18.3644H10.5006V17.9096Z" fill="white"/>
<path d="M10.5006 17.4548H10.0718V17.9096H10.5006V17.4548Z" fill="white"/>
<path d="M10.5006 17H10.0718V17.4548H10.5006V17Z" fill="white"/>
<path d="M10.5006 16.5452H10.0718V17H10.5006V16.5452Z" fill="white"/>
<path d="M10.5006 16.0904H10.0718V16.5452H10.5006V16.0904Z" fill="white"/>
<path d="M10.5006 15.637H10.0718V16.0904H10.5006V15.637Z" fill="white"/>
<path d="M10.5006 15.1822H10.0718V15.637H10.5006V15.1822Z" fill="white"/>
<path d="M10.5006 14.7274H10.0718V15.1822H10.5006V14.7274Z" fill="white"/>
<path d="M10.5006 14.2726H10.0718V14.7274H10.5006V14.2726Z" fill="white"/>
<path d="M10.5006 13.8178H10.0718V14.2726H10.5006V13.8178Z" fill="white"/>
<path d="M10.5006 13.363H10.0718V13.8178H10.5006V13.363Z" fill="#A3B2B5"/>
<path d="M10.5006 12.9096H10.0718V13.363H10.5006V12.9096Z" fill="#E23333"/>
<path d="M10.5006 12.4548H10.0718V12.9096H10.5006V12.4548Z" fill="#E23333"/>
<path d="M10.5006 12H10.0718V12.4548H10.5006V12Z" fill="#E23333"/>
<path d="M10.5006 11.5452H10.0718V12H10.5006V11.5452Z" fill="#E23333"/>
<path d="M10.5006 11.0904H10.0718V11.5452H10.5006V11.0904Z" fill="#E23333"/>
<path d="M10.5006 10.6356H10.0718V11.0904H10.5006V10.6356Z" fill="#E23333"/>
<path d="M10.5006 10.1822H10.0718V10.6356H10.5006V10.1822Z" fill="#E23333"/>
<path d="M10.5006 9.72742H10.0718V10.1822H10.5006V9.72742Z" fill="#E23333"/>
<path d="M10.5006 9.27258H10.0718V9.72739H10.5006V9.27258Z" fill="#E23333"/>
<path d="M10.5006 8.81778H10.0718V9.27259H10.5006V8.81778Z" fill="#1D2323"/>
<path d="M10.5006 8.36298H10.0718V8.81778H10.5006V8.36298Z" fill="#1D2323"/>
<path d="M10.5006 7.90817H10.0718V8.36298H10.5006V7.90817Z" fill="#1D2323"/>
<path d="M10.5006 7.4548H10.0718V7.90818H10.5006V7.4548Z" fill="#1D2323"/>
<path d="M10.5006 7H10.0718V7.45481H10.5006V7Z" fill="#1D2323"/>
<path d="M10.5006 6.5452H10.0718V7H10.5006V6.5452Z" fill="#1D2323"/>
<path d="M10.5006 6.09039H10.0718V6.5452H10.5006V6.09039Z" fill="#E23333"/>
<path d="M10.5006 5.63559H10.0718V6.0904H10.5006V5.63559Z" fill="#E23333"/>
<path d="M10.5006 5.18079H10.0718V5.63559H10.5006V5.18079Z" fill="#E23333"/>
<path d="M10.5006 4.72742H10.0718V5.18079H10.5006V4.72742Z" fill="#F30000"/>
<path d="M10.0719 19.2726H9.64307V19.7274H10.0719V19.2726Z" fill="#F30000"/>
<path d="M10.0719 18.8178H9.64307V19.2726H10.0719V18.8178Z" fill="white"/>
<path d="M10.0719 18.3644H9.64307V18.8178H10.0719V18.3644Z" fill="white"/>
<path d="M10.0719 17.9096H9.64307V18.3644H10.0719V17.9096Z" fill="white"/>
<path d="M10.0719 17.4548H9.64307V17.9096H10.0719V17.4548Z" fill="white"/>
<path d="M10.0719 17H9.64307V17.4548H10.0719V17Z" fill="white"/>
<path d="M10.0719 16.5452H9.64307V17H10.0719V16.5452Z" fill="white"/>
<path d="M10.0719 16.0904H9.64307V16.5452H10.0719V16.0904Z" fill="white"/>
<path d="M10.0719 15.637H9.64307V16.0904H10.0719V15.637Z" fill="white"/>
<path d="M10.0719 15.1822H9.64307V15.637H10.0719V15.1822Z" fill="white"/>
<path d="M10.0719 14.7274H9.64307V15.1822H10.0719V14.7274Z" fill="white"/>
<path d="M10.0719 14.2726H9.64307V14.7274H10.0719V14.2726Z" fill="white"/>
<path d="M10.0719 13.8178H9.64307V14.2726H10.0719V13.8178Z" fill="white"/>
<path d="M10.0719 13.363H9.64307V13.8178H10.0719V13.363Z" fill="#A3B2B5"/>
<path d="M10.0719 12.9096H9.64307V13.363H10.0719V12.9096Z" fill="#E23333"/>
<path d="M10.0719 12.4548H9.64307V12.9096H10.0719V12.4548Z" fill="#E23333"/>
<path d="M10.0719 12H9.64307V12.4548H10.0719V12Z" fill="#E23333"/>
<path d="M10.0719 11.5452H9.64307V12H10.0719V11.5452Z" fill="#E23333"/>
<path d="M10.0719 11.0904H9.64307V11.5452H10.0719V11.0904Z" fill="#E23333"/>
<path d="M10.0719 10.6356H9.64307V11.0904H10.0719V10.6356Z" fill="#E23333"/>
<path d="M10.0719 10.1822H9.64307V10.6356H10.0719V10.1822Z" fill="#E23333"/>
<path d="M10.0719 9.72742H9.64307V10.1822H10.0719V9.72742Z" fill="#E23333"/>
<path d="M10.0719 9.27258H9.64307V9.72739H10.0719V9.27258Z" fill="#E23333"/>
<path d="M10.0719 8.81778H9.64307V9.27259H10.0719V8.81778Z" fill="#E23333"/>
<path d="M10.0719 8.36298H9.64307V8.81778H10.0719V8.36298Z" fill="#E23333"/>
<path d="M10.0719 7.90817H9.64307V8.36298H10.0719V7.90817Z" fill="#E23333"/>
<path d="M10.0719 7.4548H9.64307V7.90818H10.0719V7.4548Z" fill="#E23333"/>
<path d="M10.0719 7H9.64307V7.45481H10.0719V7Z" fill="#E23333"/>
<path d="M10.0719 6.5452H9.64307V7H10.0719V6.5452Z" fill="#E23333"/>
<path d="M10.0719 6.09039H9.64307V6.5452H10.0719V6.09039Z" fill="#E23333"/>
<path d="M10.0719 5.63559H9.64307V6.0904H10.0719V5.63559Z" fill="#E23333"/>
<path d="M10.0719 5.18079H9.64307V5.63559H10.0719V5.18079Z" fill="#F30000"/>
<path d="M9.64316 19.2726H9.21436V19.7274H9.64316V19.2726Z" fill="#F30000"/>
<path d="M9.64316 18.8178H9.21436V19.2726H9.64316V18.8178Z" fill="white"/>
<path d="M9.64316 18.3644H9.21436V18.8178H9.64316V18.3644Z" fill="white"/>
<path d="M9.64316 17.9096H9.21436V18.3644H9.64316V17.9096Z" fill="white"/>
<path d="M9.64316 17.4548H9.21436V17.9096H9.64316V17.4548Z" fill="white"/>
<path d="M9.64316 17H9.21436V17.4548H9.64316V17Z" fill="white"/>
<path d="M9.64316 16.5452H9.21436V17H9.64316V16.5452Z" fill="white"/>
<path d="M9.64316 16.0904H9.21436V16.5452H9.64316V16.0904Z" fill="white"/>
<path d="M9.64316 15.637H9.21436V16.0904H9.64316V15.637Z" fill="white"/>
<path d="M9.64316 15.1822H9.21436V15.637H9.64316V15.1822Z" fill="white"/>
<path d="M9.64316 14.7274H9.21436V15.1822H9.64316V14.7274Z" fill="white"/>
<path d="M9.64316 14.2726H9.21436V14.7274H9.64316V14.2726Z" fill="white"/>
<path d="M9.64316 13.8178H9.21436V14.2726H9.64316V13.8178Z" fill="white"/>
<path d="M9.64316 13.363H9.21436V13.8178H9.64316V13.363Z" fill="#A3B2B5"/>
<path d="M9.64316 12.9096H9.21436V13.363H9.64316V12.9096Z" fill="#E23333"/>
<path d="M9.64316 12.4548H9.21436V12.9096H9.64316V12.4548Z" fill="#E23333"/>
<path d="M9.64316 12H9.21436V12.4548H9.64316V12Z" fill="#E23333"/>
<path d="M9.64316 11.5452H9.21436V12H9.64316V11.5452Z" fill="#E23333"/>
<path d="M9.64316 11.0904H9.21436V11.5452H9.64316V11.0904Z" fill="#E23333"/>
<path d="M9.64316 10.6356H9.21436V11.0904H9.64316V10.6356Z" fill="#E23333"/>
<path d="M9.64316 10.1822H9.21436V10.6356H9.64316V10.1822Z" fill="#E23333"/>
<path d="M9.64316 9.72742H9.21436V10.1822H9.64316V9.72742Z" fill="#E23333"/>
<path d="M9.64316 9.27258H9.21436V9.72739H9.64316V9.27258Z" fill="#E23333"/>
<path d="M9.64316 8.81778H9.21436V9.27259H9.64316V8.81778Z" fill="#E23333"/>
<path d="M9.64316 8.36298H9.21436V8.81778H9.64316V8.36298Z" fill="#E23333"/>
<path d="M9.64316 7.90817H9.21436V8.36298H9.64316V7.90817Z" fill="#E23333"/>
<path d="M9.64316 7.4548H9.21436V7.90818H9.64316V7.4548Z" fill="#E23333"/>
<path d="M9.64316 7H9.21436V7.45481H9.64316V7Z" fill="#E23333"/>
<path d="M9.64316 6.5452H9.21436V7H9.64316V6.5452Z" fill="#E23333"/>
<path d="M9.64316 6.09039H9.21436V6.5452H9.64316V6.09039Z" fill="#E23333"/>
<path d="M9.64316 5.63559H9.21436V6.0904H9.64316V5.63559Z" fill="#F30000"/>
<path d="M9.21396 19.2726H8.78516V19.7274H9.21396V19.2726Z" fill="#F30000"/>
<path d="M9.21396 18.8178H8.78516V19.2726H9.21396V18.8178Z" fill="white"/>
<path d="M9.21396 18.3644H8.78516V18.8178H9.21396V18.3644Z" fill="white"/>
<path d="M9.21396 17.9096H8.78516V18.3644H9.21396V17.9096Z" fill="white"/>
<path d="M9.21396 17.4548H8.78516V17.9096H9.21396V17.4548Z" fill="white"/>
<path d="M9.21396 17H8.78516V17.4548H9.21396V17Z" fill="white"/>
<path d="M9.21396 16.5452H8.78516V17H9.21396V16.5452Z" fill="white"/>
<path d="M9.21396 16.0904H8.78516V16.5452H9.21396V16.0904Z" fill="white"/>
<path d="M9.21396 15.637H8.78516V16.0904H9.21396V15.637Z" fill="white"/>
<path d="M9.21396 15.1822H8.78516V15.637H9.21396V15.1822Z" fill="white"/>
<path d="M9.21396 14.7274H8.78516V15.1822H9.21396V14.7274Z" fill="white"/>
<path d="M9.21396 14.2726H8.78516V14.7274H9.21396V14.2726Z" fill="white"/>
<path d="M9.21396 13.8178H8.78516V14.2726H9.21396V13.8178Z" fill="white"/>
<path d="M9.21396 13.363H8.78516V13.8178H9.21396V13.363Z" fill="#A3B2B5"/>
<path d="M9.21396 12.9096H8.78516V13.363H9.21396V12.9096Z" fill="#E23333"/>
<path d="M9.21396 12.4548H8.78516V12.9096H9.21396V12.4548Z" fill="#E23333"/>
<path d="M9.21396 12H8.78516V12.4548H9.21396V12Z" fill="#E23333"/>
<path d="M9.21396 11.5452H8.78516V12H9.21396V11.5452Z" fill="#E23333"/>
<path d="M9.21396 11.0904H8.78516V11.5452H9.21396V11.0904Z" fill="#E23333"/>
<path d="M9.21396 10.6356H8.78516V11.0904H9.21396V10.6356Z" fill="#E23333"/>
<path d="M9.21396 10.1822H8.78516V10.6356H9.21396V10.1822Z" fill="#E23333"/>
<path d="M9.21396 9.72742H8.78516V10.1822H9.21396V9.72742Z" fill="#E23333"/>
<path d="M9.21396 9.27258H8.78516V9.72739H9.21396V9.27258Z" fill="#E23333"/>
<path d="M9.21396 8.81778H8.78516V9.27259H9.21396V8.81778Z" fill="#E23333"/>
<path d="M9.21396 8.36298H8.78516V8.81778H9.21396V8.36298Z" fill="#E23333"/>
<path d="M9.21396 7.90817H8.78516V8.36298H9.21396V7.90817Z" fill="#E23333"/>
<path d="M9.21396 7.4548H8.78516V7.90818H9.21396V7.4548Z" fill="#E23333"/>
<path d="M9.21396 7H8.78516V7.45481H9.21396V7Z" fill="#E23333"/>
<path d="M9.21396 6.5452H8.78516V7H9.21396V6.5452Z" fill="#E23333"/>
<path d="M9.21396 6.09039H8.78516V6.5452H9.21396V6.09039Z" fill="#F30000"/>
<path d="M8.78525 19.2726H8.35645V19.7274H8.78525V19.2726Z" fill="#F30000"/>
<path d="M8.78525 18.8178H8.35645V19.2726H8.78525V18.8178Z" fill="white"/>
<path d="M8.78525 18.3644H8.35645V18.8178H8.78525V18.3644Z" fill="white"/>
<path d="M8.78525 17.9096H8.35645V18.3644H8.78525V17.9096Z" fill="white"/>
<path d="M8.78525 17.4548H8.35645V17.9096H8.78525V17.4548Z" fill="white"/>
<path d="M8.78525 17H8.35645V17.4548H8.78525V17Z" fill="white"/>
<path d="M8.78525 16.5452H8.35645V17H8.78525V16.5452Z" fill="white"/>
<path d="M8.78525 16.0904H8.35645V16.5452H8.78525V16.0904Z" fill="white"/>
<path d="M8.78525 15.637H8.35645V16.0904H8.78525V15.637Z" fill="white"/>
<path d="M8.78525 15.1822H8.35645V15.637H8.78525V15.1822Z" fill="white"/>
<path d="M8.78525 14.7274H8.35645V15.1822H8.78525V14.7274Z" fill="white"/>
<path d="M8.78525 14.2726H8.35645V14.7274H8.78525V14.2726Z" fill="white"/>
<path d="M8.78525 13.8178H8.35645V14.2726H8.78525V13.8178Z" fill="white"/>
<path d="M8.78525 13.363H8.35645V13.8178H8.78525V13.363Z" fill="#A3B2B5"/>
<path d="M8.78525 12.9096H8.35645V13.363H8.78525V12.9096Z" fill="#E23333"/>
<path d="M8.78525 12.4548H8.35645V12.9096H8.78525V12.4548Z" fill="#E23333"/>
<path d="M8.78525 12H8.35645V12.4548H8.78525V12Z" fill="#E23333"/>
<path d="M8.78525 11.5452H8.35645V12H8.78525V11.5452Z" fill="#E23333"/>
<path d="M8.78525 11.0904H8.35645V11.5452H8.78525V11.0904Z" fill="#E23333"/>
<path d="M8.78525 10.6356H8.35645V11.0904H8.78525V10.6356Z" fill="#E23333"/>
<path d="M8.78525 10.1822H8.35645V10.6356H8.78525V10.1822Z" fill="#E23333"/>
<path d="M8.78525 9.72742H8.35645V10.1822H8.78525V9.72742Z" fill="#E23333"/>
<path d="M8.78525 9.27258H8.35645V9.72739H8.78525V9.27258Z" fill="#E23333"/>
<path d="M8.78525 8.81778H8.35645V9.27259H8.78525V8.81778Z" fill="#E23333"/>
<path d="M8.78525 8.36298H8.35645V8.81778H8.78525V8.36298Z" fill="#E23333"/>
<path d="M8.78525 7.90817H8.35645V8.36298H8.78525V7.90817Z" fill="#E23333"/>
<path d="M8.78525 7.4548H8.35645V7.90818H8.78525V7.4548Z" fill="#E23333"/>
<path d="M8.78525 7H8.35645V7.45481H8.78525V7Z" fill="#E23333"/>
<path d="M8.78525 6.5452H8.35645V7H8.78525V6.5452Z" fill="#F30000"/>
<path d="M8.35665 18.8178H7.9292V19.2726H8.35665V18.8178Z" fill="#F30000"/>
<path d="M8.35665 18.3644H7.9292V18.8178H8.35665V18.3644Z" fill="white"/>
<path d="M8.35665 17.9096H7.9292V18.3644H8.35665V17.9096Z" fill="white"/>
<path d="M8.35665 17.4548H7.9292V17.9096H8.35665V17.4548Z" fill="white"/>
<path d="M8.35665 17H7.9292V17.4548H8.35665V17Z" fill="white"/>
<path d="M8.35665 16.5452H7.9292V17H8.35665V16.5452Z" fill="white"/>
<path d="M8.35665 16.0904H7.9292V16.5452H8.35665V16.0904Z" fill="white"/>
<path d="M8.35665 15.637H7.9292V16.0904H8.35665V15.637Z" fill="white"/>
<path d="M8.35665 15.1822H7.9292V15.637H8.35665V15.1822Z" fill="white"/>
<path d="M8.35665 14.7274H7.9292V15.1822H8.35665V14.7274Z" fill="white"/>
<path d="M8.35665 14.2726H7.9292V14.7274H8.35665V14.2726Z" fill="white"/>
<path d="M8.35665 13.8178H7.9292V14.2726H8.35665V13.8178Z" fill="white"/>
<path d="M8.35665 13.363H7.9292V13.8178H8.35665V13.363Z" fill="#A3B2B5"/>
<path d="M8.35665 12.9096H7.9292V13.363H8.35665V12.9096Z" fill="#E23333"/>
<path d="M8.35665 12.4548H7.9292V12.9096H8.35665V12.4548Z" fill="#E23333"/>
<path d="M8.35665 12H7.9292V12.4548H8.35665V12Z" fill="#E23333"/>
<path d="M8.35665 11.5452H7.9292V12H8.35665V11.5452Z" fill="#E23333"/>
<path d="M8.35665 11.0904H7.9292V11.5452H8.35665V11.0904Z" fill="#E23333"/>
<path d="M8.35665 10.6356H7.9292V11.0904H8.35665V10.6356Z" fill="#E23333"/>
<path d="M8.35665 10.1822H7.9292V10.6356H8.35665V10.1822Z" fill="#E23333"/>
<path d="M8.35665 9.72742H7.9292V10.1822H8.35665V9.72742Z" fill="#E23333"/>
<path d="M8.35665 9.27258H7.9292V9.72739H8.35665V9.27258Z" fill="#E23333"/>
<path d="M8.35665 8.81778H7.9292V9.27259H8.35665V8.81778Z" fill="#E23333"/>
<path d="M8.35665 8.36298H7.9292V8.81778H8.35665V8.36298Z" fill="#E23333"/>
<path d="M8.35665 7.90817H7.9292V8.36298H8.35665V7.90817Z" fill="#E23333"/>
<path d="M8.35665 7.4548H7.9292V7.90818H8.35665V7.4548Z" fill="#E23333"/>
<path d="M8.35665 7H7.9292V7.45481H8.35665V7Z" fill="#F30000"/>
<path d="M7.92929 18.3644H7.50049V18.8178H7.92929V18.3644Z" fill="#F30000"/>
<path d="M7.92929 17.9096H7.50049V18.3644H7.92929V17.9096Z" fill="#F30000"/>
<path d="M7.92929 17.4548H7.50049V17.9096H7.92929V17.4548Z" fill="#F30000"/>
<path d="M7.92929 17H7.50049V17.4548H7.92929V17Z" fill="#F30000"/>
<path d="M7.92929 16.5452H7.50049V17H7.92929V16.5452Z" fill="#F30000"/>
<path d="M7.92929 16.0904H7.50049V16.5452H7.92929V16.0904Z" fill="#F30000"/>
<path d="M7.92929 15.637H7.50049V16.0904H7.92929V15.637Z" fill="#F30000"/>
<path d="M7.92929 15.1822H7.50049V15.637H7.92929V15.1822Z" fill="#F30000"/>
<path d="M7.92929 14.7274H7.50049V15.1822H7.92929V14.7274Z" fill="#F30000"/>
<path d="M7.92929 14.2726H7.50049V14.7274H7.92929V14.2726Z" fill="#F30000"/>
<path d="M7.92929 13.8178H7.50049V14.2726H7.92929V13.8178Z" fill="#F30000"/>
<path d="M7.92929 13.363H7.50049V13.8178H7.92929V13.363Z" fill="#F30000"/>
<path d="M7.92929 12.9096H7.50049V13.363H7.92929V12.9096Z" fill="#F30000"/>
<path d="M7.92929 12.4548H7.50049V12.9096H7.92929V12.4548Z" fill="#F30000"/>
<path d="M7.92929 12H7.50049V12.4548H7.92929V12Z" fill="#F30000"/>
<path d="M7.92929 11.5452H7.50049V12H7.92929V11.5452Z" fill="#F30000"/>
<path d="M7.92929 11.0904H7.50049V11.5452H7.92929V11.0904Z" fill="#F30000"/>
<path d="M7.92929 10.6356H7.50049V11.0904H7.92929V10.6356Z" fill="#F30000"/>
<path d="M7.92929 10.1822H7.50049V10.6356H7.92929V10.1822Z" fill="#F30000"/>
<path d="M7.92929 9.72742H7.50049V10.1822H7.92929V9.72742Z" fill="#F30000"/>
<path d="M7.92929 9.27258H7.50049V9.72739H7.92929V9.27258Z" fill="#F30000"/>
<path d="M7.92929 8.81778H7.50049V9.27259H7.92929V8.81778Z" fill="#F30000"/>
<path d="M7.92929 8.36298H7.50049V8.81778H7.92929V8.36298Z" fill="#F30000"/>
<path d="M7.92929 7.90817H7.50049V8.36298H7.92929V7.90817Z" fill="#F30000"/>
<path d="M7.92929 7.4548H7.50049V7.90818H7.92929V7.4548Z" fill="#F30000"/>
<path d="M7.50009 18.3644H7.07129V18.8178H7.50009V18.3644Z" fill="#C16000"/>
<path d="M7.50009 17.9096H7.07129V18.3644H7.50009V17.9096Z" fill="#FFAA0D"/>
<path d="M7.50009 17.4548H7.07129V17.9096H7.50009V17.4548Z" fill="#FFAA0D"/>
<path d="M7.50009 17H7.07129V17.4548H7.50009V17Z" fill="#FFAA0D"/>
<path d="M7.50009 16.5452H7.07129V17H7.50009V16.5452Z" fill="#FFAA0D"/>
<path d="M7.50009 16.0904H7.07129V16.5452H7.50009V16.0904Z" fill="#FFAA0D"/>
<path d="M7.50009 15.637H7.07129V16.0904H7.50009V15.637Z" fill="#FFAA0D"/>
<path d="M7.50009 15.1822H7.07129V15.637H7.50009V15.1822Z" fill="#C16000"/>
<path d="M7.07138 18.8178H6.64258V19.2726H7.07138V18.8178Z" fill="#C16000"/>
<path d="M7.07138 18.3644H6.64258V18.8178H7.07138V18.3644Z" fill="#FFAA0D"/>
<path d="M7.07138 17.9096H6.64258V18.3644H7.07138V17.9096Z" fill="#FFAA0D"/>
<path d="M7.07138 17.4548H6.64258V17.9096H7.07138V17.4548Z" fill="#FFAA0D"/>
<path d="M7.07138 17H6.64258V17.4548H7.07138V17Z" fill="#FFAA0D"/>
<path d="M7.07138 16.5452H6.64258V17H7.07138V16.5452Z" fill="#FFAA0D"/>
<path d="M7.07138 16.0904H6.64258V16.5452H7.07138V16.0904Z" fill="#FFAA0D"/>
<path d="M7.07138 15.637H6.64258V16.0904H7.07138V15.637Z" fill="#FFAA0D"/>
<path d="M7.07138 15.1822H6.64258V15.637H7.07138V15.1822Z" fill="#C16000"/>
<path d="M6.64267 19.2726H6.21387V19.7274H6.64267V19.2726Z" fill="#C16000"/>
<path d="M6.64267 18.8178H6.21387V19.2726H6.64267V18.8178Z" fill="#FFAA0D"/>
<path d="M6.64267 18.3644H6.21387V18.8178H6.64267V18.3644Z" fill="#FFAA0D"/>
<path d="M6.64267 17.9096H6.21387V18.3644H6.64267V17.9096Z" fill="#FFAA0D"/>
<path d="M6.64267 17.4548H6.21387V17.9096H6.64267V17.4548Z" fill="#FFAA0D"/>
<path d="M6.64267 17H6.21387V17.4548H6.64267V17Z" fill="#FFAA0D"/>
<path d="M6.64267 16.5452H6.21387V17H6.64267V16.5452Z" fill="#FFAA0D"/>
<path d="M6.64267 16.0904H6.21387V16.5452H6.64267V16.0904Z" fill="#FFAA0D"/>
<path d="M6.64267 15.637H6.21387V16.0904H6.64267V15.637Z" fill="#C16000"/>
<path d="M6.21396 21.0918H5.78516V21.5452H6.21396V21.0918Z" fill="#C16000"/>
<path d="M6.21396 20.637H5.78516V21.0918H6.21396V20.637Z" fill="#C16000"/>
<path d="M6.21396 20.1822H5.78516V20.637H6.21396V20.1822Z" fill="#C16000"/>
<path d="M6.21396 19.7274H5.78516V20.1822H6.21396V19.7274Z" fill="#C16000"/>
<path d="M6.21396 19.2726H5.78516V19.7274H6.21396V19.2726Z" fill="#FFAA0D"/>
<path d="M6.21396 18.8178H5.78516V19.2726H6.21396V18.8178Z" fill="#FFAA0D"/>
<path d="M6.21396 18.3644H5.78516V18.8178H6.21396V18.3644Z" fill="#FFAA0D"/>
<path d="M6.21396 17.9096H5.78516V18.3644H6.21396V17.9096Z" fill="#FFAA0D"/>
<path d="M6.21396 17.4548H5.78516V17.9096H6.21396V17.4548Z" fill="#FFAA0D"/>
<path d="M6.21396 17H5.78516V17.4548H6.21396V17Z" fill="#FFAA0D"/>
<path d="M6.21396 16.5452H5.78516V17H6.21396V16.5452Z" fill="#FFAA0D"/>
<path d="M6.21396 16.0904H5.78516V16.5452H6.21396V16.0904Z" fill="#C16000"/>
<path d="M5.78487 21.5452H5.35742V22H5.78487V21.5452Z" fill="#C16000"/>
<path d="M5.78487 21.0918H5.35742V21.5452H5.78487V21.0918Z" fill="#FFAA0D"/>
<path d="M5.78487 20.637H5.35742V21.0918H5.78487V20.637Z" fill="#FFAA0D"/>
<path d="M5.78487 20.1822H5.35742V20.637H5.78487V20.1822Z" fill="#FFAA0D"/>
<path d="M5.78487 19.7274H5.35742V20.1822H5.78487V19.7274Z" fill="#FFAA0D"/>
<path d="M5.78487 19.2726H5.35742V19.7274H5.78487V19.2726Z" fill="#FFAA0D"/>
<path d="M5.78487 18.8178H5.35742V19.2726H5.78487V18.8178Z" fill="#FFAA0D"/>
<path d="M5.78487 18.3644H5.35742V18.8178H5.78487V18.3644Z" fill="#FFAA0D"/>
<path d="M5.78487 17.9096H5.35742V18.3644H5.78487V17.9096Z" fill="#FFAA0D"/>
<path d="M5.78487 17.4548H5.35742V17.9096H5.78487V17.4548Z" fill="#FFAA0D"/>
<path d="M5.78487 17H5.35742V17.4548H5.78487V17Z" fill="#FFAA0D"/>
<path d="M5.78487 16.5452H5.35742V17H5.78487V16.5452Z" fill="#C16000"/>
<path d="M5.35751 21.0918H4.92871V21.5452H5.35751V21.0918Z" fill="#C16000"/>
<path d="M5.35751 20.637H4.92871V21.0918H5.35751V20.637Z" fill="#C16000"/>
<path d="M5.35751 20.1822H4.92871V20.637H5.35751V20.1822Z" fill="#FFAA0D"/>
<path d="M5.35751 19.7274H4.92871V20.1822H5.35751V19.7274Z" fill="#FFAA0D"/>
<path d="M5.35751 19.2726H4.92871V19.7274H5.35751V19.2726Z" fill="#FFAA0D"/>
<path d="M5.35751 18.8178H4.92871V19.2726H5.35751V18.8178Z" fill="#FFAA0D"/>
<path d="M5.35751 18.3644H4.92871V18.8178H5.35751V18.3644Z" fill="#FFAA0D"/>
<path d="M5.35751 17.9096H4.92871V18.3644H5.35751V17.9096Z" fill="#C16000"/>
<path d="M5.35751 17.4548H4.92871V17.9096H5.35751V17.4548Z" fill="#C16000"/>
<path d="M5.35751 17H4.92871V17.4548H5.35751V17Z" fill="#C16000"/>
<path d="M4.9288 20.1822H4.5V20.637H4.9288V20.1822Z" fill="#C16000"/>
<path d="M4.9288 19.7274H4.5V20.1822H4.9288V19.7274Z" fill="#C16000"/>
<path d="M4.9288 19.2726H4.5V19.7274H4.9288V19.2726Z" fill="#C16000"/>
<path d="M4.9288 18.8178H4.5V19.2726H4.9288V18.8178Z" fill="#C16000"/>
<path d="M4.9288 18.3644H4.5V18.8178H4.9288V18.3644Z" fill="#C16000"/>
</g>
<defs>
<clipPath id="clip0_33_7674">
<rect width="15" height="20" fill="white" transform="translate(4.5 2)"/>
</clipPath>
</defs>
</svg>
