<svg width="36" height="36" viewBox="0 0 36 36" fill="none" xmlns="http://www.w3.org/2000/svg">
<path d="M30.75 0H4.48438C2.00772 0 0 2.00772 0 4.48438V30.75C0 33.2267 2.00772 35.2344 4.48438 35.2344H30.75C33.2267 35.2344 35.2344 33.2267 35.2344 30.75V4.48438C35.2344 2.00772 33.2267 0 30.75 0Z" fill="#BBF245" fill-opacity="0.75"/>
<path fill-rule="evenodd" clip-rule="evenodd" d="M14.8669 17.6506L7 7.875H13.2312L18.0874 13.917L23.2755 7.9022H26.7073L19.7467 15.9814L28 26.25H21.7874L16.5291 19.716L10.9154 26.2319H7.46501L14.8669 17.6506ZM22.6929 24.4388L10.8207 9.68624H12.3249L24.1822 24.4388H22.6929Z" fill="#1B2121"/>
</svg>
