<svg width="36" height="36" viewBox="0 0 36 36" fill="none" xmlns="http://www.w3.org/2000/svg">
<path d="M30.832 0.203125H4.56641C2.08975 0.203125 0.0820312 2.21085 0.0820312 4.6875V30.9531C0.0820312 33.4298 2.08975 35.4375 4.56641 35.4375H30.832C33.3087 35.4375 35.3164 33.4298 35.3164 30.9531V4.6875C35.3164 2.21085 33.3087 0.203125 30.832 0.203125Z" fill="#BBF245" fill-opacity="0.75"/>
<path d="M29.1476 8.29446C29.1476 8.43019 26.395 21.7221 25.2883 27.0327C25.1281 27.8033 24.7148 27.9701 24.0717 27.5031C22.4582 26.3316 20.8452 25.1593 19.2328 23.9863C18.5547 23.4932 18.2773 23.5093 17.618 24.0541C16.809 24.7227 15.9958 25.3863 15.1786 26.045C14.5206 26.5739 14.1351 26.4534 13.8876 25.658C13.2789 23.6998 12.6611 21.7441 12.0697 19.7812C11.9761 19.4705 11.8231 19.3067 11.5272 19.1997C10.0255 18.6571 8.53024 18.0982 7.03278 17.545C6.73649 17.4354 6.44477 17.3173 6.25122 17.0461C6.25122 16.561 6.39384 16.3295 6.85981 16.1503C13.9374 13.4291 21.0133 10.7038 28.0876 7.97431C28.5578 7.79245 28.8952 7.85171 29.1476 8.29446ZM23.9812 11.9606C23.9194 11.9934 17.0624 16.2075 13.7245 18.2717C13.2218 18.5827 13.0395 18.973 13.188 19.5176C13.529 20.7655 13.9021 22.0046 14.257 23.2487C14.3058 23.4199 14.3537 23.5879 14.5635 23.5907C14.8242 23.5941 14.8362 23.3676 14.8629 23.1947C14.9505 22.6276 15.0452 22.0595 15.0886 21.4881C15.1069 21.2104 15.1801 20.939 15.3039 20.6896C15.4277 20.4403 15.5997 20.218 15.81 20.0356C18.086 17.9331 23.6149 12.7892 24.1078 12.3248C24.2697 12.1726 24.2566 11.934 23.9812 11.9606Z" fill="#1B2121"/>
</svg>
