<svg width="24" height="18" viewBox="0 0 24 18" fill="none" xmlns="http://www.w3.org/2000/svg">
<path d="M1.76197 2.375L0.979974 3.382C0.255383 4.31419 -0.0877353 5.48698 0.0201465 6.66273C0.128028 7.83847 0.678841 8.92924 1.56097 9.714L9.19997 16.955C9.96988 17.6264 10.9574 17.9953 11.979 17.993C13.0317 17.9925 14.0482 17.6081 14.838 16.912L22.398 9.769C23.2895 9.00083 23.8551 7.92197 23.9798 6.75174C24.1044 5.58151 23.7787 4.40773 23.069 3.469L22.317 2.462C21.74 1.69734 20.9935 1.07701 20.1361 0.649794C19.2787 0.222581 18.3339 0.000149664 17.376 0H6.63897C5.69932 0.000965687 4.77215 0.215226 3.92734 0.626629C3.08254 1.03803 2.34214 1.63584 1.76197 2.375ZM3.35197 5.221L4.13097 4.215C4.42984 3.83592 4.81085 3.5296 5.24528 3.31914C5.67971 3.10868 6.15625 2.99956 6.63897 3H9.06397L8.49097 4.406C8.2249 5.07104 8.09993 5.78411 8.12397 6.5H15.841C15.886 5.74474 15.7641 4.98883 15.484 4.286L14.961 3H17.376C17.8682 2.99911 18.354 3.11254 18.7949 3.33137C19.2359 3.55019 19.62 3.86843 19.917 4.261L20.669 5.268C20.7993 5.44263 20.893 5.64174 20.9445 5.85343C20.9961 6.06512 21.0044 6.28503 20.969 6.5H15.841C15.8201 7.04687 15.7124 7.58695 15.522 8.1L12.553 14.85C12.38 14.9382 12.1886 14.9842 11.9945 14.9842C11.8003 14.9842 11.6089 14.9382 11.436 14.85L8.45397 8.224C8.24668 7.6723 8.13508 7.08926 8.12397 6.5H3.02397C2.9869 6.27572 2.99692 6.04618 3.05339 5.82599C3.10986 5.60579 3.21154 5.39976 3.35197 5.221Z" fill="#451B0B"/>
</svg>
